<svg xmlns="http://www.w3.org/2000/svg" width="512" height="512" viewBox="0 0 60 61">
    <path d="M57 20c-4.34 0-4.31-.06-5 .18V5c0-2.761-2.239-5-5-5H13c-2.761 0-5 2.239-5 5v15.18c-.69-.24-.61-.18-5-.18-1.657 0-3 1.343-3 3v27c.004.763.443 1.458 1.13 1.79l1.2 6.4C2.68 59.349 3.794 60.104 5 60c1.206.104 2.32-.651 2.67-1.81l1.2-6.4c.444-.2.8-.556 1-1 .869.758 1.977 1.187 3.13 1.21h34c1.167-.003 2.294-.421 3.18-1.18.2.444.556.8 1 1l1.2 6.41c.44 1.088 1.496 1.8 2.67 1.8s2.23-.712 2.67-1.8l1.2-6.4c.681-.352 1.1-1.063 1.08-1.83V23c0-1.657-1.343-3-3-3zm-4 2h4c.552 0 1 .448 1 1v27h-6V23c0-.552.448-1 1-1zm-32.13 5c23.6 0 25-.6 28 3H11.15c1.6-1.94 2.85-3 9.72-3zM10 32h40v10H10zm0-27c0-1.657 1.343-3 3-3h34c1.657 0 3 1.343 3 3v23.28c-1.34-1.51-2.75-2.55-6-3 1.63-2.51 2-7.62 2-14.27 0-.552-.448-1-1-1s-1 .448-1 1c0 3.46 0 14-3 14H19.15c-.05-.008-.1-.011-.15-.01-3 0-3-10.54-3-14 0-.552-.448-1-1-1s-1 .448-1 1c0 6.65.41 11.76 2 14.27-3.29.46-4.7 1.5-6 3zM2 23c0-.552.448-1 1-1h4c.552 0 1 .448 1 1v27H2zm3.72 34.77c-.2.168-.46.25-.72.23-.244 0-.484-.058-.7-.17L3.21 52H6.8zM47 50H13c-1.657 0-3-1.343-3-3v-3h40v3c0 1.657-1.343 3-3 3zm8.72 7.77c-.2.168-.46.25-.72.23-.244 0-.484-.058-.7-.17L53.21 52h3.59z"/>
</svg>
