<svg xmlns="http://www.w3.org/2000/svg" width="28" height="28" viewBox="0 0 28 28">
    <path d="M8.932 21.779c-1.615 0-2.923 1.309-2.923 2.923s1.308 2.923 2.923 2.923c1.614 0 2.923-1.309 2.923-2.923s-1.309-2.923-2.923-2.923zm0 4.547c-.897 0-1.624-.727-1.624-1.624 0-.897.727-1.624 1.624-1.624.897 0 1.624.727 1.624 1.624 0 .897-.727 1.624-1.624 1.624zM21.274 21.779c-1.614 0-2.923 1.309-2.923 2.923s1.309 2.923 2.923 2.923c1.615 0 2.923-1.309 2.923-2.923s-1.308-2.923-2.923-2.923zm0 4.547c-.897 0-1.624-.727-1.624-1.624 0-.897.727-1.624 1.624-1.624.897 0 1.624.727 1.624 1.624 0 .897-.727 1.624-1.624 1.624zM27.868 4.727c-.136-.148-.32-.24-.52-.26L6.204 4.175l-.585-1.786c-.412-1.195-1.53-2-2.793-2.014H.65c-.36 0-.65.29-.65.65 0 .358.29.649.65.649h2.176c.706.016 1.328.47 1.559 1.137L8.51 15.25l-.325.747c-.362.934-.254 1.985.292 2.825.54.825 1.45 1.335 2.436 1.364h12.635c.359 0 .65-.29.65-.65 0-.358-.291-.649-.65-.649H10.913c-.557-.014-1.07-.307-1.364-.78-.291-.466-.351-1.041-.162-1.558l.26-.585 13.673-1.43c1.503-.165 2.738-1.257 3.086-2.727l1.56-6.529c.07-.188.032-.4-.098-.552zm-2.729 6.788c-.21.947-1.014 1.645-1.98 1.722L9.646 14.633 6.626 5.474l19.91.292-1.397 5.75z"/>
</svg>
