<svg xmlns="http://www.w3.org/2000/svg" enable-background="new 0 0 60 60" viewBox="0 0 60 60">
    <path d="M42.766 18H39v-3.345-.005c2.552-1.592 4-3.804 4-6.15C43 3.733 37.29 0 30 0S17 3.733 17 8.5c0 2.644 1.856 5.118 5 6.713V18h-4.767C9.384 18 3 24.385 3 32.233v22.578c0 2.641 1.972 4.908 4.489 5.163 1.398.138 2.811-.319 3.858-1.266C12.397 57.759 13 56.407 13 55V34.804c0-1.374 1.117-2.491 2.5-2.491.666 0 1.292.259 1.763.729.47.47.729 1.095.729 1.76C17.984 43.75 18 55 18 55c0 2.481 2.019 4.5 4.5 4.5s4.5-2.019 4.5-4.499c0 0 .016-11.024.009-20.002-.001-1.411 1.056-2.615 2.355-2.683.696-.033 1.352.205 1.853.68.5.475.774 1.116.774 1.805C31.984 43.75 32 55 32 55c0 2.481 2.019 4.5 4.5 4.5s4.5-2.019 4.5-4.499c0 0 .016-11.25.009-20.199 0-.665.259-1.291.729-1.76.471-.47 1.097-.729 1.763-.729h1.009c1.374 0 2.491 1.117 2.491 2.491v20.008c0 2.641 1.972 4.908 4.489 5.163.167.017.335.025.502.025 1.232 0 2.434-.457 3.356-1.291C56.397 57.759 57 56.407 57 55V32.233C57 24.385 50.615 18 42.766 18zM24.196 3.02c.121-.046.243-.091.367-.133.22-.075.443-.146.67-.212.147-.043.293-.089.444-.129 2.741-.698 5.904-.698 8.645 0 .151.039.296.085.443.128.227.065.45.137.67.212.124.043.246.088.367.133.131.325.198.653.198.981 0 2.168-2.748 4-6 4s-6-1.832-6-4c0-.328.066-.656.196-.98zM55 55c0 .843-.362 1.653-.994 2.224-.638.576-1.464.845-2.315.76-1.51-.152-2.691-1.546-2.691-3.172V34.804c0-2.476-2.015-4.491-4.491-4.491H43.5c-1.2 0-2.328.467-3.176 1.314-.849.848-1.316 1.976-1.315 3.176C39.015 43.75 39 54.999 39 55c0 1.378-1.121 2.5-2.5 2.5S34 56.378 34 54.999c0 0-.016-11.248-.009-20.195.001-1.244-.496-2.401-1.397-3.257-.903-.856-2.088-1.296-3.335-1.227-2.385.125-4.251 2.181-4.25 4.682C25.015 43.977 25 54.999 25 55c0 1.378-1.121 2.5-2.5 2.5S20 56.378 20 54.999c0 0-.016-11.248-.009-20.195.001-1.2-.467-2.328-1.315-3.176-.848-.848-1.976-1.314-3.185-1.314-2.477 0-4.491 2.015-4.491 4.491V55c0 .843-.362 1.653-.994 2.224-.638.576-1.464.845-2.315.76C6.181 57.832 5 56.438 5 54.812V32.233C5 25.488 10.488 20 17.233 20h6.801v-6.048l-.617-.277C20.651 12.431 19 10.497 19 8.5c0-1.682 1.157-3.236 3.006-4.404C22.075 7.36 25.631 10 30 10s7.924-2.64 7.994-5.904C39.843 5.264 41 6.818 41 8.5c0 1.775-1.303 3.508-3.574 4.755l-.426.403V20h5.767C49.511 20 55 25.488 55 32.233V55z"/>
</svg>
