<svg xmlns="http://www.w3.org/2000/svg" width="512pt" height="512pt" viewBox="0 0 512 512">
    <path d="M477.867 0H34.133C15.28 0 0 15.281 0 34.133v341.332c0 18.851 15.281 34.137 34.133 34.137h133.754l-12.196 42.664h-2.09c-23.554.027-42.64 19.117-42.667 42.668 0 9.425 7.64 17.066 17.066 17.066h256c9.426 0 17.066-7.64 17.066-17.066-.027-23.551-19.113-42.641-42.668-42.668h-2.09l-12.195-42.664h133.754c18.852 0 34.133-15.286 34.133-34.137V34.133C512 15.28 496.719 0 477.867 0zM384 494.934H128c0-14.141 11.46-25.602 25.602-25.602h204.796c14.13.023 25.579 11.473 25.602 25.602zm-45.457-42.668H173.449l12.184-42.664h140.734zm156.39-76.801c0 9.426-7.64 17.07-17.066 17.07H34.133c-9.426 0-17.067-7.644-17.067-17.07V34.133c0-9.426 7.641-17.067 17.067-17.067h443.734c9.426 0 17.067 7.641 17.067 17.067zm0 0"/>
    <path d="M452.266 34.133H59.734c-14.14 0-25.601 11.46-25.601 25.601v256c0 14.137 11.46 25.598 25.601 25.598h392.532c14.14 0 25.601-11.46 25.601-25.598v-256c0-14.14-11.46-25.601-25.601-25.601zm8.535 281.601c0 4.711-3.82 8.532-8.535 8.532H59.734c-4.714 0-8.535-3.82-8.535-8.532v-256c0-4.714 3.82-8.535 8.535-8.535h392.532c4.714 0 8.535 3.82 8.535 8.535zm0 0M298.668 358.398h-85.336c-4.71 0-8.531 3.82-8.531 8.536 0 4.71 3.82 8.53 8.531 8.53h85.336c4.71 0 8.531-3.82 8.531-8.53 0-4.715-3.82-8.536-8.531-8.536zm0 0"/>
    <path d="M76.8 187.734c2.54.004 4.946-1.12 6.571-3.074l85.332-102.398c1.953-2.344 2.504-5.551 1.45-8.414-1.055-2.864-3.555-4.946-6.563-5.461-3.004-.52-6.059.61-8.012 2.953L70.246 173.738c-2.117 2.543-2.574 6.082-1.172 9.082 1.406 2.996 4.414 4.91 7.727 4.914zm0 0M227.234 70.168c-3.664-2.961-9.03-2.395-12 1.266L70.168 250.633c-2.008 2.36-2.582 5.625-1.492 8.527 1.086 2.903 3.66 4.988 6.726 5.445 3.067.461 6.141-.78 8.028-3.238L228.496 82.168c2.965-3.664 2.399-9.035-1.262-12zm0 0M240.758 114.191l-93.863 119.47c-1.95 2.39-2.454 5.644-1.32 8.51 1.128 2.872 3.718 4.907 6.769 5.329 3.054.422 6.097-.84 7.965-3.293l93.867-119.465c1.945-2.394 2.449-5.648 1.32-8.515-1.133-2.868-3.723-4.903-6.773-5.325-3.055-.422-6.098.836-7.965 3.29zm0 0"/>
</svg>
