<svg width="28" height="28" fill="none" xmlns="http://www.w3.org/2000/svg">
    <path d="m27.186 13.199-2.568-.681-2.04-5.321a1.094 1.094 0 0 0-1.02-.703h-3.83V3.172c0-.604-.49-1.094-1.094-1.094H5.25a1.094 1.094 0 1 0 0 2.188h10.29v17.39h-5.234a3.178 3.178 0 0 0-2.978-2.078 3.176 3.176 0 0 0-3.172 3.172 3.176 3.176 0 0 0 3.172 3.172c1.365 0 2.53-.867 2.978-2.078h9.467a3.178 3.178 0 0 0 2.977 2.078c1.365 0 2.53-.867 2.977-2.078h1.18c.603 0 1.093-.49 1.093-1.094v-8.494c0-.496-.334-.93-.814-1.057zM7.328 23.734a.985.985 0 0 1 0-1.968.985.985 0 0 1 0 1.968zm10.4-15.052h3.077l1.97 5.141c.127.328.402.576.742.666l2.296.608v6.56h-.085a3.178 3.178 0 0 0-2.978-2.079c-1.365 0-2.53.867-2.977 2.078h-2.045V8.682zm5.022 15.052a.986.986 0 0 1 0-1.968.986.986 0 0 1 0 1.968z" fill="#103178"/>
    <path d="M2.479 8.86h2.77a1.094 1.094 0 1 0 0-2.188H2.48a1.094 1.094 0 1 0 0 2.187zM4.958 11.922c0-.604-.49-1.094-1.093-1.094H1.094a1.094 1.094 0 1 0 0 2.188h2.77c.605 0 1.094-.49 1.094-1.094zM6.344 16.078c0-.604-.49-1.094-1.094-1.094H2.479a1.094 1.094 0 1 0 0 2.188h2.77c.605 0 1.095-.49 1.095-1.094z" fill="#103178"/>
</svg>
