<svg xmlns="http://www.w3.org/2000/svg" width="1083" height="156" fill-rule="evenodd" clip-rule="evenodd" image-rendering="optimizeQuality" shape-rendering="geometricPrecision" text-rendering="geometricPrecision" viewBox="0 0 1060.01 152.27">
    <defs>
        <style>
            .fil2{fill:#005eb8}.fil0{fill:#f02709}
        </style>
    </defs>
    <g id="Layer_x0020_1">
        <path d="M198.69 23.4L177.14 130.1 88.46 152.27 76.94 53.84 162.17 23.4 159.33 9.35z" class="fil0"/>
        <path fill="#FEFEFE" fill-rule="nonzero" d="M140.06 103.27c.05-.31.09-.63.11-.95v-.01l1.04-11.48c-1.05.1-2.18.24-3.37.42-1.23.18-2.42.43-3.54.74-1.13.3-2.26.69-3.4 1.15v-.01c-.95.39-1.84.87-2.66 1.43-.82.57-1.57 1.21-2.24 1.92v.01c-.62.68-1.13 1.48-1.52 2.4-.41.96-.68 2.06-.8 3.28h-.01c-.09 1.15-.04 2.19.13 3.1.15.85.42 1.58.78 2.21.37.59.78 1.09 1.23 1.51l.01-.01c.43.39.88.69 1.34.91l.05.02c.49.24.99.41 1.49.53.44.1.87.14 1.28.14.62 0 1.23-.04 1.83-.13.61-.09 1.21-.23 1.81-.41.62-.19 1.2-.42 1.72-.68v-.01c.53-.27 1.04-.58 1.5-.93.51-.39.98-.83 1.39-1.31.42-.49.8-1.07 1.13-1.71h.01c.11-.25.22-.48.29-.67.09-.22.17-.46.24-.71.06-.23.12-.48.16-.75zm40.57-30.29c-.01 1.8-.1 3.58-.28 5.36l-2.81 31.01c-.15 1.67-.28 3.31-.36 4.93v.01c-.08 1.61-.13 3.22-.14 4.85l-.02.03c-.03 1.54-.01 3.07.06 4.57.07 1.55.19 3.02.34 4.39l.38 3.3h-35.28l-.27-2.46-.28-2.62-.52.32c-2.2 1.34-4.59 2.47-7.16 3.39l.01.01c-2.48.9-5.1 1.58-7.84 2.05-2.71.46-5.47.68-8.29.68h-.03c-3.24-.01-6.32-.33-9.2-.96h-.02c-2.88-.63-5.57-1.57-8.05-2.81-2.46-1.22-4.62-2.67-6.47-4.35-1.85-1.68-3.41-3.59-4.68-5.71-1.26-2.09-2.16-4.37-2.67-6.8-.51-2.38-.65-4.92-.42-7.61l-.01-.03c.24-2.37.72-4.62 1.45-6.75.74-2.16 1.74-4.18 2.99-6.07 1.25-1.89 2.68-3.63 4.28-5.23 1.61-1.61 3.43-3.1 5.45-4.47l.03-.02c2.01-1.35 4.12-2.57 6.32-3.65 2.2-1.07 4.56-2.04 7.07-2.91v-.01c2.39-.81 4.93-1.55 7.61-2.19 2.59-.62 5.23-1.12 7.9-1.51 2.64-.4 5.33-.71 8.07-.92 1.43-.11 2.85-.19 4.28-.25 0-.59-.05-1.14-.16-1.67-.15-.76-.42-1.46-.79-2.09l-.04-.05c-.33-.59-.76-1.1-1.3-1.55-.56-.45-1.27-.86-2.11-1.22v-.01c-.84-.35-1.83-.62-2.96-.81-1.21-.2-2.58-.31-4.12-.31-2.09 0-4.08.1-5.95.3-1.89.2-3.72.49-5.48.88v.01c-1.78.4-3.54.88-5.27 1.44h-.02c-1.7.55-3.38 1.19-5.05 1.92l-4.65 2.02-1.03-3.73-4.23-15.26-.61-2.2 2.83-1.09c1.26-.48 2.7-.98 4.34-1.5 1.55-.49 3.23-.98 5.05-1.46v.01c1.92-.52 3.98-1 6.18-1.44 2.18-.43 4.45-.81 6.8-1.15 2.43-.35 4.98-.63 7.65-.83 2.64-.19 5.37-.29 8.19-.31h.07c3.68.01 7.05.19 10.12.55 3.15.36 6.02.9 8.6 1.63 2.59.72 4.92 1.57 6.98 2.55 2.14 1.02 4.02 2.2 5.65 3.51l.02.01c1.56 1.28 2.92 2.65 4.08 4.13 1.15 1.46 2.11 3.03 2.88 4.69.74 1.61 1.32 3.26 1.77 4.96.43 1.66.72 3.4.9 5.21v.02c.15 1.84.23 3.6.22 5.27z"/>
        <path d="M37.25 131.43L4.23 131.43 0 131.43.28 128.33 11.56 3.84 11.84.74 16.03.74 89.88.74 94.11.74 93.83 3.84 91.92 24.9 91.64 28 87.45 28 50.81 28 48.48 53.75 82.56 53.75 86.79 53.75 86.5 56.85 84.68 76.99 84.4 80.08 80.21 80.08 46.09 80.08 41.72 128.33 41.44 131.43zM223.82 131.43h-34.58l.26-2.88 5.32-58.64c.23-2.57.4-4.72.53-6.59.11-1.73.24-3.9.36-6.33h.01c.1-2.36.18-4.34.24-6.11.07-2.03.14-4.06.2-6.06l.1-3h33.95l.21 2.52.27 3.44c.78-.51 1.6-1 2.44-1.47 1.6-.9 3.34-1.72 5.21-2.46v-.01c1.75-.69 3.64-1.3 5.65-1.82 1.97-.51 4.05-.91 6.19-1.17 2.11-.27 4.25-.4 6.42-.4h.03c3.95.01 7.55.4 10.79 1.15 3.32.76 6.23 1.92 8.73 3.45l.02.01c2.44 1.51 4.5 3.3 6.17 5.37 1.65 2.04 2.93 4.37 3.84 6.97.86 2.47 1.44 5.17 1.71 8.1.28 2.91.26 5.99-.05 9.22h-.01l-4.87 53.84-.26 2.87h-38.47l.26-2.88 4.75-52.47.01-.04c.12-1.07.15-2.12.1-3.14-.05-.96-.18-1.92-.4-2.89V70c-.19-.84-.47-1.59-.84-2.24-.35-.61-.79-1.14-1.31-1.6-.4-.34-.88-.6-1.45-.77-.65-.2-1.47-.31-2.46-.32-.82 0-1.58.1-2.28.29-.7.19-1.39.5-2.08.91l-.05.02c-.7.42-1.36.98-1.98 1.65-.66.73-1.27 1.63-1.82 2.68l-.12.19c-.2.31-.4.68-.59 1.11-.19.43-.39.97-.6 1.6-.2.61-.36 1.22-.48 1.82-.12.62-.22 1.33-.29 2.12l-4.63 51.1-.26 2.87h-3.89zM309.9 41.82l1.08-11.87.19-2.11 2.8-.63 31.29-7.03 5.18-1.17-.36 3.92-1.71 18.89h22.46l-.26 2.89-1.44 15.94-.26 2.88H346.41l-3.21 35.36c-.12 1.47-.1 2.74.04 3.83.13.99.37 1.82.72 2.48l.01.01c.35.66.73 1.2 1.14 1.6l.01-.01c.36.35.74.6 1.13.76.51.21 1.07.37 1.66.48.58.1 1.22.15 1.91.14h.08c.72 0 1.41-.01 2.04-.02.64-.02 1.24-.04 1.79-.08.67-.04 1.28-.09 1.81-.15h.01c.62-.06 1.27-.13 1.94-.22l4.57-.57-.26 3.38-1.35 17.49-.18 2.23-2.96.58c-1.13.22-2.47.44-4.02.65h-.02c-1.36.19-2.88.36-4.55.51h-.02c-1.86.16-3.72.29-5.52.37-1.75.07-3.67.11-5.74.11-2.43 0-4.74-.11-6.94-.33-2.25-.23-4.39-.58-6.43-1.06-2.12-.48-4.08-1.11-5.89-1.88l.01-.01c-1.82-.77-3.49-1.7-5.03-2.77l-.13-.08c-1.11-.86-2.11-1.78-3.01-2.78-.87-.98-1.67-2.06-2.38-3.22-.72-1.18-1.32-2.49-1.8-3.92-.47-1.38-.83-2.91-1.08-4.56-.26-1.65-.4-3.44-.42-5.37-.02-1.91.07-3.99.27-6.22l3.33-36.73h-13.58l.26-2.88 1.45-15.95.26-2.88h13.57zM418.72 103.27c.05-.31.09-.63.12-.95v-.01l1.04-11.48c-1.06.1-2.18.24-3.37.42-1.24.18-2.42.43-3.55.74-1.12.3-2.26.69-3.39 1.15l-.01-.01c-.95.39-1.83.87-2.66 1.43-.82.57-1.57 1.21-2.24 1.92l.01.01c-.62.68-1.14 1.48-1.52 2.4-.41.96-.68 2.06-.81 3.28h-.01c-.08 1.15-.03 2.19.13 3.1.16.85.42 1.58.79 2.21.36.59.78 1.09 1.23 1.51l.01-.01c.42.39.87.69 1.33.91l.05.02c.49.24.99.41 1.5.53.43.1.86.14 1.27.14.62 0 1.23-.04 1.84-.13.6-.09 1.21-.23 1.81-.41.62-.19 1.2-.42 1.72-.68l-.01-.01c.54-.27 1.04-.58 1.5-.93.52-.39.98-.83 1.39-1.31.42-.49.8-1.07 1.14-1.71.12-.25.22-.48.3-.67.09-.22.16-.46.23-.71.07-.23.12-.48.16-.75zm40.58-30.29c-.01 1.8-.1 3.58-.28 5.36h-.01l-2.81 31.01c-.15 1.67-.27 3.31-.35 4.93v.01c-.09 1.61-.14 3.22-.15 4.85l-.01.03c-.03 1.54-.01 3.07.06 4.57.06 1.55.18 3.02.34 4.39l.37 3.3h-35.27l-.27-2.46-.29-2.62-.51.32c-2.21 1.34-4.59 2.47-7.16 3.39v.01c-2.48.9-5.1 1.58-7.83 2.05-2.71.46-5.48.68-8.29.68h-.03c-3.25-.01-6.32-.33-9.2-.96h-.02c-2.88-.63-5.58-1.57-8.06-2.81-2.46-1.22-4.61-2.67-6.47-4.35-1.84-1.68-3.4-3.59-4.67-5.71h-.01c-1.26-2.09-2.15-4.37-2.67-6.8-.5-2.38-.64-4.92-.42-7.61v-.03c.23-2.37.71-4.62 1.44-6.75.74-2.16 1.74-4.18 3-6.07 1.25-1.89 2.68-3.63 4.28-5.23 1.61-1.61 3.42-3.1 5.44-4.47l.03-.02c2.02-1.35 4.12-2.57 6.32-3.65 2.2-1.07 4.56-2.04 7.08-2.91v-.01c2.39-.81 4.92-1.55 7.6-2.19 2.6-.62 5.23-1.12 7.91-1.51 2.63-.4 5.33-.71 8.06-.92 1.43-.11 2.86-.19 4.29-.25 0-.59-.05-1.14-.16-1.67-.16-.76-.42-1.46-.8-2.09l-.03-.05c-.33-.59-.77-1.1-1.31-1.55-.55-.45-1.26-.86-2.11-1.22l.01-.01c-.85-.35-1.84-.62-2.96-.81-1.21-.2-2.58-.31-4.12-.31-2.1 0-4.08.1-5.95.3-1.89.2-3.73.49-5.49.88v.01c-1.77.4-3.53.88-5.27 1.44h-.01c-1.7.55-3.39 1.19-5.06 1.92l-4.64 2.02-1.03-3.73-4.24-15.26-.61-2.2 2.84-1.09c1.25-.48 2.7-.98 4.33-1.5 1.56-.49 3.24-.98 5.05-1.46l.01.01c1.91-.52 3.97-1 6.17-1.44 2.19-.43 4.46-.81 6.8-1.15 2.43-.35 4.99-.63 7.66-.83 2.63-.19 5.36-.29 8.19-.31h.06c3.68.01 7.06.19 10.13.55h-.01c3.16.36 6.02.9 8.6 1.63 2.6.72 4.93 1.57 6.99 2.55 2.13 1.02 4.01 2.2 5.65 3.51l.01.01c1.56 1.28 2.92 2.65 4.09 4.13 1.15 1.46 2.1 3.03 2.87 4.69.74 1.61 1.33 3.26 1.77 4.96.43 1.66.73 3.4.9 5.21v.02c.16 1.84.23 3.6.23 5.27zM467.07 128.73c-1.36-.52-2.54-1.07-3.53-1.65l-1.94-1.13.77-1.85 6.87-16.46 1.64-3.91 4.41 2.16c.62.31 1.32.61 2.09.9h.01c.88.33 1.79.64 2.7.92l.05.02c.87.27 1.9.56 3.08.85 1.17.28 2.28.52 3.35.71 1.11.19 2.25.33 3.42.43 1.18.11 2.32.17 3.42.18 1.65 0 3.09-.12 4.29-.37 1.01-.21 1.87-.51 2.57-.91h.01c.58-.32 1.04-.74 1.37-1.24.38-.57.61-1.29.68-2.15l.02-.06c.05-.44.02-.88-.07-1.31-.1-.42-.25-.81-.45-1.16l-.01.01c-.27-.43-.64-.86-1.12-1.3-.48-.44-1.09-.9-1.84-1.36l-.04-.02c-.82-.52-1.83-1.1-3.04-1.71v-.02c-1.06-.55-2.41-1.18-4.01-1.88v-.01c-3.05-1.33-5.75-2.7-8.09-4.08-2.47-1.46-4.56-2.94-6.3-4.44l-.03-.03c-1.69-1.49-3.12-3-4.27-4.51-1.18-1.54-2.08-3.11-2.69-4.68v-.01c-.6-1.52-1.01-3.02-1.23-4.49-.22-1.5-.25-2.99-.1-4.46h-.01c.21-2.04.64-4.03 1.3-5.97.65-1.93 1.55-3.79 2.69-5.59 1.16-1.83 2.51-3.51 4.04-5.05 1.54-1.55 3.3-3 5.29-4.35l-.01-.01c1.93-1.32 4.06-2.51 6.39-3.57 2.32-1.05 4.77-1.94 7.36-2.67 2.58-.73 5.35-1.28 8.28-1.65 2.84-.37 5.8-.55 8.88-.57h.04c2.53.01 4.94.12 7.23.32 2.28.2 4.46.51 6.55.92v.01c2.01.38 3.89.82 5.65 1.32v-.01c1.82.51 3.52 1.08 5.11 1.7l2.65 1.03-.92 2.21-6.88 16.46-1.58 3.78-4.37-1.98c-.94-.43-1.94-.83-2.99-1.18-1.1-.38-2.22-.71-3.36-1v.01c-1.14-.29-2.3-.5-3.48-.63-1.17-.14-2.45-.21-3.84-.22v-.01c-1 .01-1.92.09-2.77.22-.74.12-1.39.28-1.94.48h-.01l-.02.01c-.52.19-.97.43-1.36.68-.35.23-.65.49-.9.79h-.01c-.25.3-.46.63-.62 1-.15.36-.25.75-.28 1.15l-.01.07c-.05.35-.03.67.03.97.07.29.2.59.39.89.19.29.49.61.9.96h.02c.51.43 1.14.88 1.87 1.32l.03.02c.79.48 1.83 1.05 3.11 1.7h-.01c1.18.6 2.62 1.28 4.33 2.03v.01c2.82 1.23 5.36 2.51 7.61 3.84l.02.01c2.29 1.35 4.31 2.77 6.03 4.25 1.7 1.45 3.18 2.98 4.43 4.57 1.23 1.59 2.21 3.22 2.91 4.9l.02.01c.68 1.63 1.16 3.32 1.43 5.06.27 1.75.32 3.5.14 5.25-.32 3.08-1.07 5.95-2.28 8.61-1.22 2.72-2.89 5.18-5.02 7.38-2.13 2.2-4.6 4.14-7.43 5.81-2.8 1.65-5.94 3.05-9.43 4.18-3.42 1.09-7.05 1.92-10.9 2.47-3.77.54-7.76.81-11.96.81-1.71 0-3.45-.05-5.21-.16-1.73-.11-3.48-.27-5.23-.48h-.01c-1.66-.2-3.33-.45-5.01-.76-1.62-.29-3.17-.63-4.66-1.02v.01c-1.54-.39-2.94-.84-4.21-1.32zM557.21 41.82l1.08-11.87.19-2.11 2.8-.63 31.29-7.03 5.18-1.17-.35 3.92-1.71 18.89h22.46l-.26 2.89-1.45 15.94-.26 2.88h-22.46l-3.2 35.36h-.01c-.11 1.47-.1 2.74.04 3.83.13.99.37 1.82.72 2.48l.02.01c.34.66.72 1.2 1.14 1.6v-.01c.36.35.74.6 1.14.76.51.21 1.06.37 1.66.48h-.01c.59.1 1.23.15 1.92.14h.07c.72 0 1.41-.01 2.04-.02.64-.02 1.24-.04 1.79-.08.67-.04 1.28-.09 1.81-.15h.02c.61-.06 1.26-.13 1.93-.22l4.57-.57-.26 3.38-1.35 17.49-.17 2.23-2.97.58c-1.12.22-2.46.44-4.02.65h-.01c-1.37.19-2.89.36-4.56.51h-.01c-1.87.16-3.72.29-5.53.37-1.75.07-3.66.11-5.74.11-2.42 0-4.74-.11-6.94-.33-2.25-.23-4.39-.58-6.43-1.06h.01c-2.13-.48-4.09-1.11-5.89-1.88v-.01c-1.82-.77-3.49-1.7-5.03-2.77l-.13-.08c-1.1-.86-2.11-1.78-3-2.78-.88-.98-1.67-2.06-2.39-3.22-.72-1.18-1.32-2.49-1.8-3.92-.46-1.38-.83-2.91-1.08-4.56-.25-1.65-.4-3.44-.42-5.37-.02-1.91.07-3.99.27-6.22l3.33-36.73h-13.57l.26-2.88 1.44-15.95.27-2.88h13.56zM662.81 44.71L655.21 128.56 654.95 131.43 651.06 131.43 620.41 131.43 616.48 131.43 616.74 128.55 624.34 44.7 624.6 41.82 628.49 41.82 659.14 41.82 663.07 41.82zM731.78 107.57c.68-.17 1.38-.38 2.11-.64l5.18-1.83.23 4.11.97 17.66.12 2.1-2.69.85c-.63.2-1.42.41-2.35.64h-.02c-.94.22-1.87.43-2.76.59l-.03.01c-1.04.19-2.21.37-3.49.54-1.17.15-2.45.29-3.82.43-1.49.15-2.94.26-4.32.33-1.41.06-2.88.1-4.43.1h-.02c-5.19-.01-10.02-.45-14.5-1.32-4.49-.87-8.62-2.18-12.38-3.93l-.01-.01c-3.77-1.75-7.05-3.93-9.84-6.51-2.76-2.56-5.06-5.53-6.89-8.9-1.81-3.35-3.07-7.06-3.76-11.14-.68-4-.83-8.37-.42-13.07v-.02c.32-3.36.96-6.61 1.9-9.75.95-3.15 2.2-6.13 3.74-8.94v-.01c1.58-2.84 3.42-5.5 5.53-7.98 2.12-2.48 4.51-4.77 7.18-6.87 2.68-2.1 5.59-3.96 8.71-5.58 3.11-1.62 6.47-3 10.05-4.15 3.6-1.16 7.36-2.03 11.27-2.61 3.87-.57 7.92-.86 12.14-.87l.06-.01c1.88.01 3.77.09 5.64.22 1.78.13 3.46.31 5.03.56v-.01c1.52.24 2.91.5 4.16.78 1.34.31 2.47.62 3.39.94l2.64.93-.68 2.17-5.58 17.66-1.11 3.51-4.38-1.31c-.52-.15-1.11-.31-1.76-.45v.01c-.69-.15-1.47-.31-2.35-.45v-.01c-.78-.13-1.65-.23-2.6-.31-1.03-.07-2.08-.12-3.16-.14v.01c-2.01.01-3.9.24-5.65.67-1.72.42-3.31 1.05-4.78 1.87v.01c-1.51.87-2.88 1.92-4.11 3.14-1.27 1.26-2.37 2.71-3.32 4.35l-.03.03c-.99 1.68-1.8 3.5-2.4 5.46-.61 2-1.03 4.15-1.23 6.46-.22 2.4-.21 4.6.04 6.59.23 1.96.7 3.77 1.39 5.44.66 1.59 1.5 2.98 2.5 4.16.98 1.15 2.13 2.12 3.46 2.91l.03.02c1.27.77 2.68 1.35 4.24 1.73 1.6.4 3.42.6 5.42.61.99 0 1.92-.03 2.81-.08.91-.06 1.78-.15 2.6-.26.82-.12 1.6-.27 2.33-.44zM772.26 132.24c-1.93.36-3.99.54-6.18.56l-.07.01c-1.94-.02-3.82-.22-5.6-.61-1.73-.37-3.37-.93-4.91-1.68-1.57-.74-2.95-1.64-4.17-2.7-1.19-1.03-2.21-2.22-3.06-3.54v-.02c-.85-1.36-1.45-2.81-1.79-4.35-.33-1.5-.42-3.12-.29-4.87v-.06c.17-1.65.58-3.23 1.21-4.74.64-1.52 1.51-2.94 2.61-4.28l.01-.02c1.09-1.31 2.34-2.5 3.74-3.55v-.01c1.4-1.04 2.97-1.96 4.71-2.74 1.77-.8 3.57-1.4 5.42-1.8 1.84-.4 3.77-.61 5.78-.63h.04c2.01 0 3.91.19 5.68.55 1.81.37 3.51.93 5.12 1.66 1.61.75 3.02 1.66 4.23 2.71 1.18 1.03 2.19 2.22 3.03 3.56l.02.01c.82 1.33 1.4 2.79 1.74 4.37.32 1.5.41 3.15.27 4.91l.01.05c-.18 1.72-.55 3.35-1.14 4.88-.59 1.55-1.39 2.99-2.41 4.31h-.01c-1.01 1.33-2.23 2.53-3.64 3.6-1.42 1.08-3 1.99-4.73 2.73l-.01-.02c-1.77.77-3.64 1.33-5.61 1.71zM833.09 131.43h-34.58l.27-2.88 5.31-58.64c.23-2.57.4-4.72.53-6.59.11-1.61.23-3.83.37-6.34.1-2.36.18-4.34.24-6.1l.21-6.06.09-3h34.19l.2 2.52.28 3.53c.74-.49 1.5-.96 2.27-1.4v-.01c1.6-.93 3.31-1.77 5.12-2.53 1.76-.73 3.61-1.37 5.54-1.93 1.94-.56 3.96-.98 6.06-1.27 2.08-.29 4.23-.43 6.43-.45h.06c3.53.01 6.76.3 9.67.87 2.99.58 5.65 1.46 8 2.63h.02c2.29 1.16 4.26 2.57 5.91 4.24.49.5.96 1.02 1.39 1.56.73-.56 1.5-1.11 2.3-1.65l.03-.02c1.19-.79 2.41-1.52 3.67-2.21 1.29-.71 2.56-1.34 3.79-1.89l.08-.04c1.33-.57 2.76-1.08 4.28-1.53 1.49-.45 2.99-.81 4.51-1.1 1.46-.28 3-.49 4.63-.64h.01c1.61-.15 3.21-.22 4.79-.22h.03c3.81.01 7.28.39 10.4 1.11 3.19.75 6.01 1.87 8.44 3.36 2.4 1.46 4.43 3.25 6.11 5.35 1.64 2.06 2.92 4.4 3.83 7 .89 2.52 1.46 5.32 1.74 8.4.27 3.03.24 6.28-.07 9.73l-4.83 53.33-.26 2.87h-38.48l.27-2.88 4.49-49.56-.01-.02c.16-1.53.25-2.98.26-4.36.01-1.42-.04-2.71-.16-3.84-.12-1.09-.35-2.06-.69-2.91-.31-.76-.71-1.41-1.2-1.96-.33-.37-.76-.65-1.29-.83l.01-.01c-.59-.21-1.36-.32-2.29-.32v-.01c-.88 0-1.68.11-2.41.3-.74.2-1.44.52-2.11.93l-.03.03c-.71.43-1.35.98-1.93 1.64-.65.74-1.22 1.6-1.7 2.58l-.1.19c-.13.21-.25.47-.35.75-.12.32-.23.69-.32 1.08-.1.48-.19.99-.27 1.53-.08.49-.14 1.03-.2 1.64l-4.81 53.16-.26 2.87H852.1l.26-2.88 4.77-52.64.01-.05c.08-.72.13-1.46.15-2.2.02-.72.02-1.49-.01-2.29-.02-.7-.09-1.38-.22-2.04-.11-.61-.29-1.23-.52-1.82-.18-.47-.42-.89-.71-1.26-.28-.34-.6-.63-.97-.87-.29-.18-.65-.33-1.1-.43v-.01c-.57-.13-1.24-.2-1.99-.22v.01c-.73 0-1.46.09-2.18.28-.73.2-1.46.5-2.17.89h.01c-.75.43-1.44.98-2.06 1.65h.01c-.7.76-1.32 1.66-1.86 2.7l-.01.03c-.19.37-.35.72-.48 1.04-.16.41-.3.84-.44 1.3-.12.47-.24.98-.34 1.53-.09.52-.17 1.05-.22 1.59l-4.78 52.82-.26 2.87h-3.9zM1013.58 59.85h-.01l.01.01v-.01zm-22.05 12.87l.01.01v-.01h-.01zm21.51 27.57c.07-.42.13-.89.17-1.41l1.99-21.94.11-1.2c.02-.33.05-.69.07-1.1-.03 0 .03-.36-.03-1.13-.02-.28-.06-.58-.13-.93l-.03-.23c-.06-.73-.2-1.43-.4-2.12-.19-.65-.45-1.3-.77-1.94.09-.04-.96-1.34-1.05-1.43-.37-.4-.79-.75-1.24-1.03-.4-.24-.79-.44-1.25-.56-.42.03-1.09-.2-1.55-.2-.83.01-1.59.12-2.28.31-.68.2-1.33.5-1.94.9l-.03.02c-.75.48-1.44 1.07-2.09 1.75.01 0-1.73 2.29-1.89 2.54h.01c-.63 1.08-1.19 2.23-1.69 3.44l.01.01c-.5 1.23-.95 2.53-1.32 3.91-.4 1.55-.73 3.07-.98 4.54-.25 1.48-.46 3.07-.61 4.74-.23 2.58-.3 4.92-.21 7.01.1 2.11.36 4.02.77 5.71.39 1.61.91 3.03 1.54 4.26.58 1.11 1.24 2.02 1.99 2.72l.01.02c.66.61 1.37 1.07 2.12 1.36v.01c.66.25 1.39.38 2.18.38h.11c.34 0 .71-.02 1.1-.08.41-.06.87-.18 1.36-.33l.06-.01c.31-.09.65-.24 1.01-.44.46-.26.9-.56 1.31-.9 0-.01 1.17-1.27 1.26-1.4.66-.89 1.34-1.99 1.76-3.02.13-.3.23-.62.32-.95.08-.35.16-.78.23-1.28zm5.15-56.32l3.08-34.08.26-2.88h38.48l-.26 2.89-8.5 93.79c-.15 1.62-.27 2.99-.34 4.01-.08 1.15-.17 2.5-.25 4.13l.01.04c-.2 3.2-.34 5.84-.46 8.47l-.01.04-.14 4.08-.13 3.97-.09 3h-33.95l-.21-2.51-.25-2.98c-.34.24-.69.47-1.04.7-1.41.91-2.95 1.74-4.62 2.5-1.64.74-3.34 1.38-5.1 1.92l-.01-.01c-1.82.57-3.67 1-5.55 1.29-1.87.29-3.82.44-5.84.46l-.07.01c-3.38-.03-6.55-.38-9.5-1.03-2.98-.67-5.7-1.64-8.15-2.93l-.01-.01c-2.37-1.27-4.52-2.77-6.44-4.52-1.87-1.72-3.51-3.66-4.91-5.83h-.02c-1.36-2.11-2.52-4.39-3.46-6.84-.91-2.38-1.62-4.95-2.12-7.71-.5-2.69-.8-5.47-.91-8.36-.11-2.89-.03-5.85.25-8.87v-.01c.35-3.73.95-7.26 1.77-10.57.83-3.32 1.9-6.42 3.2-9.28 1.31-2.87 2.79-5.5 4.44-7.9 1.67-2.43 3.54-4.64 5.61-6.62 2.05-1.97 4.22-3.7 6.49-5.18 2.3-1.5 4.73-2.76 7.29-3.78v-.01c2.6-1.03 5.23-1.81 7.89-2.32 2.67-.51 5.38-.76 8.14-.76l.05-.01c1.87.02 3.64.14 5.32.36 1.7.22 3.29.56 4.76 1l.05.02c1.41.45 2.73.98 3.94 1.59.45.23.89.47 1.31.73z" class="fil2"/>
        <path d="M666.71 0L662.25 23.4 625.56 23.4z" class="fil0"/>
    </g>
</svg>
