<svg xmlns="http://www.w3.org/2000/svg" width="175" height="175" fill="none" viewBox="0 0 175 175">
    <g clip-path="url(#clip0)">
        <path fill="#F7F7F7" d="M173.22 63.78c-6.115-18.817-26.399-29.151-45.214-23.038-2.486.807-5.002 1.924-7.489 3.308.548-2.792.833-5.53.833-8.144 0-19.977-13.805-35.882-33.49-35.882-19.715 0-34.21 15.94-34.21 35.882 0 2.613.285 5.352.833 8.144-2.487-1.383-5.003-2.5-7.489-3.308-18.814-6.114-39.1 4.22-45.214 23.038-6.2 19.085 4.35 40.339 23.039 46.412 2.485.807 5.177 1.382 8.002 1.725-2.084 1.937-3.924 3.985-5.46 6.099-11.63 16.007-8.069 38.492 7.938 50.121 15.999 11.624 36.779 8.121 48.446-7.938 1.536-2.115 2.915-4.498 4.114-7.079 1.199 2.582 2.578 4.964 4.115 7.079 11.682 16.08 31.762 19.537 47.727 7.938 16.006-11.63 19.567-34.114 7.938-50.121-1.536-2.114-3.376-4.162-5.461-6.1 2.825-.342 5.519-.917 8.004-1.724 18.688-6.073 29.239-27.327 23.038-46.412zM87.86 10.276c13.464 0 23.237 10.779 23.237 25.63 0 6.684-2.615 14.925-6.997 22.045-.53.861-.775 1.822-.759 2.768l-5.337 9.238c-1.597-.69-3.343-1.226-5.087-1.581v-21.02c0-2.83-2.227-5.126-5.057-5.126-2.831 0-5.126 2.295-5.126 5.126v21.02c-1.785.364-3.5.918-5.13 1.632l-5.959-9.76c-.06-.791-.303-1.579-.746-2.297-4.38-7.12-6.997-15.361-6.997-22.045 0-14.612 10.3-25.63 23.958-25.63zm-59.874 90.166C14.814 96.162 7.124 80.51 11.531 66.948c4.367-13.441 18.854-20.823 32.296-16.456 5.518 1.793 11.542 5.826 16.58 11.025l8.804 14.418c-1.4 1.486-2.623 3.137-3.64 4.923l-20.004-6.5c-2.694-.875-5.584.6-6.459 3.291-.875 2.693.599 5.585 3.29 6.46l19.998 6.497c-.232 2.058-.216 3.904.012 5.867l-12.803 4.467c-7.674 1.611-15.654 1.44-21.619-.498zm54.747 31.941c-.663 8.283-3.378 16.418-7.281 21.79-8.342 11.481-22.72 13.958-34.127 5.67-11.433-8.307-13.976-24.367-5.67-35.801 6.787-9.342 18.576-13.587 19.47-14.17l10.498-3.662c.945 1.646 2.063 3.181 3.337 4.572L56.596 127.8c-1.665 2.291-1.157 5.496 1.133 7.16 2.29 1.664 5.495 1.157 7.16-1.133l12.361-17.015c1.734.792 3.569 1.402 5.483 1.792v13.779zm5.127-23.515c-8.48 0-15.379-6.898-15.379-15.378S79.38 78.112 87.86 78.112c8.479 0 15.378 6.898 15.378 15.378s-6.9 15.378-15.378 15.378zm45.815 50.975c-11.781 8.559-25.338 5.436-33.408-5.67-3.903-5.372-6.687-13.507-7.35-21.789v-13.779c1.914-.391 3.816-1 5.55-1.792l12.362 17.014c1.664 2.29 4.87 2.797 7.16 1.134 2.29-1.665 2.798-4.87 1.133-7.16l-12.364-17.019c1.263-1.379 2.373-2.899 3.314-4.53l9.554 3.442c1.178.874 12.832 4.87 19.718 14.348 8.308 11.434 5.764 27.494-5.669 35.801zm-7.89-58.827l-12.481-4.497c.239-2.017.248-3.875.019-5.913l19.997-6.498c2.692-.875 4.165-3.766 3.29-6.459-.875-2.692-3.766-4.166-6.459-3.29l-20.004 6.499c-1.034-1.817-2.283-3.495-3.713-5l8.466-14.652c4.975-5.048 10.866-8.958 16.273-10.714 13.44-4.367 27.928 3.015 32.296 16.455 4.407 13.563-3.283 29.214-16.456 33.494h.001c-5.865 1.906-13.676 2.099-21.229.575z"/>
    </g>
    <defs>
        <clipPath id="clip0">
            <path fill="#fff" d="M0 0H175V175H0z"/>
        </clipPath>
    </defs>
</svg>
