<svg xmlns="http://www.w3.org/2000/svg" enable-background="new 0 0 60.021 60.021" viewBox="0 0 60.021 60.021">
    <path d="M58.539 31.921c-1.984-7.332-5.439-14.481-6.443-16.482-.045-.107-.147-.508-.223-.801-.412-1.61-.683-2.534-1.463-2.818l-7.675-2.791c-.967-.354-2.058-.222-2.898.339-.883.564-1.876 1.117-2.194 1.226H22.826c-.364-.106-1.561-.719-2.439-1.215-.857-.57-1.947-.703-2.914-.35L9.797 11.82c-.775.282-1.042 1.191-1.447 2.774-.077.304-.184.718-.222.809-.446.843-4.425 8.463-6.65 16.583-2.644 9.647-1.737 15.961 2.694 18.765 1.035.656 2.421.545 3.371-.27l9.127-7.827c1.109-.951 2.525-1.475 3.987-1.475h18.892c1.461 0 2.877.523 3.987 1.475l9.127 7.827c.544.468 1.221.707 1.89.707.527 0 1.052-.149 1.503-.452 4.255-2.856 5.091-9.186 2.483-18.815zM29.48 12.594c.207.033.487.034.566-.001h1.749v.03c0 .59-.259 1.147-.711 1.529-.458.386-1.041.545-1.649.438-.774-.131-1.43-.763-1.594-1.534-.033-.156-.048-.311-.045-.464l1.684.002zm25.462 36.481c-.274.186-.685.137-.975-.112l-9.128-7.827c-1.472-1.262-3.351-1.957-5.289-1.957H20.657c-1.939 0-3.817.695-5.289 1.957l-9.127 7.827c-.287.246-.697.288-.999.098-4.486-2.839-3.474-10.565-1.835-16.547C5.575 24.602 9.46 17.162 9.895 16.34c.134-.252.227-.603.393-1.25.099-.389.291-1.141.438-1.48l7.431-2.702c.373-.138.791-.085 1.181.173 2.666 1.513 3.21 1.513 3.415 1.513h3.045c-.002.292.025.585.088.878.334 1.58 1.627 2.822 3.214 3.092.23.04.46.059.689.059.943 0 1.858-.328 2.584-.94.903-.763 1.421-1.877 1.421-3.058l-.003-.03h3.935c.232 0 .777 0 3.204-1.551.33-.221.748-.269 1.12-.135l7.433 2.703c.151.346.35 1.122.452 1.522.156.614.244.946.365 1.187 1.379 2.746 13.214 27 4.642 32.754z"/>
    <path d="M37.795 26.179c-2.757 0-5 2.243-5 5s2.243 5 5 5 5-2.243 5-5-2.244-5-5-5zm0 8c-1.654 0-3-1.346-3-3s1.346-3 3-3 3 1.346 3 3-1.346 3-3 3zM19.795 21.179c0-2.757-2.243-5-5-5s-5 2.243-5 5 2.243 5 5 5 5-2.243 5-5zm-5 3c-1.654 0-3-1.346-3-3s1.346-3 3-3 3 1.346 3 3-1.346 3-3 3z"/>
    <circle cx="44.795" cy="17.179" r="2"/>
    <circle cx="40.795" cy="21.179" r="2"/>
    <circle cx="48.795" cy="21.179" r="2"/>
    <circle cx="44.795" cy="25.179" r="2"/>
    <path d="M28.295 27.832h-2.286v-2.285c0-.945-.769-1.715-1.714-1.715h-2.571c-.945 0-1.714.77-1.714 1.715v2.285h-2.286c-.945 0-1.714.77-1.714 1.715v2.57c0 .945.769 1.715 1.714 1.715h2.286v2.285c0 .945.769 1.715 1.714 1.715h2.571c.945 0 1.714-.77 1.714-1.715v-2.285h2.286c.945 0 1.714-.77 1.714-1.715v-2.57c0-.945-.769-1.715-1.714-1.715zm-.286 4h-4v4h-2v-4h-4v-2h4v-4h2v4h4v2z"/>
</svg>
