<svg xmlns="http://www.w3.org/2000/svg" enable-background="new 0 0 512 512" viewBox="0 0 512 512">
    <path d="M471.059 206.77c-5.551-3.577-11.446-6.495-17.578-8.741C444.032 97.38 359.078 18.348 256 18.348c-103.077 0-188.031 79.031-197.481 179.68-6.129 2.244-12.022 5.162-17.568 8.735C15.309 223.273 0 251.321 0 281.792v28.821c0 49.181 40.012 89.194 89.194 89.194h20.112c15.626 0 28.339-12.713 28.339-28.34v-150.53c0-15.626-12.713-28.34-28.339-28.34H89.194c-.503 0-1.004.019-1.507.026C99.423 110.241 170.423 46.687 256 46.687s156.577 63.553 168.313 145.938c-.503-.008-1.004-.026-1.507-.026h-20.112c-15.626 0-28.339 12.713-28.339 28.339v150.53c0 15.626 12.713 28.339 28.339 28.339h19.032c-11.949 37.926-47.446 65.505-89.267 65.505-7.825 0-14.17 6.344-14.17 14.17s6.344 14.17 14.17 14.17c59.326 0 108.88-42.6 119.703-98.814C486.966 382.672 512 349.514 512 310.613v-28.821c0-30.471-15.307-58.518-40.941-75.022zM89.194 220.938h20.112l.018 150.529-.018.001H89.194c-33.555 0-60.854-27.299-60.854-60.854v-28.821c0-20.792 10.45-39.931 27.958-51.204 9.796-6.314 21.172-9.651 32.896-9.651zm394.467 89.675c0 33.555-27.298 60.854-60.854 60.854h-20.112v-150.53h20.112c11.724 0 23.101 3.338 32.907 9.657 17.5 11.267 27.947 30.406 27.947 51.197v28.822z"/>
</svg>
