<svg xmlns="http://www.w3.org/2000/svg" width="24" height="22" viewBox="0 0 24 22">
    <path d="M22.249 2.1C21.065.744 19.423 0 17.625 0c-2.529 0-4.13 1.522-5.028 2.799-.232.331-.43.664-.597.976-.166-.312-.364-.645-.597-.976C10.505 1.522 8.903 0 6.375 0c-1.798 0-3.44.746-4.624 2.1C.621 3.39 0 5.12 0 6.968c0 2.012.78 3.884 2.454 5.89 1.496 1.794 3.648 3.642 6.14 5.783.93.797 1.89 1.622 2.912 2.524l.03.027c.133.117.299.175.464.175.165 0 .33-.058.463-.175l.03-.027c1.023-.902 1.984-1.727 2.913-2.524 2.492-2.14 4.644-3.989 6.14-5.782C23.22 10.853 24 8.98 24 6.969c0-1.85-.622-3.579-1.751-4.87zm-7.756 15.463c-.8.688-1.624 1.395-2.493 2.157-.869-.762-1.693-1.47-2.494-2.157-4.877-4.189-8.1-6.956-8.1-10.594 0-1.504.497-2.9 1.4-3.933.913-1.044 2.18-1.619 3.569-1.619 1.928 0 3.174 1.197 3.88 2.201.633.901.964 1.809 1.076 2.157.095.292.365.49.669.49.304 0 .574-.198.668-.49.113-.348.444-1.256 1.077-2.157.706-1.004 1.952-2.2 3.88-2.2 1.389 0 2.656.574 3.569 1.618.903 1.032 1.4 2.429 1.4 3.933 0 3.638-3.223 6.405-8.1 10.594z"/>
</svg>
