<svg xmlns="http://www.w3.org/2000/svg" enable-background="new 0 0 511.751 511.751" viewBox="0 0 511.751 511.751">
    <path d="M426.529 281.351c-4.713 0-8.533 3.82-8.533 8.533v196.267c0 4.713-3.821 8.533-8.533 8.533H324.13v-128c0-14.138-11.462-25.6-25.6-25.6h-85.333c-14.138 0-25.6 11.461-25.6 25.6v128h-85.333c-4.713 0-8.533-3.82-8.533-8.533V289.884c0-4.713-3.82-8.533-8.533-8.533s-8.533 3.82-8.533 8.533v196.267c0 14.138 11.461 25.6 25.6 25.6h307.2c14.138 0 25.6-11.461 25.6-25.6V289.884c-.002-4.713-3.823-8.533-8.536-8.533zM307.063 494.684h-102.4v-128c0-4.713 3.82-8.533 8.533-8.533h85.333c4.713 0 8.533 3.82 8.533 8.533v128zM480.315 219.817L274.047 7.482c-10.071-9.976-26.298-9.976-36.369 0L31.436 219.817c-7.395 7.623-9.491 18.94-5.316 28.706 3.875 9.556 13.172 15.796 23.484 15.761h2.918c6.103-.059 11.98-2.316 16.555-6.357.609-.397 1.18-.848 1.707-1.348L255.863 65.927l185.216 190.754c.494.469 1.028.894 1.596 1.271 4.572 4.025 10.438 6.272 16.529 6.332h2.918c10.321.045 19.631-6.196 23.509-15.761 4.175-9.766 2.079-21.083-5.316-28.706zm-10.402 22.067c-1.268 3.198-4.35 5.308-7.791 5.333h-2.918c-2.258.001-4.417-.925-5.973-2.56-.06-.068-.154-.085-.213-.145-.06-.06-.119-.154-.196-.213L261.981 47.734l-.102-.068-.043-.128c-.411-.328-.854-.614-1.323-.853-.442-.353-.92-.659-1.425-.913-.524-.169-1.065-.284-1.613-.341-1.025-.375-2.15-.375-3.174 0-.548.058-1.088.172-1.613.341-.505.255-.983.561-1.425.913-.469.239-.912.525-1.323.853l-.068.102-.102.068L58.888 244.299c-.077.06-.111.145-.188.205s-.162.085-.222.154c-1.557 1.635-3.716 2.561-5.973 2.56h-2.901c-3.441-.025-6.522-2.135-7.791-5.333-1.515-3.451-.79-7.476 1.835-10.18h-.018L249.889 19.378c1.573-1.585 3.714-2.477 5.948-2.477 2.233 0 4.374.892 5.948 2.477l206.293 212.326c2.625 2.705 3.35 6.729 1.835 10.18z"/>
    <path d="M289.996 298.418c14.138 0 25.6-11.462 25.6-25.6v-59.733c0-14.139-11.462-25.6-25.6-25.6h-68.267c-14.138 0-25.6 11.461-25.6 25.6v59.733c0 14.138 11.461 25.6 25.6 25.6h68.267zm-76.8-25.6v-59.733c0-4.713 3.82-8.533 8.533-8.533h68.267c4.713 0 8.533 3.821 8.533 8.533v59.733c0 4.713-3.821 8.533-8.533 8.533h-68.267c-4.713 0-8.533-3.821-8.533-8.533zM230.263 417.884h-8.533c-4.713 0-8.533 3.82-8.533 8.533s3.82 8.533 8.533 8.533h8.533c4.713 0 8.533-3.82 8.533-8.533s-3.821-8.533-8.533-8.533z"/>
</svg>
