<svg width="28" height="28" fill="none" xmlns="http://www.w3.org/2000/svg">
    <g clip-path="url(#a)">
        <path d="M27.405 10.05a2.673 2.673 0 0 0-2.107-1.026h-4.843l1.172-4.088c.506-1.765-.8-3.514-2.599-3.514-.79 0-1.538.349-2.053.957l-5.468 6.464a.498.498 0 0 1-.38.18H8.612v-.546c0-.604-.49-1.094-1.094-1.094H1.094C.49 7.383 0 7.873 0 8.477v17.007c0 .604.49 1.094 1.094 1.094h6.423c.604 0 1.094-.49 1.094-1.094v-.547h14.204a2.701 2.701 0 0 0 2.625-2.097l2.483-10.432a2.754 2.754 0 0 0-.518-2.358zM6.423 24.39H2.187V9.57h4.236v14.82zm19.372-12.488-2.483 10.432a.522.522 0 0 1-.497.416H8.61V11.211h2.517c.788 0 1.535-.348 2.049-.955l5.468-6.464c.37-.437 1.042-.03.879.541L18.255 8.76c-.352 1.23.561 2.451 1.823 2.451h5.22c.206 0 .333.122.39.195.11.139.15.32.107.496z" fill="#103178"/>
    </g>
    <defs>
        <clipPath id="a">
            <path fill="#fff" d="M0 0h28v28H0z"/>
        </clipPath>
    </defs>
</svg>
