<svg xmlns="http://www.w3.org/2000/svg" width="196" height="91" fill="none" viewBox="0 0 196 91">
    <path fill="#9E0201" d="M152.624 66.534c.594-.694 1.168-1.402 1.787-2.076 2.343-2.548 5.018-4.658 8.176-6.126.439-.204.902-.363 1.372-.484 1.186-.31 1.943.208 2.102 1.44.055.422.076.867-.011 1.278-.083.397-.325.763-.328 1.257.864-1.06 1.749-2.103 2.589-3.18 3.843-4.935 7.682-9.87 11.498-14.826.442-.573.915-.694 1.569-.49-1.797 2.62-3.574 5.228-5.368 7.829-3.297 4.783-6.604 9.559-9.908 14.338-1.41 2.038-2.841 4.065-4.199 6.134-.325.497-.525 1.14-.577 1.733-.069.77.546 1.181 1.248.819.75-.384 1.527-.84 2.087-1.454 1.828-2 3.56-4.086 5.329-6.137.187-.218.373-.432.709-.815 0 .36.045.497-.007.56-2.001 2.562-3.923 5.197-6.463 7.286-.833.684-1.714 1.292-2.872 1.002-1.458-.366-2.233-1.686-1.928-3.226.041-.21.083-.421-.031-.739-.222.19-.443.383-.668.573-1.112.933-2.173 1.938-3.352 2.777-1.317.936-2.333.88-3.383.066-.92-.715-1.479-2.404-1.051-3.55.505-1.361 1.13-2.68 1.7-4.013l-.02.024zm13.07-7.01c-.19-.36-.331-1.054-.715-1.23-.339-.155-.944.255-1.431.428-.076.028-.135.104-.2.159-2.679 2.248-5.043 4.804-7.147 7.587-1.386 1.834-2.838 3.66-3.349 5.975-.107.49-.035 1.16.235 1.56.39.584 1.092.304 1.552 0 1.023-.67 2.032-1.38 2.951-2.182 2.454-2.145 4.23-4.862 6.124-7.47.985-1.36 1.6-2.939 1.98-4.828zM84.814 75.444c.172 1.274-.823 2.483-2.762 3.222 1.006-1.17 1.873-2.183 2.762-3.222z"/>
    <path fill="#1E1E1E" d="M90.018 88.667c0 .193.125.321.37.383.25.066.657.097 1.224.097h.522c.228 0 .428-.024.597-.076.17-.052.318-.135.446-.255.128-.118.246-.273.35-.46.103-.186.207-.414.31-.68.028-.073.097-.11.208-.11.045 0 .1.013.166.04l.193.084c-.072.293-.138.61-.2.953-.06.342-.114.68-.16 1.008-.01.11-.037.18-.09.207-.051.028-.103.042-.158.042-.073 0-.176-.004-.311-.014-.132-.01-.277-.017-.432-.02-.156-.004-.315-.011-.474-.021-.159-.01-.3-.014-.418-.014h-3.12c-.267 0-.57.007-.916.02-.343.014-.654.032-.93.049-.017-.038-.028-.083-.028-.145v-.131c0-.138.045-.211.138-.221.35-.066.598-.132.75-.208.152-.072.228-.2.228-.383v-6.883c0-.09-.01-.165-.027-.228-.017-.058-.055-.11-.11-.158-.056-.045-.139-.087-.257-.118-.114-.031-.269-.062-.46-.09-.092-.027-.137-.103-.137-.234v-.125c0-.055.01-.103.027-.152.294.017.605.035.937.049.332.013.622.02.881.02.128 0 .277-.003.44-.007.165-.003.334-.01.514-.013.18-.004.356-.01.536-.021.18-.01.342-.017.487-.028.01.045.017.097.02.152.004.055.008.097.008.124 0 .128-.045.208-.139.235-.394.056-.656.125-.791.214-.131.087-.2.221-.2.404v6.714h.006zM97.784 89.834c-.356 0-.663.007-.923.021-.255.014-.504.031-.743.048-.017-.09-.027-.18-.027-.262 0-.066.017-.107.048-.131.031-.024.066-.038.104-.049.293-.055.494-.114.605-.18.11-.065.165-.165.165-.303v-3.626c0-.276-.045-.487-.138-.632-.093-.145-.308-.235-.646-.263-.121-.017-.18-.09-.18-.22v-.104c0-.042.01-.08.028-.118.055 0 .135-.003.242-.007.103-.003.217-.01.335-.013.118-.004.238-.01.356-.021.117-.01.228-.017.328-.028.228-.027.45-.065.66-.11.211-.045.353-.07.425-.07.146 0 .222.07.222.208 0 .1-.014.235-.042.397-.027.166-.041.394-.041.687v3.916c0 .139.058.239.18.304.117.066.314.125.59.18.1.017.152.08.152.18v.138c0 .044-.01.086-.027.124-.228-.017-.477-.035-.743-.048-.26-.01-.57-.018-.93-.018zm-1.002-8.063c0-.294.093-.532.283-.722.187-.187.425-.283.709-.283.293 0 .532.093.715.283.183.186.277.428.277.722 0 .293-.094.535-.277.721-.183.187-.422.283-.715.283-.284 0-.522-.093-.709-.283-.19-.19-.283-.428-.283-.721zM104.399 87.828c.221-.539.401-.988.542-1.347.142-.356.253-.65.329-.88.079-.229.131-.412.166-.543.031-.131.048-.245.048-.335 0-.183-.145-.31-.439-.383-.066-.017-.11-.038-.138-.062-.028-.025-.042-.073-.042-.146 0-.027.004-.062.014-.103.011-.041.017-.083.028-.131.366.027.764.041 1.196.041.383 0 .736-.014 1.057-.041.017.045.031.096.035.152.003.055.007.093.007.11 0 .1-.059.166-.18.194-.128.027-.232.051-.311.076-.08.024-.145.058-.207.11-.059.052-.115.114-.159.193-.045.08-.097.187-.153.322l-2.021 4.917c-.045.018-.094.028-.145.028h-.146c-.065 0-.124-.038-.186-.11-.059-.073-.138-.228-.242-.467l-1.884-4.368c-.065-.139-.121-.249-.166-.329-.044-.082-.096-.144-.152-.193-.055-.045-.121-.08-.193-.103-.073-.025-.169-.045-.29-.063-.121-.01-.18-.083-.18-.22 0-.066.014-.146.041-.25.228.018.453.032.674.035.221.004.508.007.868.007.328 0 .618-.003.867-.007.249-.003.494-.017.743-.034.028.1.042.18.042.234 0 .121-.059.187-.18.208-.221.027-.356.065-.404.117-.052.052-.076.114-.076.187 0 .044.017.138.055.283.038.141.131.39.29.75l.892 2.15zM113.225 83.79c.267 0 .467.07.598.208.132.138.201.31.201.521 0 .066-.011.121-.035.166-.024.045-.072.097-.152.152-.079.055-.186.118-.321.187-.138.069-.315.152-.536.255-.145-.145-.283-.245-.404-.297-.125-.052-.246-.076-.363-.076-.111 0-.218.017-.322.055-.107.038-.2.108-.283.215-.083.107-.149.245-.2.418-.052.172-.076.397-.076.673v2.555c0 .183.072.318.221.404.145.087.435.166.867.242.1.017.152.08.152.18 0 .128-.01.214-.027.262-.118-.01-.266-.017-.439-.02-.173-.004-.356-.01-.55-.021-.193-.01-.383-.017-.57-.02-.187-.004-.356-.008-.501-.008-.349 0-.646.007-.895.02-.249.015-.481.032-.702.05-.017-.046-.027-.132-.027-.263 0-.1.051-.16.152-.18.293-.055.494-.114.604-.18.111-.065.166-.165.166-.303V85.29c0-.211-.038-.38-.117-.508-.08-.128-.297-.214-.653-.263-.128-.017-.194-.086-.194-.207v-.11c0-.045.01-.083.028-.11.055 0 .131-.004.235-.008.1-.003.211-.01.328-.014.118-.003.238-.01.356-.02s.225-.024.314-.042c.201-.027.412-.062.626-.103.214-.042.359-.062.432-.062.128 0 .194.069.194.207v.742c.321-.349.629-.6.922-.763.287-.159.612-.238.971-.238zM121.364 89.41c.139 0 .208.113.208.341-.118.083-.27.145-.446.187-.18.041-.36.062-.543.062-.411 0-.729-.1-.947-.304-.217-.204-.349-.435-.383-.701-.183.366-.429.625-.736.777-.308.152-.667.228-1.079.228-.193 0-.404-.017-.639-.048s-.449-.1-.646-.2-.363-.242-.501-.425c-.139-.183-.208-.425-.208-.73 0-.338.087-.628.263-.866.173-.238.39-.439.653-.597.263-.16.546-.29.861-.384.311-.097.604-.176.881-.242.117-.027.242-.058.37-.09.128-.03.228-.058.3-.075.101-.028.166-.066.194-.118.028-.051.041-.18.041-.39 0-.466-.069-.825-.207-1.077-.138-.252-.37-.377-.702-.377-.266 0-.456.083-.57.249-.114.166-.221.425-.321.784-.028.1-.107.176-.242.228-.131.052-.301.103-.501.159-.111.027-.221.051-.336.069-.114.017-.217.027-.307.027-.055 0-.093-.02-.111-.062-.017-.041-.027-.12-.027-.242 0-.228.083-.452.255-.673.17-.221.384-.415.64-.584.256-.169.539-.304.846-.404.308-.1.602-.152.889-.152.338 0 .646.031.922.09.277.059.512.166.709.314.197.152.349.353.46.605.11.252.165.573.165.967v2.41c0 .321.007.553.021.698.014.145.038.255.076.328.083.166.211.245.384.245.072 0 .135-.004.186-.014.035-.01.083-.014.128-.014zM119 86.84l-.304.055c-.211.038-.408.09-.591.16-.183.068-.342.158-.473.275-.131.114-.239.256-.315.425-.079.17-.117.373-.117.611 0 .356.059.608.173.75.114.141.283.214.501.214.349 0 .622-.128.826-.383.2-.256.304-.615.304-1.071V86.84H119zM127.647 83.79c.266 0 .467.07.598.208.132.138.201.31.201.521 0 .066-.011.121-.035.166-.024.045-.072.097-.152.152-.079.055-.187.118-.321.187-.139.069-.315.152-.536.255-.145-.145-.283-.245-.404-.297-.125-.052-.246-.076-.363-.076-.111 0-.218.017-.322.055-.107.038-.2.108-.283.215-.083.107-.149.245-.201.418-.051.172-.076.397-.076.673v2.555c0 .183.073.318.222.404.145.087.435.166.867.242.1.017.152.08.152.18 0 .128-.01.214-.027.262-.118-.01-.267-.017-.439-.02-.173-.004-.356-.01-.55-.021-.193-.01-.384-.017-.57-.02-.187-.004-.356-.008-.501-.008-.349 0-.647.007-.895.02-.249.015-.481.032-.702.05-.017-.046-.028-.132-.028-.263 0-.1.052-.16.152-.18.294-.055.495-.114.605-.18.111-.065.166-.165.166-.303V85.29c0-.211-.038-.38-.117-.508-.08-.128-.298-.214-.654-.263-.127-.017-.193-.086-.193-.207v-.11c0-.045.01-.083.028-.11.055 0 .131-.004.235-.008.1-.003.21-.01.328-.014.117-.003.238-.01.356-.02.117-.01.225-.024.314-.042.201-.027.412-.062.626-.103.214-.042.359-.062.432-.062.128 0 .193.069.193.207v.742c.322-.349.629-.6.923-.763.287-.159.615-.238.971-.238zM134.978 88.57c.082-.065.155-.096.217-.096.045 0 .097.02.159.062.059.041.121.12.187.241-.356.422-.767.733-1.23.93-.464.196-1.01.296-1.642.296-.356 0-.709-.058-1.051-.172-.342-.114-.653-.294-.929-.535-.277-.242-.498-.546-.667-.916-.17-.366-.256-.804-.256-1.319 0-.504.097-.96.297-1.368.197-.407.446-.752.75-1.035.304-.284.632-.501.988-.653.356-.152.702-.228 1.03-.228.889 0 1.562.255 2.015.77.453.514.681 1.212.681 2.103 0 .066-.031.097-.097.097l-3.933.166c0 .714.159 1.26.481 1.64.318.38.798.57 1.437.57.284 0 .56-.045.837-.138.273-.094.515-.232.726-.415zm-2.347-4.189c-.356 0-.639.152-.854.46-.214.307-.321.79-.321 1.45l2.132-.097c.138-.01.204-.069.204-.18 0-.172-.024-.355-.069-.548-.045-.194-.118-.37-.211-.529-.097-.159-.218-.293-.363-.397-.145-.107-.318-.159-.518-.159zM142.881 81.936c0-.083-.01-.152-.034-.214-.024-.058-.073-.11-.145-.159-.073-.045-.173-.083-.304-.117-.128-.031-.294-.066-.495-.104-.093-.027-.138-.11-.138-.248v-.132c0-.041.01-.083.028-.13.394.027.743.044 1.043.055.305.01.56.013.771.013h2.82c.422 0 .781-.014 1.078-.041.298-.028.498-.042.598-.042.101 0 .173.042.222.125.027.072.051.207.069.404.017.197.052.4.096.611.028.155.059.307.097.452.038.145.09.325.166.536-.038.017-.086.038-.145.055s-.118.028-.173.028c-.1 0-.169-.042-.207-.125-.111-.238-.218-.442-.322-.611-.107-.17-.224-.307-.356-.411-.131-.104-.29-.18-.466-.228-.18-.045-.398-.069-.653-.069h-1.815v3.474h1.898c.155 0 .269-.076.335-.228.069-.152.124-.376.173-.68.027-.118.114-.18.262-.18.028 0 .073.004.132.007.058.004.103.01.131.021-.017.21-.035.456-.048.736-.014.28-.021.514-.021.708 0 .165.003.359.014.583.01.225.027.48.055.763-.028.018-.069.031-.124.035-.056.003-.097.007-.125.007-.155 0-.249-.066-.276-.194-.038-.293-.094-.514-.166-.666-.073-.152-.187-.228-.342-.228h-1.898v3.077c0 .093.031.166.097.228.066.059.152.11.263.152.11.041.238.072.383.097l.467.075c.11.01.166.087.166.235 0 .028-.004.073-.007.139-.004.065-.011.114-.021.151-.128 0-.256-.003-.383-.006-.128-.004-.256-.01-.384-.021-.239-.017-.494-.031-.764-.035-.269-.003-.539-.007-.805-.007-.128 0-.27.004-.418.007-.152.004-.311.01-.474.021-.166.01-.328.017-.487.02-.159.004-.308.011-.446.022-.017-.038-.028-.083-.028-.146v-.13c0-.139.045-.212.139-.222.304-.072.539-.145.715-.214.173-.069.263-.193.263-.376v-6.873h-.011zM154.1 89.903c-.239-.017-.512-.034-.82-.048-.307-.014-.594-.02-.86-.02-.294 0-.584.006-.874.02-.291.014-.553.031-.792.048-.01-.038-.017-.076-.021-.117-.003-.042-.007-.09-.007-.145 0-.066.018-.107.049-.131.031-.025.066-.038.104-.049.293-.055.494-.114.604-.18.111-.065.166-.165.166-.303v-7.2c0-.277-.052-.484-.152-.626-.1-.141-.311-.228-.632-.255-.121-.028-.18-.1-.18-.221v-.11c0-.046.01-.084.028-.111.055 0 .134-.004.242-.007l.335-.014c.117-.004.238-.01.356-.02.117-.011.228-.018.328-.028.228-.028.449-.066.66-.11.211-.046.353-.07.425-.07.145 0 .221.07.221.207 0 .1-.013.232-.041.39-.028.16-.041.387-.041.68v7.488c0 .138.055.238.165.304.111.065.311.124.605.18.1.017.152.079.152.179.007.138-.003.224-.02.27zM156.094 86.895c0-.449.079-.863.242-1.243.159-.38.383-.711.667-.988.283-.28.622-.497 1.016-.652.394-.156.826-.235 1.292-.235.487 0 .926.08 1.32.235.394.155.733.373 1.016.652.284.28.502.608.654.988.152.38.228.794.228 1.243 0 .45-.08.864-.242 1.243-.159.38-.384.709-.674.981-.29.277-.629.49-1.023.646-.394.156-.826.235-1.293.235-.487 0-.926-.08-1.32-.235-.394-.155-.732-.37-1.009-.646-.28-.276-.494-.6-.646-.98-.152-.38-.228-.795-.228-1.244zm1.731-.276c0 .843.138 1.516.418 2.02.28.505.681.757 1.203.757.487 0 .833-.194 1.037-.584.207-.39.307-.936.307-1.64 0-.833-.141-1.506-.425-2.02-.283-.512-.684-.77-1.196-.77-.487 0-.832.2-1.036.597-.204.397-.308.946-.308 1.64zM169.002 83.79c.266 0 .466.07.598.208.131.138.2.31.2.521 0 .066-.01.121-.034.166-.025.045-.073.097-.152.152-.08.055-.187.118-.322.187-.138.069-.314.152-.536.255-.145-.145-.283-.245-.404-.297-.124-.052-.245-.076-.363-.076-.11 0-.218.017-.321.055-.107.038-.201.108-.284.215-.083.107-.148.245-.2.418-.052.172-.076.397-.076.673v2.555c0 .183.072.318.221.404.145.087.436.166.868.242.1.017.152.08.152.18 0 .128-.011.214-.028.262-.118-.01-.266-.017-.439-.02-.173-.004-.356-.01-.549-.021-.194-.01-.384-.017-.571-.02-.186-.004-.356-.008-.501-.008-.349 0-.646.007-.895.02-.249.015-.48.032-.701.05-.018-.046-.028-.132-.028-.263 0-.1.052-.16.152-.18.294-.055.494-.114.605-.18.11-.065.166-.165.166-.303V85.29c0-.211-.038-.38-.118-.508-.079-.128-.297-.214-.653-.263-.128-.017-.194-.086-.194-.207v-.11c0-.045.011-.083.028-.11.055 0 .131-.004.235-.008.1-.003.211-.01.328-.014.118-.003.239-.01.356-.02.118-.01.225-.024.315-.042.2-.027.411-.062.625-.103.215-.042.36-.062.432-.062.128 0 .194.069.194.207v.742c.321-.349.629-.6.923-.763.29-.159.615-.238.971-.238zM173.128 89.834c-.356 0-.663.007-.922.021-.256.014-.505.031-.744.048-.017-.09-.027-.18-.027-.262 0-.066.017-.107.048-.131.031-.024.066-.038.104-.049.294-.055.494-.114.605-.18.11-.065.166-.165.166-.303v-3.626c0-.276-.045-.487-.139-.632-.093-.145-.307-.235-.646-.263-.121-.017-.18-.09-.18-.22v-.104c0-.042.011-.08.028-.118.055 0 .135-.003.242-.007.104-.003.218-.01.335-.013.118-.004.239-.01.356-.021.118-.01.228-.017.328-.028.229-.027.45-.065.661-.11.21-.045.352-.07.425-.07.145 0 .221.07.221.208 0 .1-.014.235-.042.397-.027.166-.041.394-.041.687v3.916c0 .139.059.239.18.304.117.066.314.125.591.18.1.017.152.08.152.18v.138c0 .044-.011.086-.028.124-.228-.017-.477-.035-.743-.048-.263-.01-.574-.018-.93-.018zm-1.005-8.063c0-.294.093-.532.283-.722.187-.187.425-.283.708-.283.294 0 .533.093.716.283.183.186.276.428.276.722 0 .293-.093.535-.276.721-.183.187-.422.283-.716.283-.283 0-.521-.093-.708-.283-.187-.19-.283-.428-.283-.721z"/>
    <path fill="#9E0201" d="M162.788 59.361s3.515-2.9 2.581 1.506c-.933 4.406.481-.287.481-.287v-1.73l-.601-.743h-1.307l-1.151.653v.601h-.003z"/>
    <path fill="#9E0201" d="M165.459 58.26s1.286.908.235 3.892c-1.05 2.983-.131-.885-.131-.885l.086-2.047-.19-.96zM152.372 65.93c-.194.207-.391.41-.574.625-1.68 1.944-3.304 3.94-5.056 5.815-.702.75-1.663 1.278-2.568 1.806-.263.152-.868.08-1.075-.127-.252-.25-.404-.795-.318-1.14.156-.618.425-1.257.812-1.761 1.473-1.924 3.014-3.792 4.521-5.688 1.209-1.52 2.294-3.108 2.747-5.039.429-1.82-.618-2.89-2.364-2.258-1.106.404-2.208 1.001-3.103 1.761-1.649 1.399-3.145 2.977-4.704 4.48-.238.23-.487.448-.729.672.114-.462.356-.776.588-1.101.943-1.316 1.952-2.6 2.208-4.276.176-1.156-.487-1.985-1.631-1.795-.819.134-1.718.414-2.354.915-.674.528-1.334 1.077-1.987 1.637-1.099.943-2.174 1.913-3.263 2.87-.483.424-.926.894-1.385 1.346.041-.348.214-.57.349-.814.667-1.216 1.361-2.418 1.966-3.661.353-.725.218-1.471-.425-2.02-.643-.55-1.386-.37-2.018-.032-2.247 1.202-3.619 3.254-5.029 5.257.816-.85 1.5-1.83 2.354-2.635.75-.708 1.583-1.33 2.433-1.924.864-.542 2.087-1.029 1.489 1.053-.065.087-.148.173-.214.256-1.244 1.564-2.488 3.129-3.739 4.686-2.181 2.718-4.403 5.408-5.91 8.586-.176.369-.19.818-.28 1.229.404-.17.916-.235 1.192-.525 1.649-1.73 3.242-3.516 4.859-5.273 2.109-2.294 4.165-4.638 6.339-6.866l2.101-1.768 1.818-1.247.021-.01c.273-.152 3.165-1.696 1.707 1.226-1.967 2.47-4.006 4.883-5.861 7.428-1.424 1.952-2.62 4.072-3.882 6.137-.165.27-.127.663-.183 1.002 2.274-1.41 4.044-3.136 5.551-5.129 2.429-3.222 5.108-6.216 8.152-8.872 1.189-1.036 2.457-1.958 4.03-2.334.736-.176 1.12.11 1.089.846-.018.373-.097.818-.318 1.095-.788.97-1.638 1.895-2.489 2.818-1.524 1.654-3.138 3.239-4.575 4.966-.916 1.098-1.542 2.43-1.348 3.95.162 1.302.684 2.173 1.634 2.473.864.273 1.569-.003 2.254-.442 1.959-1.257 3.349-3.087 4.838-4.814.885-1.026 1.728-2.086 2.589-3.132-.094-.087-.177-.17-.259-.252zM94.515 65.988c-.184.035-.26.025-.287.06-.145.172-.273.362-.422.53-1.762 2.021-3.48 4.08-5.319 6.027-.646.684-1.548 1.157-2.405 1.596-.657.335-1.244-.09-1.175-.815.055-.574.214-1.188.505-1.682 1.292-2.203 2.54-4.445 4.005-6.53 2.654-3.772 5.467-7.426 8.173-11.162.443-.611.899-.805 1.625-.791 2.46.045 4.918.02 7.378.02h.788c.004-.11.004-.22.007-.33h-8.73l-.083-.25 3.138-4.088c-.044-.076-.089-.156-.138-.232-.338.163-.757.245-.999.498-.808.846-1.63 1.699-2.298 2.652-.788 1.122-1.735 1.52-3.103 1.398-2.416-.21-4.85-.2-7.265-.414-.708-.062-1.06.007-1.268.788h9.77c.055.079.107.158.162.238-.59.663-1.195 1.316-1.77 1.996-2.86 3.415-5.712 6.838-8.57 10.253-.117.142-.352.376-.415.342-.542-.283-.68.218-.964.442-.377.304-.73.687-1.161.86-.37.148-.978.214-1.224.01-.234-.193-.297-.863-.145-1.188.315-.68.833-1.264 1.248-1.902.29-.45.657-.888.798-1.385.246-.86.401-1.758.488-2.65.079-.804.266-1.691-.491-2.316-.754-.626-1.552-.263-2.26.079-1.103.535-2.198 1.109-3.208 1.796-2.9 1.968-5.57 4.196-7.478 7.19-.899 1.412-1.777 2.842-1.666 4.648.117 1.93 2.122 3.906 4.444 2.47 2.648-1.634 4.728-3.855 6.674-6.213.408-.494.684-.57 1.182-.208.656.48 1.32.422 1.963-.072.408-.314.833-.604 1.254-.905-.473.974-1.002 1.872-1.603 2.721-.633.895-.809 1.88-.664 2.919.207 1.509 1.341 2.448 2.786 2.24.567-.082 1.154-.362 1.62-.7 2.838-2.055 4.936-4.804 7.013-7.567.059-.058.048-.183.09-.373zm-13.655-.656c-.097.394.152.864.194 1.302.024.249.044.587-.094.746-1.856 2.13-3.69 4.29-6.065 5.888-.425.287-.871.556-1.337.763-1.265.553-1.736.221-1.732-1.174.02-1.782 1.013-3.174 1.942-4.551 2.357-3.488 5.126-6.624 8.34-9.36.28-.237.577-.469.898-.652.757-.432 1.251-.21 1.469.625.314 1.209-.35 2.697-1.427 3.367-1.137.705-1.877 1.758-2.188 3.046z"/>
    <path fill="#9E0201" d="M111.598 66.493c-1.742 2.003-3.425 4.057-5.247 5.984-.705.743-1.703 1.226-2.616 1.744-.221.128-.729.042-.919-.141-.18-.173-.176-.605-.149-.912.025-.27.163-.542.301-.787 1.02-1.838 2.001-3.702 3.093-5.498 1.783-2.942 3.643-5.836 5.633-9.01-.577.276-1.05.376-1.334.663-1.147 1.153-2.236 2.365-3.345 3.557-1.521 1.637-3.048 3.263-4.548 4.918-.515.57-.895 1.27-1.434 1.813-1.663 1.678-3.342 3.35-5.084 4.942-.46.42-1.189.908-1.856.338-.67-.577-.131-1.254.17-1.768 1.966-3.395 3.963-6.769 5.989-10.13.829-1.374 1.745-2.693 2.619-4.04-.052-.076-.103-.152-.155-.224-.37.19-.83.293-1.092.58-1.88 2.034-3.795 4.047-5.55 6.185-1.532 1.865-2.983 3.816-3.864 6.106-.495 1.284-.211 2.57.708 3.322.902.742 2.074.808 3.238-.055 1.14-.846 2.184-1.83 3.19-2.832.926-.919 1.749-1.94 2.741-3.053-.443 1.015-.837 1.827-1.158 2.666-.598 1.565.114 3.357 1.604 3.733.991.249 1.79-.09 2.557-.621 2.481-1.717 4.282-4.09 6.152-6.396.376-.466.722-.957 1.085-1.437-.08-.065-.159-.127-.239-.193-.162.18-.328.36-.49.546zM118.306 47.046c-1.037.017-2.309 1.12-2.219 2.01.059.594.415 1.074 1.099 1.098.878.028 2.112-1.24 2.094-2.168-.01-.594-.328-.96-.974-.94zM108.456 50.158c.94-.02 2.167-1.36 2.056-2.276-.058-.497-.307-.836-.884-.843-.965-.01-1.984.76-2.219 1.696-.169.694.377 1.44 1.047 1.423zM115.43 71.845c-.819.045-1.859 1.043-2.032 1.865-.124.584.225.97.857.957.688-.017 1.735-.791 2.06-1.606.111-.276.163-.725.01-.922-.155-.21-.591-.31-.895-.294zM71.411 65.93c-.193.207-.39.41-.573.625-1.68 1.944-3.304 3.94-5.056 5.815-.702.75-1.663 1.278-2.568 1.806-.263.152-.868.08-1.075-.127-.252-.25-.405-.795-.318-1.14.155-.618.425-1.257.812-1.761 1.472-1.924 3.014-3.792 4.52-5.688 1.21-1.52 2.295-3.108 2.748-5.039.429-1.82-.619-2.89-2.364-2.258-1.106.404-2.208 1.001-3.103 1.761-1.649 1.399-3.145 2.977-4.704 4.48-.238.23-.487.448-.73.673.115-.463.357-.778.588-1.102.944-1.316 1.953-2.6 2.209-4.276.176-1.156-.488-1.982-1.631-1.795-.82.134-1.718.414-2.354.915-.674.528-1.334 1.077-1.987 1.637-1.1.943-2.174 1.913-3.263 2.87-.484.424-.926.894-1.386 1.346.042-.348.215-.57.35-.814.666-1.216 1.361-2.418 1.966-3.661.352-.725.218-1.471-.425-2.02-.643-.55-1.386-.37-2.019-.032-2.246 1.202-3.618 3.254-5.028 5.257.816-.85 1.5-1.83 2.354-2.635.75-.708 1.582-1.33 2.433-1.924.864-.542 2.087-1.029 1.49 1.053-.066.087-.15.173-.215.256-1.244 1.564-2.488 3.129-3.74 4.686-2.18 2.718-4.402 5.408-5.91 8.586-.175.369-.19.818-.28 1.229.405-.17.917-.235 1.193-.525 1.649-1.73 3.242-3.516 4.86-5.273 2.107-2.294 4.164-4.638 6.338-6.866l2.1-1.768 1.819-1.247.02-.01c.273-.152 3.166-1.696 1.708 1.226-1.967 2.47-4.006 4.883-5.862 7.428-1.424 1.952-2.62 4.072-3.88 6.137-.167.27-.129.663-.184 1.002 2.274-1.41 4.043-3.136 5.55-5.129 2.43-3.222 5.108-6.216 8.153-8.872 1.189-1.036 2.457-1.958 4.03-2.334.736-.176 1.12.11 1.088.846-.017.373-.096.818-.318 1.095-.787.97-1.638 1.895-2.488 2.818-1.524 1.654-3.138 3.239-4.576 4.966-.916 1.098-1.541 2.43-1.348 3.95.163 1.302.685 2.173 1.635 2.473.864.273 1.57-.003 2.253-.442 1.96-1.257 3.35-3.087 4.839-4.814.885-1.026 1.728-2.086 2.589-3.132-.094-.087-.177-.17-.26-.252zM42.215 61.392c-1.058.096-2.15.376-3.114.822-2.18 1.001-3.974 2.57-5.64 4.272-2.768 2.828-5.153 5.96-7.389 9.213-.218.315-.511.767-.816.805-2.256.28-4.527.439-6.563-.894-1.897-1.244-3-3.105-2.948-5.28.08-3.572 1.725-6.593 4.134-9.197 3.59-3.882 8.108-5.988 13.268-6.841.418-.07.915-.06 1.292.103 1.39.608 2.81.943 4.279.85 0 0 1.295.034 1.6-.228.207-.1.38-.273.404-.57.062-.794-1.016-.701-1.016-.701-.076-.014-.163-.01-.239-.014-1.285-.031-2.57-.024-3.853-.11-.072-.004-.149-.018-.228-.038 0 0-.92-.432-1.147-1.983.276-.096.48-.176.69-.228 1.656-.404 3.332-.742 4.97-1.212 3.29-.95 6.353-2.338 8.782-4.855.93-.076 1.943-.325 2.793-.933 0 0 .003 0 .003-.003.995-.342 1.939-.812 2.844-1.378 4.348-2.725 4.98-7.677 1.445-11.414-2.118-2.238-4.807-3.55-7.676-4.524-5.81-1.972-11.812-2.593-17.912-2.48-6.802.125-13.43 1.175-19.748 3.796-3.01 1.25-5.792 2.873-7.942 5.39C.283 36.34-.553 39.305.373 42.603c.698 2.483 2.457 4.196 4.604 5.525 3.59 2.22 7.606 3.15 11.722 3.713 4.863.663 9.736.632 14.609.058.069-.007.148-.01.231-.003.211.604.685 1.347 1.742 1.982-.356.08-.622.166-.895.197-4.354.48-8.45 1.785-12.172 4.068-4.099 2.51-7.358 5.719-7.914 10.84-.26 2.38.38 4.438 2.35 5.937 1.935 1.471 4.227 1.93 6.577 2.103 1.265.093 2.543.017 3.919.017-.138.256-.252.501-.394.729-1.047 1.668-2.14 3.308-3.138 5-1.089 1.841-2.098 3.73-3.124 5.606-.104.186-.09.438-.152.76 2.384-4.007 4.651-7.847 6.967-11.66.214-.352.701-.673 1.113-.752 5.125-.988 9.687-3.136 13.665-6.5 1.952-1.654 3.715-3.467 4.306-6.102.328-1.516-.65-2.866-2.174-2.728zm-2.322-7.18s.193.062.21.176c0 .014 0 .031-.003.045-.014.048-.055.1-.149.163-1.386.28-2.764.334-4.31-.384h4.252zm7.378-9.535c-1.154-.169-2.305-.352-3.452-.542-.263-.045-.519-.142-.775-.214-.027.097-.055.193-.079.287.909.5 1.877.728 2.896.873 0 0 .933.249 2.146.249.049.007.097.01.145.017-.497.422-.964.895-1.503 1.26-3.27 2.225-6.947 3.43-10.783 4.217-.522.107-1.047.208-1.648.325-.02-.477.003-.94.065-1.385.049-.304.118-.632.211-.984.197-.667.491-1.295.889-1.879 2.878-4.254 6.967-6.589 12.013-7.325.41-.058.857.014 1.271.1 1.106.228 1.573.843 1.431 1.952-.066.521-.283 1.029-.442 1.537-.363 1.17-1.154 1.695-2.385 1.512zM32.29 47.171c-.736 1.008-.95 2.196-.891 3.563 0 0-.076.405.08.974-3.104.066-6.073.235-9.038.17-5.06-.11-10.036-.78-14.754-2.76-1.914-.804-3.725-1.816-5.084-3.412-2.982-3.502-2.927-7.99.163-11.662 2.288-2.718 5.322-4.368 8.574-5.615 7.541-2.89 15.39-3.771 23.411-3.374 4.444.22 8.813.884 13.026 2.362 2.084.729 4.067 1.671 5.775 3.108 1.831 1.544 3.127 3.405 3.248 5.867.149 3.03-1.43 5.129-3.891 6.631-.975.594-2.074.984-3.114 1.468-.052-.08-.1-.163-.152-.242.263-.705.57-1.395.777-2.114.446-1.536-.335-2.783-1.935-2.921-.954-.083-1.949.003-2.892.19-3.716.735-7.251 1.985-10.24 4.361-1.18.936-2.16 2.176-3.063 3.406zm11.454 17.823c-1.355 3.17-3.94 5.194-6.688 7.041-3.02 2.03-6.362 3.343-9.88 4.227-.27.07-.553.07-.83.104l-.138-.231c1.234-1.665 2.43-3.357 3.708-4.987 2.136-2.718 4.403-5.322 7.247-7.353 1.334-.953 2.748-1.757 4.407-1.965.795-.1 1.665-.19 2.16.643.484.811.37 1.692.014 2.52z"/>
    <path fill="#1E1E1E" d="M178.837 36.717c.215-.335.408-.684.585-1.04.293.184.573.387.843.605.162.135.449-.042.356-.252-.159-.346-.332-.684-.526-1.012.363-.17.712-.356 1.055-.563.197-.117.058-.425-.149-.407-.449.038-.899.04-1.348.003-.107-.36-.19-.722-.249-1.091-.031-.208-.363-.266-.432-.049-.131.425-.238.853-.318 1.288-.418.149-.843.26-1.278.339-.208.038-.26.37-.038.431.373.108.749.194 1.133.263.024.442.01.88-.034 1.32-.025.217.279.358.4.165zM170.247 21.208c.553-.87 1.061-1.769 1.52-2.69.761.476 1.486 1 2.181 1.574.422.349 1.165-.107.919-.65-.408-.897-.86-1.774-1.355-2.624.937-.435 1.849-.918 2.738-1.45.508-.308.159-1.102-.387-1.057-1.165.097-2.326.1-3.488.004-.276-.926-.487-1.869-.635-2.829-.083-.542-.94-.694-1.12-.128-.346 1.095-.622 2.21-.833 3.34-1.082.38-2.184.67-3.314.87-.54.097-.674.957-.104 1.119.968.28 1.942.508 2.931.684.062 1.143.024 2.283-.101 3.422-.058.542.73.915 1.048.415z"/>
    <path fill="url(#paint0_linear)" d="M169.237 37.311c-.139-.856-.318-1.703-.546-2.538.743-.125 1.493-.197 2.25-.225.459-.017.67-.718.214-.918-.757-.339-1.531-.636-2.319-.895.349-.794.65-1.606.912-2.434.149-.477-.515-.781-.833-.45-.677.709-1.403 1.358-2.191 1.945-.691-.428-1.348-.901-1.977-1.423-.352-.294-.978.086-.774.542.394.88.84 1.737 1.338 2.563-.467.842-.999 1.637-1.597 2.393-.283.36.111.977.56.76.764-.363 1.503-.764 2.226-1.206.677.684 1.289 1.42 1.845 2.207.27.377.971.173.892-.321z"/>
    <path fill="url(#paint1_linear)" d="M144.692 14.242c.225-.663.415-1.337.571-2.02.577.193 1.144.42 1.693.687.335.162.75-.26.501-.577-.415-.528-.853-1.033-1.32-1.516.549-.439 1.075-.905 1.572-1.399.287-.283-.072-.752-.425-.635-.753.252-1.517.442-2.301.566-.332-.566-.622-1.153-.875-1.764-.141-.342-.732-.308-.76.096-.052.78-.055 1.561-.01 2.338-.654.425-1.334.795-2.05 1.109-.339.152-.29.739.114.756.685.028 1.365.02 2.046-.02.225.745.384 1.502.487 2.275.049.366.626.484.757.104z"/>
    <path fill="#1E1E1E" d="M82.225 18.286c.225-.663.415-1.337.57-2.02.577.193 1.144.42 1.694.687.335.162.75-.26.5-.577-.414-.528-.853-1.033-1.32-1.516.55-.439 1.076-.905 1.573-1.399.287-.283-.072-.752-.425-.635-.753.252-1.517.442-2.302.566-.331-.566-.622-1.153-.874-1.764-.142-.342-.733-.308-.76.096-.052.78-.056 1.561-.01 2.338-.654.425-1.335.795-2.05 1.109-.339.152-.29.739.114.756.684.028 1.365.02 2.046-.02.225.745.384 1.502.487 2.275.049.366.63.484.757.104zM120.466 21.025c-.384-.636-.802-1.247-1.251-1.838.549-.338 1.119-.635 1.71-.901.36-.162.301-.784-.124-.798-.709-.024-1.417-.01-2.126.035.021-.743-.003-1.485-.062-2.224-.034-.425-.66-.453-.805-.086-.308.78-.677 1.53-1.109 2.248-.685-.118-1.362-.284-2.026-.49-.376-.118-.746.383-.439.68.598.57 1.227 1.105 1.887 1.602-.1.818-.266 1.62-.494 2.41-.11.377.401.74.691.425.488-.532.947-1.091 1.376-1.671.757.324 1.479.711 2.174 1.157.328.203.819-.183.598-.55zM109.393 8.13c-.384-.636-.802-1.247-1.251-1.838.549-.338 1.119-.635 1.71-.901.36-.163.301-.784-.124-.798-.709-.024-1.417-.01-2.126.038.021-.743-.003-1.485-.062-2.224-.034-.425-.66-.452-.805-.086-.308.78-.677 1.53-1.109 2.248-.685-.118-1.359-.283-2.026-.49-.376-.118-.746.383-.439.68.598.57 1.227 1.105 1.887 1.602-.1.819-.266 1.62-.494 2.41-.11.377.401.74.691.425.488-.531.947-1.09 1.376-1.671.757.325 1.479.711 2.174 1.157.328.2.819-.187.598-.553z"/>
    <path fill="url(#paint2_linear)" d="M92.13 4.652c-.612-.421-1.244-.808-1.894-1.16.363-.532.76-1.04 1.189-1.523.26-.294-.049-.84-.442-.677-.657.27-1.3.57-1.925.905-.287-.684-.612-1.354-.972-2.003-.207-.373-.788-.142-.77.248.038.84.01 1.672-.09 2.504-.674.173-1.355.3-2.05.38-.39.045-.525.656-.12.798.777.276 1.572.504 2.377.687.246.787.422 1.585.54 2.403.055.39.67.508.801.104.225-.687.415-1.381.57-2.086.823-.014 1.642.042 2.458.162.39.056.68-.497.328-.742z"/>
    <path fill="#1E1E1E" d="M167.357 44.905c-.878-.142-1.061 1.07-.27 1.343.149.052.208-.183.059-.234-.733-.253-.042-1.372.505-.633.186.256.255.74.01.981-.377.373-1.075.076-1.393-.231-.394-.38-.225-1.03.118-1.378.387-.397.964-.435 1.437-.193.139.069.26-.139.121-.211-.86-.439-1.939-.007-2.122.98-.166.899.909 1.724 1.752 1.365.754-.315.585-1.661-.217-1.79zM138.561 27.831c-.877-.141-1.061 1.07-.269 1.344.148.051.207-.184.059-.235-.733-.252-.042-1.371.504-.632.187.255.256.739.01.98-.376.373-1.074.076-1.392-.23-.394-.38-.225-1.03.117-1.379.387-.397.961-.435 1.438-.193.138.072.259-.138.121-.21-.857-.44-1.939-.008-2.122.98-.166.898.909 1.723 1.752 1.364.753-.314.584-1.661-.218-1.789zM100.977 29.582c-.601-.097-.729.736-.183.922.1.035.142-.128.042-.162-.501-.173-.028-.94.345-.432.128.176.177.508.007.674-.259.255-.736.051-.954-.16-.27-.258-.152-.704.08-.942.263-.273.66-.3.985-.131.093.048.176-.097.083-.145-.588-.3-1.327-.007-1.452.673-.114.615.622 1.181 1.199.936.515-.225.398-1.146-.152-1.233zM125.276 12.591c-.601-.096-.729.736-.183.922.101.035.142-.127.042-.162-.501-.173-.028-.94.345-.432.128.176.177.508.007.674-.259.255-.736.052-.954-.16-.269-.258-.152-.704.08-.942.263-.273.66-.3.985-.131.093.048.176-.097.083-.145-.588-.3-1.327-.007-1.452.673-.114.615.622 1.181 1.2.936.514-.224.397-1.146-.153-1.233z"/>
    <path fill="url(#paint3_linear)" d="M140.524 14.798c-4.247 3.927-8.17 9.583-5.989 15.606.204.56 1.099.318.895-.245-2.07-5.712 1.735-10.989 5.747-14.701.443-.408-.214-1.064-.653-.66z"/>
    <path fill="url(#paint4_linear)" d="M105.595 33.409c-1.286-10.03-6.245-19.378-13.88-26.029-.45-.39-1.11.262-.66.656 7.44 6.482 12.352 15.589 13.606 25.383.08.587 1.01.584.934-.01z"/>
    <path fill="#1E1E1E" d="M107.115 9.145c-.048-.149-.28-.087-.235.065 2.216 7.035 2.696 14.55 1.386 21.809-.028.152.207.214.235.058 1.317-7.3.84-14.86-1.386-21.932zM164.232 20.762c-7.509 1.264-15.012 5.38-17.632 12.94-.052.148.183.207.235.059 2.592-7.477 10.047-11.52 17.463-12.768.152-.024.087-.255-.066-.231z"/>
    <path fill="#1E1E1E" d="M160.116 24.868c-4.334.919-8.101 3.457-10.62 7.09-.342.49.47.95.809.46 2.384-3.437 5.972-5.785 10.06-6.652.584-.124.335-1.022-.249-.898zM165.739 24.292c-1.247-.025-2.467.169-3.646.58-.145.052-.083.286.066.235 1.158-.404 2.357-.598 3.584-.574.155.004.152-.238-.004-.241z"/>
    <path fill="url(#paint5_linear)" d="M142.75 13.486c-.328.269-.66.535-.988.804-.121.1.051.27.172.173.329-.27.66-.535.989-.805.117-.1-.052-.27-.173-.172z"/>
    <path fill="#1E1E1E" d="M96.305 27.603c-1.414-2.921-3.252-5.612-5.46-7.994-.108-.114-.277.055-.174.172 2.195 2.37 4.016 5.042 5.423 7.947.07.138.277.013.21-.125zM100.411 36.941c-.692-2.12-1.628-4.14-2.803-6.036-.083-.132-.294-.01-.211.12 1.165 1.88 2.098 3.879 2.782 5.982.045.149.28.083.232-.066zM65.211 28.543c.16-1.02.37-2.027.64-3.022-.885-.142-1.777-.228-2.679-.26-.546-.016-.802-.849-.262-1.094.898-.404 1.817-.763 2.754-1.077-.418-.947-.781-1.91-1.096-2.898-.18-.566.609-.932.989-.538.808.842 1.68 1.609 2.616 2.306.819-.514 1.6-1.08 2.347-1.702.421-.349 1.164.1.922.642-.466 1.05-.991 2.069-1.579 3.056.56 1.002 1.2 1.945 1.915 2.843.342.428-.125 1.16-.664.908-.909-.428-1.794-.902-2.654-1.423-.802.819-1.528 1.696-2.188 2.635-.314.449-1.15.207-1.06-.376zM89.227 33.692c.014-.062.041-.118.066-.176-4.044-3.23-8.616-5.792-13.534-7.529-.895-.318-1.583 1.012-.68 1.33 4.965 1.754 9.576 4.348 13.63 7.642.259-.342.407-.784.518-1.267zM74.39 23.024c5.907 1.564 11.367 4.566 15.853 8.713.114.107-.048.287-.162.18-4.452-4.12-9.87-7.104-15.739-8.658-.152-.038-.104-.276.048-.235zM131.466 29.24c-.103-.093-.186-.145-.3-.228-.27-.2-.388-.22-.457-.587-.107-.566.315-.957.692-1.336.404-.404.843-.808 1.026-1.371.38-1.185-.695-1.596-1.555-2.024-.795-.394-1.165-1.105-.778-1.958.36-.798 1.206-1.202 1.949-1.568.142-.07.018-.28-.121-.21-1.043.514-2.336 1.256-2.229 2.614.035.459.27.828.643 1.094.55.394 1.438.49 1.801 1.112.539.922-.564 1.765-1.11 2.352-.307.332-.705.808-.66 1.299.052.6.819.832 1.172 1.229.594.67.802 1.589.601 2.452-.034.152.201.21.235.059.242-1.06-.086-2.2-.909-2.929zM196 24.63c0 2.956-2.322 5.273-5.343 5.273-2.989 0-5.374-2.32-5.374-5.273 0-2.89 2.385-5.211 5.374-5.211 3.024 0 5.343 2.32 5.343 5.21zm-9.38 0c0 2.32 1.718 4.161 4.072 4.161 2.287 0 3.974-1.844 3.974-4.13 0-2.32-1.687-4.193-4.006-4.193-2.322 0-4.04 1.876-4.04 4.162zm3.215 2.732h-1.21V22.15c.477-.096 1.144-.159 2.001-.159.985 0 1.431.16 1.811.38.287.221.508.636.508 1.144 0 .573-.446 1.015-1.082 1.208v.062c.508.19.795.574.954 1.271.159.794.256 1.112.38 1.302h-1.303c-.159-.19-.255-.666-.414-1.27-.097-.574-.415-.826-1.082-.826h-.574v2.1h.011zm.031-2.953h.573c.667 0 1.21-.221 1.21-.763 0-.477-.349-.795-1.113-.795-.318 0-.539.032-.667.063v1.495h-.003z"/>
    <defs>
        <linearGradient id="paint0_linear" x1="163.622" x2="171.41" y1="33.769" y2="33.769" gradientUnits="userSpaceOnUse">
            <stop offset=".05" stop-color="#F9D95F"/>
            <stop offset=".133" stop-color="#FAEA8E"/>
            <stop offset=".329" stop-color="#FAB918"/>
            <stop offset=".599" stop-color="#E4BC72"/>
            <stop offset=".796" stop-color="#D9AA56"/>
            <stop offset="1" stop-color="#F3B62A"/>
        </linearGradient>
        <linearGradient id="paint1_linear" x1="141.062" x2="147.816" y1="10.912" y2="10.912" gradientUnits="userSpaceOnUse">
            <stop offset=".05" stop-color="#F9D95F"/>
            <stop offset=".133" stop-color="#FAEA8E"/>
            <stop offset=".329" stop-color="#FAB918"/>
            <stop offset=".599" stop-color="#E4BC72"/>
            <stop offset=".796" stop-color="#D9AA56"/>
            <stop offset="1" stop-color="#F3B62A"/>
        </linearGradient>
        <linearGradient id="paint2_linear" x1="84.814" x2="92.288" y1="3.785" y2="3.785" gradientUnits="userSpaceOnUse">
            <stop offset=".05" stop-color="#F9D95F"/>
            <stop offset=".133" stop-color="#FAEA8E"/>
            <stop offset=".329" stop-color="#FAB918"/>
            <stop offset=".599" stop-color="#E4BC72"/>
            <stop offset=".796" stop-color="#D9AA56"/>
            <stop offset="1" stop-color="#F3B62A"/>
        </linearGradient>
        <linearGradient id="paint3_linear" x1="133.914" x2="141.327" y1="22.696" y2="22.696" gradientUnits="userSpaceOnUse">
            <stop offset=".05" stop-color="#F9D95F"/>
            <stop offset=".133" stop-color="#FAEA8E"/>
            <stop offset=".329" stop-color="#FAB918"/>
            <stop offset=".599" stop-color="#E4BC72"/>
            <stop offset=".796" stop-color="#D9AA56"/>
            <stop offset="1" stop-color="#F3B62A"/>
        </linearGradient>
        <linearGradient id="paint4_linear" x1="90.908" x2="105.6" y1="20.56" y2="20.56" gradientUnits="userSpaceOnUse">
            <stop offset=".05" stop-color="#F9D95F"/>
            <stop offset=".133" stop-color="#FAEA8E"/>
            <stop offset=".329" stop-color="#FAB918"/>
            <stop offset=".599" stop-color="#E4BC72"/>
            <stop offset=".796" stop-color="#D9AA56"/>
            <stop offset="1" stop-color="#F3B62A"/>
        </linearGradient>
        <linearGradient id="paint5_linear" x1="141.72" x2="142.962" y1="13.973" y2="13.973" gradientUnits="userSpaceOnUse">
            <stop offset=".05" stop-color="#F9D95F"/>
            <stop offset=".133" stop-color="#FAEA8E"/>
            <stop offset=".329" stop-color="#FAB918"/>
            <stop offset=".599" stop-color="#E4BC72"/>
            <stop offset=".796" stop-color="#D9AA56"/>
            <stop offset="1" stop-color="#F3B62A"/>
        </linearGradient>
    </defs>
</svg>
