<svg xmlns="http://www.w3.org/2000/svg" width="131" height="34" fill="none" viewBox="0 0 131 34">
    <g clip-path="url(#clip0)">
        <path fill="#3C58BF" d="M48.033 21.675l1.695-9.299h2.648l-1.642 9.299h-2.7z"/>
        <path fill="#293688" d="M48.033 21.675l2.171-9.299h2.172l-1.642 9.299h-2.7z"/>
        <path fill="#3C58BF" d="M60.318 12.48c-.53-.207-1.376-.414-2.435-.414-2.648 0-4.554 1.292-4.554 3.152 0 1.395 1.323 2.118 2.383 2.583 1.059.465 1.376.775 1.376 1.188 0 .62-.847.93-1.588.93-1.06 0-1.642-.155-2.542-.517l-.37-.155-.371 2.118c.635.259 1.8.517 3.018.517 2.806 0 4.66-1.292 4.66-3.255 0-1.084-.689-1.911-2.277-2.583-.953-.465-1.536-.723-1.536-1.188 0-.413.477-.826 1.536-.826.9 0 1.535.155 2.012.361l.265.104.423-2.015z"/>
        <path fill="#293688" d="M60.318 12.48c-.53-.207-1.376-.414-2.435-.414-2.648 0-4.078 1.292-4.078 3.152 0 1.395.847 2.118 1.907 2.583 1.059.465 1.376.775 1.376 1.188 0 .62-.847.93-1.588.93-1.06 0-1.642-.155-2.542-.517l-.37-.155-.371 2.118c.635.259 1.8.517 3.018.517 2.806 0 4.66-1.292 4.66-3.255 0-1.084-.689-1.911-2.277-2.583-.953-.465-1.536-.723-1.536-1.188 0-.413.477-.826 1.536-.826.9 0 1.535.155 2.012.361l.265.104.423-2.015z"/>
        <path fill="#3C58BF" d="M64.872 12.376c-.635 0-1.112.052-1.377.672l-3.97 8.627h2.858l.53-1.55h3.389l.318 1.55h2.541l-2.224-9.299h-2.065zm-1.218 6.2c.16-.466 1.06-2.739 1.06-2.739s.211-.568.37-.93l.159.879s.53 2.324.635 2.841h-2.224v-.052z"/>
        <path fill="#293688" d="M65.508 12.376c-.636 0-1.112.052-1.377.672l-4.607 8.627h2.86l.53-1.55h3.388l.318 1.55h2.541l-2.224-9.299h-1.43zm-1.854 6.2c.212-.517 1.06-2.739 1.06-2.739s.211-.568.37-.93l.159.879s.53 2.324.635 2.841h-2.224v-.052z"/>
        <path fill="#3C58BF" d="M43.162 18.885l-.265-1.343c-.477-1.55-2.012-3.255-3.707-4.081l2.383 8.266h2.86l4.289-9.3h-2.86l-2.7 6.458z"/>
        <path fill="#293688" d="M43.162 18.885l-.265-1.343c-.477-1.55-2.012-3.255-3.707-4.081l2.383 8.266h2.86l4.289-9.3h-2.33l-3.23 6.458z"/>
        <path fill="#FFBC00" d="M35.801 12.376l.477.103c3.389.775 5.719 2.738 6.619 5.063l-.953-4.391c-.16-.62-.636-.775-1.218-.775H35.8z"/>
        <path fill="#F7981D" d="M35.801 12.376c3.39.775 6.196 2.79 7.096 5.114l-.9-3.667c-.16-.62-.689-.982-1.271-.982l-4.925-.465z"/>
        <path fill="#ED7C00" d="M35.801 12.376c3.39.775 6.196 2.79 7.096 5.114l-.636-2.014c-.158-.62-.37-1.24-1.111-1.499L35.8 12.377z"/>
        <path fill="#051244" d="M45.81 18.575l-1.801-1.756-.847 1.963-.212-1.292c-.477-1.55-2.012-3.254-3.707-4.08l2.383 8.265h2.86l1.323-3.1zM50.734 21.675l-2.277-2.273-.424 2.273h2.7zM56.824 18.472c.211.207.317.362.264.568 0 .62-.847.93-1.588.93-1.06 0-1.642-.155-2.542-.516l-.37-.155-.371 2.118c.635.258 1.8.516 3.018.516 1.694 0 3.071-.465 3.865-1.291l-2.276-2.17zM59.895 21.675h2.488l.53-1.55h3.389l.318 1.55h2.541l-.9-3.771-3.177-2.997.159.827s.53 2.325.635 2.841h-2.224c.212-.516 1.06-2.738 1.06-2.738s.211-.568.37-.93"/>
    </g>
    <g clip-path="url(#clip1)">
        <path fill="#FFDD12" d="M112.857 22.62h-4.686l-2.25-10.657h3.72l.965 6.569 1.01-6.569h4.272l1.011 6.752 1.01-6.752h3.675l-2.251 10.657h-4.593l-.965-6.89"/>
        <path fill="#FFDD12" d="M112.857 22.62h-4.686l-2.25-10.657h3.72l.965 6.569 1.01-6.569h4.272l1.011 6.752 1.01-6.752h3.675l-2.251 10.657h-4.593l-.965-6.89"/>
        <path fill="#FFC715" d="M110.881 21.793c.414.367.965.643 1.608.827h.368l.964-6.89.965 6.89h4.593l2.251-10.61h-3.675l-1.01 6.705-.965-6.706h-4.272l-.964 6.569-.965-6.569v6.477c-.138 1.47.276 2.572 1.102 3.307z"/>
        <path fill="#FFF315" d="M105.37 22.574h-.644l-2.204-10.61h.643"/>
        <path fill="#FFDD12" d="M107.069 22.574h-.597l-2.251-10.61h.643"/>
        <path fill="#000" d="M124.615 11.963v6.66c0 .414-.091.781-.275 1.011-.184.23-.414.368-.689.368-.322 0-.551-.138-.735-.368-.184-.23-.23-.597-.23-1.056v-6.615h-.781l-2.067 9.83c.368.322.827.597 1.378.735.643.23 1.47.321 2.481.321 1.699 0 2.985-.367 3.812-1.056.827-.735 1.24-1.837 1.24-3.353v-6.477"/>
        <path fill="#FFA515" d="M118.644 11.963v6.477c0 .827.092 1.47.23 1.93.138.412.367.826.689 1.147l2.021-9.554"/>
        <path fill="#000" d="M129.53 12.836h.184l.046.092.092.046.091-.046.046-.046-.046-.046-.091-.046c-.092 0-.138-.046-.184-.091l-.046-.138.046-.092.092-.092c.046 0 .092-.046.183-.046.092 0 .138 0 .184.046.046.046.092.092.092.184h-.184l-.046-.092h-.137v.092l.091.046c.092 0 .138.046.184.046l.092.091.046.092-.184.092-.092.092-.183.046c-.138 0-.184-.046-.23-.092-.046-.046-.046-.092-.046-.138z"/>
        <path fill="#000" d="M130.219 12.331h.276l.138.46.091-.46H131v.735h-.184v-.551l-.138.551h-.137l-.138-.551v.551h-.184"/>
        <path fill="#44423E" d="M119.838 21.793c.368.322.827.597 1.378.735.643.23 1.47.321 2.481.321h.183l2.251-10.886h-1.516v6.66c0 .414-.091.781-.275 1.011-.184.23-.414.368-.689.368-.322 0-.551-.138-.735-.368-.184-.23-.23-.597-.23-1.056v-6.615h-.781l-2.067 9.83z"/>
    </g>
    <g clip-path="url(#clip2)">
        <path fill="#B2001E" d="M88.71 25.383l-.14.524-.28-.035v-.174c-.14-.07-.28-.105-.454-.105-.595 0-.875.734-.875 1.224 0 .385.21.56.595.56h.105l.07-.35v-.14l-.14-.035.035-.315h1.014l-.07.315-.14.035-.07.14-.105.56c-.314.105-.594.14-.91.14-.559 0-.979-.245-1.014-.84l.105-.14c.07-.07.14-.175.175-.28.07-.105.105-.245.105-.385 0-.07 0-.14-.035-.21.035-.07.14-.14.14-.14.315-.314.665-.454 1.12-.454.244 0 .524.035.77.105z"/>
        <path fill="#111516" d="M77.131 27.377h.315l.804-1.225v.035l-.21 1.05-.034.14H77.9l-.105.315h.91l.034-.315h-.14l.035-.14.28-1.435.035-.104.14-.035.105-.315h-.735l-.944 1.364-.35-1.364h-.805l-.035.315.14.035-.035.104-.28 1.435-.034.14h-.14l-.105.315h.734l.035-.315h-.07v-.14l.245-1.12.315 1.26zM79.58 27.761c.35 0 .664-.14.91-.42.21-.21.384-.56.384-.874 0-.175-.105-.35-.245-.455-.14-.07-.315-.105-.49-.105-.35 0-.664.14-.874.42-.21.21-.385.56-.385.875 0 .174.105.35.245.454.07.07.28.105.455.105zm.35-1.539c.21 0 .244.245.244.385 0 .245-.14.84-.454.84-.21 0-.245-.245-.245-.385 0-.28.14-.84.455-.84z"/>
        <path fill="#111516" d="M81.749 25.907l-.805.035-.035.315.14.035-.035.14-.175.84-.105.454h.665l.14-.594c.07-.14.42-.665.56-.665.034 0 .07.035.034.175l-.14.63-.104.454h.84l.034-.314-.14-.035v-.14l.14-.77c.07-.42-.035-.56-.28-.56-.385 0-.734.455-.874.805h-.035l.175-.805z"/>
        <path fill="#111516" d="M84.512 27.132c-.245.105-.525.244-.804.244-.175 0-.315-.07-.315-.28.455 0 1.12-.28 1.12-.804 0-.14-.07-.21-.14-.28-.106-.07-.21-.105-.35-.105-.315 0-.63.14-.875.385-.21.21-.385.56-.385.875 0 .42.385.594.735.594.315 0 .63-.07.944-.21l.07-.42zm-1.084-.35c.035-.175.175-.525.35-.525.105 0 .14.07.14.175 0 .105-.07.21-.175.28-.07.07-.21.07-.315.07z"/>
        <path fill="#B2001E" d="M89.55 25.908l-.805.035-.035.314.14.035v.07l-.21.84-.14.525h.665l.14-.63c.14-.21.385-.63.664-.63.07 0 .106.035.175.07l.21-.56c-.035-.034-.105-.034-.14-.034-.35 0-.7.49-.84.77h-.034l.21-.805zM91.019 27.727l.805-.035.035-.315-.14-.035v-.14l.175-.805.14-.524-.455.034h-.07l-.315-.034c-.385 0-.665.21-.875.49-.21.244-.385.594-.385.909 0 .21.14.455.35.455.385 0 .735-.455.875-.77h.035l-.175.77zm.245-1.155c-.105.14-.42.7-.595.7-.07 0-.07-.07-.07-.105 0-.175.105-.42.175-.595.07-.14.175-.35.385-.35.07 0 .14.035.21.07l-.105.28zM92.943 25.907l-.77.035-.035.315.14.035v.14l-.175.84-.104.455h.594l.14-.665.035-.035c.07-.14.385-.595.525-.595.035 0 .07 0 .035.21l-.14.595-.105.455h.595l.14-.665.035-.035c.07-.14.384-.595.524-.595.07 0 .07.035.035.21l-.175.63-.105.455h.77l.035-.315-.14-.035v-.14l.175-.77c0-.07.035-.14.035-.21 0-.175-.105-.35-.28-.35-.21 0-.42.14-.56.315-.14.14-.21.315-.314.49h-.035l.07-.245c0-.07.034-.14.034-.21 0-.175-.104-.315-.28-.315-.21 0-.42.175-.559.315-.14.14-.21.315-.28.49h-.035l.175-.805z"/>
        <path fill="#111516" d="M85.702 25.943c.105.105.175.245.175.384 0 .28-.28.525-.455.735-.035-.385-.105-.77-.245-1.154l-.665.035-.035.314.14.035c.175.455.28.945.28 1.4l-.07.07c-.21.21-.42.455-.665.63l.665-.035c.21-.385.49-.7.77-1.015l.175-.21.42-.49c.104-.14.244-.314.244-.524 0-.07-.035-.14-.035-.175h-.7z"/>
        <path fill="#B2001E" d="M95.637 27.692l-.07-.105c0-.035-.035-.035-.035-.035.07 0 .105-.035.105-.105 0-.035-.035-.07-.105-.07h-.105v.315h.035v-.14l.105.14h.07zm-.07-.21c0 .035-.035.07-.07.07h-.035v-.105h.035c.07-.035.07 0 .07.035zm-.035-.175c.14 0 .245.105.245.245s-.105.245-.245.245-.245-.105-.245-.245.105-.245.245-.245zm0-.07c-.175 0-.28.14-.28.28 0 .175.14.28.28.28.175 0 .28-.14.28-.28s-.14-.28-.28-.28z"/>
        <path fill="#EB1C2E" d="M93.223 22.864l-.245-.35c-.035-.07-.07-.105-.105-.14.175 0 .28-.14.28-.315 0-.14-.105-.245-.35-.245h-.315v1.05h.175v-.455l.315.455h.245zm-.21-.77c0 .07-.07.175-.245.175h-.07v-.35h.14c.14.035.175.07.175.175zm-.175-.49c.42 0 .735.35.735.77 0 .42-.315.735-.735.735s-.734-.35-.734-.77c0-.42.314-.734.734-.734zm0-.174c-.525 0-.944.42-.944.944 0 .525.384.945.944.945.49 0 .945-.42.945-.945 0-.56-.42-.944-.945-.944z"/>
        <path fill="#B2001E" d="M86.226 6.422c-4.687 0-8.5 3.813-8.5 8.501 0 4.688 3.813 8.466 8.465 8.466 4.688 0 8.466-3.813 8.466-8.466.035-4.688-3.778-8.5-8.43-8.5zm6.542 7.032c.07.595-.175 1.19-.665 1.714.455-.525.665-1.12.525-1.68-.21-1.049-1.364-1.748-2.903-1.853.14.35.245.734.28 1.12.14.874.07 1.503 0 2.238 0 0-.21.21-.35.28.105-.63.175-1.4.07-2.274-.035-.455-.175-.944-.35-1.4-.385 0-.77.036-1.19.106-1.819.35-3.323 1.399-3.673 2.483.14-1.259 2.204-2.553 4.268-2.868.175-.035.315-.035.455-.035-.385-.805-1.05-1.434-1.96-1.504-.349-.035-.629.07-.769.14l-.14-.035c.175-.105.525-.28.98-.28 1.05 0 1.819.77 2.274 1.679 1.784 0 2.973.91 3.148 2.169zm-9.305-.84c.21-1.679.84-2.554 1.014-2.728 1.54.454 3.114 1.224 3.114 1.224-1.504-.07-3.079.735-4.128 1.504zm-.945-2.064l-.664-1.014c-.07-.175-.07-.21.174-.21.63.035 1.435.21 1.435.21.665-.875 1.47-1.47 2.379-1.61 1.05-.174 2.168.315 3.078 1.155-.944-.735-1.994-1.084-2.973-.84-2.694.665-3.743 4.758-2.694 8.536 0 0-.35.035-.84-.105-.49-2.169-.35-3.778.035-5.072-2.064.35-2.553 1.504-2.833 1.959.7-2.414 2.903-3.009 2.903-3.009zm.315 7.591c-2.099-.244-3.848-1.574-4.128-3.218-.175-.91.28-1.924 1.015-2.729-.665.84-.945 1.75-.735 2.66.49 2.133 3.708 3.218 7.206 2.413 2.799-.63 4.898-2.309 5.388-4.023-.175.91-.77 1.819-1.644 2.624l-.035.035c-.175.664-.455 1.014-.455 1.014l-.35.21s.175-.315.315-.84c-1.155.875-2.659 1.575-4.268 1.855-.525.104-1.014.14-1.47.14.77 1.923 2.135 3.533 4.024 4.197-2.45-.734-4.023-2.448-4.863-4.337zm6.892 1.47l-.07.63c-.035.244-.105.244-.35.244-1.784-.105-3.813-1.469-3.813-1.469 3.183-.49 5.317-2.589 5.317-2.589.77-.77.42-.07.385.105-.105.28-.945 1.784-.945 1.784 2.624-.454 3.289-2.343 3.289-2.343-.875 2.693-3.813 3.638-3.813 3.638z"/>
        <path fill="#CC0224" d="M84.792 20.87c-.874-.77-1.54-1.714-1.959-2.729-2.099-.244-3.848-1.574-4.128-3.218-.175-.91.28-1.924 1.015-2.729-.665.84-.945 1.75-.735 2.66.49 2.133 3.708 3.218 7.206 2.413 2.799-.63 4.898-2.309 5.388-4.023-.175.91-.77 1.819-1.644 2.624l-.035.035c-.175.664-.455 1.014-.455 1.014l-.35.21s.175-.315.315-.84c-1.155.875-2.659 1.575-4.268 1.855-.525.104-1.014.14-1.47.14.386.979.945 1.854 1.61 2.588.77-.14 1.504-.385 2.204-.7-1.12-.42-2.064-1.049-2.064-1.049 3.183-.49 5.317-2.589 5.317-2.589.77-.77.42-.07.385.105-.07.21-.56 1.05-.805 1.505 1.75-1.75 2.799-4.163 2.799-6.822 0-.42-.035-.84-.07-1.26-1.504-2.238-3.988-3.638-6.822-3.638-4.687 0-8.5 3.813-8.5 8.501 0 1.96.664 3.743 1.749 5.178 1.224.56 2.553.874 3.988.874.455-.035.91-.07 1.33-.105zm-1.33-8.256c.21-1.679.84-2.554 1.015-2.728 1.54.454 3.114 1.224 3.114 1.224-1.504-.07-3.079.735-4.128 1.504zm6.123-1.33c1.819 0 3.008.91 3.183 2.135.07.595-.175 1.19-.665 1.714.455-.525.665-1.12.525-1.68-.21-1.049-1.364-1.748-2.903-1.853.14.35.245.734.28 1.12.14.874.07 1.503 0 2.238 0 0-.21.21-.35.28.105-.63.175-1.4.07-2.274-.035-.455-.175-.944-.35-1.4-.385 0-.77.036-1.19.106-1.819.35-3.323 1.399-3.673 2.483.14-1.259 2.204-2.553 4.268-2.868.175-.035.315-.035.455-.035-.385-.805-1.05-1.434-1.96-1.504-.349-.035-.629.07-.769.14l-.14-.035c.175-.105.525-.28.98-.28.98.035 1.784.804 2.239 1.714zm-7.067-.734l-.664-1.014c-.07-.175-.07-.21.174-.21.63.035 1.435.21 1.435.21.665-.875 1.47-1.47 2.379-1.61 1.05-.174 2.168.315 3.078 1.155-.945-.735-1.994-1.084-2.973-.84-2.694.665-3.743 4.758-2.694 8.536 0 0-.35.035-.84-.105-.49-2.169-.35-3.778.035-5.072-2.064.35-2.553 1.504-2.833 1.959.7-2.414 2.903-3.009 2.903-3.009z"/>
        <path fill="#EB1C2E" d="M86.226 6.422c-4.477 0-8.115 3.464-8.465 7.836.315.455.7.875 1.12 1.225-.07-.21-.14-.42-.176-.63-.175-.91.28-1.924 1.015-2.729-.665.84-.945 1.75-.735 2.66.175.699.595 1.258 1.26 1.713.42.245.839.455 1.329.63 1.294.42 2.938.49 4.652.07 2.799-.63 4.898-2.309 5.388-4.023-.035.245-.14.49-.245.735.28-.455.56-.945.77-1.435-.525-.524-1.365-.84-2.38-.874.14.35.245.734.28 1.12.14.874.07 1.503 0 2.238 0 0-.21.21-.35.28.106-.63.176-1.4.07-2.274-.034-.455-.174-.944-.35-1.4-.384 0-.769.036-1.189.106-1.819.35-3.323 1.399-3.673 2.483.14-1.259 2.204-2.553 4.268-2.868.175-.035.315-.035.455-.035-.385-.805-1.05-1.434-1.96-1.504-.349-.035-.629.07-.769.14l-.14-.035c.175-.105.525-.28.98-.28 1.05 0 1.819.77 2.274 1.679 1.154 0 2.064.35 2.623.944.315-.874.49-1.819.525-2.798-1.679-1.784-3.988-2.974-6.577-2.974zm1.365 4.653c-1.504-.07-3.079.77-4.128 1.54.21-1.68.84-2.555 1.014-2.73 1.54.42 3.114 1.19 3.114 1.19zm-1.644-2.799c-2.694.665-3.744 4.758-2.694 8.536 0 0-.35.035-.84-.105-.49-2.169-.35-3.778.035-5.072-2.064.35-2.553 1.504-2.833 1.959.734-2.449 2.938-3.044 2.938-3.044l-.664-1.014c-.07-.175-.07-.21.175-.21.63.035 1.434.21 1.434.21.664-.875 1.47-1.47 2.379-1.61 1.05-.174 2.169.315 3.078 1.155-.98-.735-2.029-1.05-3.008-.805z"/>
    </g>
    <path fill="#231F20" d="M8.461 27.35v-1.378c.009-.116-.008-.232-.05-.341-.04-.11-.104-.208-.187-.291-.083-.083-.183-.147-.293-.188-.11-.042-.227-.06-.345-.053-.154-.01-.307.021-.445.09-.137.068-.254.172-.337.3-.075-.124-.184-.226-.313-.295-.13-.068-.275-.101-.422-.095-.128-.006-.256.02-.37.078-.114.057-.212.142-.282.248v-.27h-.484v2.195h.489v-1.217c-.01-.075-.004-.152.018-.224.023-.073.062-.14.114-.195.052-.056.116-.1.188-.128.07-.028.148-.041.224-.037.322 0 .484.207.484.579v1.222h.49v-1.217c-.01-.075-.004-.152.02-.224.023-.072.062-.138.114-.193.052-.056.115-.1.186-.129.071-.028.147-.041.224-.038.33 0 .489.207.489.579v1.222h.488zm7.234-2.196h-.79v-.666h-.49v.666h-.451v.436h.451v1.002c0 .51.2.813.773.813.214 0 .424-.058.605-.17l-.14-.409c-.13.077-.277.12-.428.124-.242 0-.32-.147-.32-.367v-.992h.79v-.437zm4.13-.055c-.118-.003-.235.024-.338.081-.104.057-.19.14-.249.24v-.266h-.48v2.196h.485V26.12c0-.363.158-.565.475-.565.103-.002.206.017.302.055l.15-.45c-.111-.04-.228-.06-.345-.06zm-6.243.23c-.274-.161-.589-.24-.908-.23-.563 0-.926.266-.926.703 0 .358.27.579.768.648l.228.032c.265.037.391.105.391.23 0 .17-.177.266-.507.266-.266.007-.527-.073-.74-.23l-.229.372c.282.195.62.295.964.285.643 0 1.015-.298 1.015-.716 0-.386-.293-.589-.777-.657l-.229-.033c-.209-.027-.377-.069-.377-.215 0-.161.159-.258.424-.258.244.004.482.069.694.189l.21-.386zm12.97-.23c-.119-.003-.235.024-.339.081-.103.057-.189.14-.248.24v-.266h-.48v2.196h.484V26.12c0-.363.159-.565.475-.565.104-.002.207.017.303.055l.149-.45c-.11-.04-.227-.06-.345-.06zm-6.239 1.153c-.006.155.02.31.078.453.058.144.145.275.257.383.112.109.245.193.392.248.147.054.304.078.46.07.291.014.577-.08.801-.263l-.233-.386c-.167.126-.371.196-.582.198-.18-.01-.351-.09-.476-.22-.124-.13-.194-.304-.194-.483 0-.18.07-.352.194-.483.125-.13.295-.209.476-.22.211.003.415.072.582.198l.233-.386c-.224-.183-.51-.277-.8-.262-.157-.009-.314.015-.46.07-.148.054-.281.138-.393.247-.112.108-.2.239-.257.383-.057.144-.084.298-.078.453zm4.535 0v-1.098h-.485v.267c-.082-.106-.19-.19-.311-.246-.123-.056-.257-.082-.392-.076-.3.014-.582.142-.79.357-.207.215-.322.5-.322.796 0 .297.115.582.323.796.207.215.49.343.79.357.134.006.268-.02.39-.076.123-.056.23-.14.312-.245v.266h.485v-1.098zm-1.802 0c.008-.13.053-.254.132-.358.078-.105.186-.184.31-.228.123-.045.257-.053.385-.023s.244.095.335.19c.09.094.15.212.174.34.023.128.008.26-.044.379s-.138.22-.247.292c-.11.072-.239.11-.37.111-.092.001-.184-.016-.269-.052-.085-.035-.161-.088-.225-.154-.063-.066-.112-.144-.143-.23-.031-.085-.044-.176-.038-.267zm-5.842-1.153c-.302.016-.586.146-.793.364-.206.218-.32.506-.315.804.004.299.125.584.338.796.213.212.5.335.802.342.332.012.657-.098.913-.308l-.238-.353c-.183.145-.411.226-.647.23-.16.013-.319-.036-.443-.136s-.204-.245-.222-.402h1.652c.005-.06.01-.12.01-.184-.005-.684-.433-1.153-1.057-1.153zm-.01.427c.147-.003.288.052.394.152.105.1.166.237.17.381h-1.155c.009-.147.075-.286.186-.385.11-.1.256-.153.405-.148zm12.146.726v-1.98h-.484v1.149c-.083-.106-.19-.19-.312-.246-.123-.056-.257-.082-.391-.076-.3.014-.583.142-.79.357-.207.215-.323.5-.323.796 0 .297.116.582.323.796.207.215.49.343.79.357.134.006.268-.02.39-.076.123-.056.23-.14.313-.245v.266h.484v-1.098zm.807.78c.03 0 .06.006.087.017.027.01.051.027.072.047.02.02.037.043.048.07.012.026.018.055.018.084 0 .03-.006.058-.018.085-.011.026-.028.05-.048.069-.02.02-.045.036-.072.047-.027.012-.057.018-.087.017-.044 0-.088-.012-.125-.035-.037-.024-.066-.058-.084-.098-.012-.027-.018-.056-.018-.085 0-.03.006-.058.018-.085.011-.026.027-.05.048-.07.02-.02.045-.035.072-.046.028-.012.058-.017.089-.017zm0 .388c.023 0 .045-.004.067-.013.02-.009.038-.021.054-.037.032-.032.05-.075.05-.12s-.018-.088-.05-.12c-.016-.016-.034-.028-.055-.036-.02-.01-.043-.014-.066-.014-.024 0-.047.005-.068.014-.02.008-.04.02-.055.036-.032.032-.05.075-.05.12s.018.088.05.12c.015.016.034.028.055.037.021.009.044.013.068.013zm.013-.272c.022-.002.043.005.06.017.008.006.013.013.017.021.004.009.006.018.005.027 0 .007-.001.015-.004.022-.003.007-.007.014-.013.02-.013.01-.03.018-.048.02l.067.076h-.053l-.062-.076h-.02v.076h-.044v-.203h.095zm-.051.038v.054h.05c.01 0 .02-.002.028-.007.003-.002.006-.005.008-.009.002-.003.003-.007.002-.011 0-.004 0-.008-.002-.012l-.008-.008c-.008-.005-.018-.008-.028-.007h-.05zm-2.57-.934c.007-.13.052-.254.13-.358.08-.105.187-.184.31-.228.124-.045.258-.053.386-.023s.244.095.335.19c.09.094.15.212.174.34.023.128.008.26-.044.379-.051.119-.137.22-.247.292-.11.072-.238.11-.37.111-.092.001-.183-.016-.268-.052-.085-.035-.162-.088-.225-.154-.064-.066-.113-.144-.144-.23-.031-.085-.044-.176-.038-.267zm-16.35 0v-1.098h-.484v.267c-.082-.106-.19-.19-.312-.246-.122-.056-.256-.082-.39-.076-.3.014-.584.142-.79.357-.208.215-.323.5-.323.796 0 .297.115.582.322.796.207.215.49.343.79.357.135.006.27-.02.391-.076.123-.056.23-.14.312-.245v.266h.484v-1.098zm-1.801 0c.007-.13.053-.254.132-.358.078-.105.186-.184.31-.228.123-.045.257-.053.385-.023s.244.095.335.19c.09.094.15.212.174.34.023.128.008.26-.044.379s-.138.22-.248.292c-.11.072-.238.11-.37.111-.091.001-.183-.016-.268-.052-.085-.035-.161-.088-.225-.154-.063-.066-.112-.144-.143-.23-.031-.085-.044-.176-.038-.267z"/>
    <path fill="#FF5F00" d="M20.753 8.418h-7.332v13.005h7.332V8.418z"/>
    <path fill="#EB001B" d="M13.887 14.92c-.002-1.252.286-2.489.84-3.615.555-1.127 1.362-2.114 2.36-2.887-1.236-.96-2.72-1.556-4.284-1.721-1.564-.166-3.143.106-4.557.784-1.414.678-2.607 1.736-3.441 3.051-.834 1.316-1.277 2.836-1.277 4.388s.443 3.073 1.277 4.388c.834 1.316 2.027 2.373 3.441 3.051 1.414.678 2.993.95 4.557.785 1.563-.166 3.048-.762 4.284-1.721-.998-.774-1.805-1.76-2.36-2.887-.554-1.127-.841-2.363-.84-3.616z"/>
    <path fill="#F79E1B" d="M30.646 14.92c0 1.552-.442 3.073-1.277 4.388-.834 1.316-2.026 2.373-3.44 3.051-1.415.678-2.994.95-4.557.785-1.564-.166-3.049-.762-4.285-1.721.998-.774 1.804-1.762 2.358-2.888.555-1.127.843-2.363.843-3.615 0-1.252-.288-2.488-.843-3.614-.554-1.127-1.36-2.114-2.358-2.888 1.236-.96 2.721-1.556 4.285-1.721 1.563-.166 3.142.106 4.556.784 1.415.678 2.607 1.736 3.441 3.051.835 1.316 1.277 2.836 1.277 4.388zM29.846 20.045v-.266h.11v-.054h-.278v.054h.109v.266h.06zm.538 0v-.32H30.3l-.097.22-.098-.22h-.085v.32h.06v-.242l.092.209h.062l.091-.21v.243h.06z"/>
    <defs>
        <clipPath id="clip0">
            <path fill="#fff" d="M0 0H33.36V32.547H0z" transform="translate(35.8012 0.726562)"/>
        </clipPath>
        <clipPath id="clip1">
            <path fill="#fff" d="M0 0H28.478V28.478H0z" transform="translate(102.522 3.16748)"/>
        </clipPath>
        <clipPath id="clip2">
            <path fill="#fff" d="M0 0H21.969V21.969H0z" transform="translate(74.8571 6.42236)"/>
        </clipPath>
    </defs>
</svg>
