<svg xmlns="http://www.w3.org/2000/svg" width="42" height="34" fill="none" viewBox="0 0 42 34">
    <path fill="#231F20" d="M10.4 29.72v-1.693c.01-.143-.012-.286-.062-.42s-.129-.255-.23-.357c-.103-.101-.225-.18-.36-.232-.135-.05-.28-.073-.424-.064-.19-.012-.378.026-.547.11-.17.085-.312.212-.415.37-.093-.153-.226-.278-.385-.363-.159-.084-.338-.125-.518-.117-.158-.008-.314.025-.455.095-.14.07-.26.176-.346.306v-.333h-.595v2.699h.6v-1.497c-.013-.092-.005-.186.023-.275.029-.09.076-.17.14-.24.064-.068.143-.122.23-.157.088-.035.182-.05.277-.045.394 0 .595.254.595.712v1.502h.6v-1.497c-.012-.092-.003-.186.026-.274.028-.089.076-.17.14-.238.064-.069.142-.122.229-.158.087-.035.18-.051.275-.047.406 0 .6.254.6.712v1.502h.601zm8.89-2.698h-.973v-.82h-.6v.82h-.555v.536h.555v1.23c0 .628.246 1 .95 1 .262.001.52-.071.743-.209l-.172-.502c-.16.094-.34.146-.526.152-.297 0-.395-.18-.395-.451v-1.22h.973v-.536zm5.075-.068c-.145-.004-.289.03-.416.1s-.232.171-.305.295v-.327h-.59v2.699h.596v-1.514c0-.446.194-.694.583-.694.127-.002.254.021.372.068l.183-.554c-.136-.048-.279-.073-.423-.073zm-7.672.282c-.337-.198-.725-.296-1.116-.282-.692 0-1.139.327-1.139.864 0 .44.332.711.944.796l.28.04c.327.044.481.13.481.282 0 .209-.217.327-.623.327-.327.01-.647-.09-.91-.282l-.28.457c.346.24.761.362 1.184.35.79 0 1.247-.367 1.247-.88 0-.475-.36-.723-.955-.808l-.28-.04c-.258-.033-.464-.084-.464-.265 0-.198.195-.316.52-.316.3.004.593.084.853.231l.258-.474zm15.939-.282c-.145-.004-.289.03-.416.1s-.232.171-.305.295v-.327h-.59v2.699h.596v-1.514c0-.446.194-.694.583-.694.127-.002.254.021.372.068l.183-.554c-.136-.048-.279-.073-.423-.073zm-7.667 1.417c-.008.19.025.38.096.557.07.177.178.337.316.47.137.134.301.238.482.305.18.067.373.096.565.085.358.018.709-.097.984-.322l-.286-.474c-.205.155-.456.24-.715.243-.223-.013-.432-.11-.585-.27-.153-.161-.239-.373-.239-.594 0-.22.086-.433.239-.593.153-.16.362-.258.585-.27.259.002.51.087.715.242l.286-.474c-.276-.225-.627-.34-.984-.322-.192-.011-.385.018-.565.085-.18.067-.345.17-.482.304-.138.134-.245.294-.316.471-.071.177-.104.367-.096.557zm5.573 0v-1.35h-.595v.328c-.102-.13-.233-.232-.384-.301-.15-.069-.315-.101-.48-.094-.369.018-.716.175-.97.439-.256.263-.397.614-.397.978s.142.715.396.979c.255.263.602.42.97.438.166.007.331-.025.482-.094.15-.069.281-.172.383-.301v.328h.595v-1.35zm-2.214 0c.009-.16.065-.312.161-.44.097-.129.23-.226.38-.28.153-.056.318-.065.475-.029.157.037.3.118.411.233.112.116.186.262.214.419.029.157.01.319-.053.465-.064.147-.17.272-.304.36-.135.088-.293.135-.455.136-.113.001-.225-.02-.33-.064-.104-.043-.198-.107-.276-.189-.078-.08-.138-.177-.177-.282-.038-.105-.054-.217-.046-.329zm-7.18-1.417c-.371.02-.72.18-.974.447-.254.268-.393.622-.388.99.005.366.154.716.416.977.26.26.614.411.986.42.408.014.807-.12 1.121-.378l-.292-.435c-.226.179-.506.278-.795.282-.197.017-.392-.043-.545-.166-.152-.124-.25-.3-.273-.494h2.03c.007-.074.012-.147.012-.226-.005-.841-.532-1.417-1.298-1.417zm-.012.525c.18-.003.354.064.483.186.13.123.205.291.21.469h-1.42c.011-.181.093-.351.229-.474.136-.122.314-.187.498-.181zm14.927.892v-2.433h-.595v1.411c-.102-.13-.233-.232-.383-.301-.15-.069-.316-.101-.481-.094-.369.018-.716.175-.971.439-.255.263-.396.614-.396.978s.141.715.396.979c.255.263.602.42.97.438.166.007.331-.025.482-.094.15-.069.281-.172.383-.301v.328h.595v-1.35zm.992.958c.037 0 .073.007.107.021.033.014.063.034.088.058.025.024.045.053.06.085.014.033.021.069.021.105 0 .035-.007.07-.021.104-.015.031-.035.06-.06.085-.025.024-.055.044-.088.058-.034.014-.07.021-.107.02-.055.002-.108-.014-.154-.043-.045-.03-.081-.071-.103-.12-.014-.033-.022-.069-.022-.105 0-.035.008-.07.022-.104.014-.031.034-.06.059-.085.025-.025.055-.044.088-.058.035-.014.072-.02.11-.02zm0 .478c.028 0 .056-.006.082-.017.024-.01.047-.025.066-.044.04-.04.062-.093.062-.148 0-.056-.022-.109-.062-.148-.019-.02-.041-.034-.066-.045-.026-.01-.054-.016-.082-.016-.03 0-.058.006-.084.016-.025.01-.048.026-.068.045-.04.039-.061.092-.061.148 0 .055.022.108.061.148.02.019.043.034.068.044.026.011.055.017.084.017zm.016-.335c.026-.002.053.006.075.021.008.008.015.016.02.027.004.01.006.02.006.032 0 .01-.002.018-.005.027-.004.01-.01.017-.016.023-.017.015-.038.024-.06.025l.083.094h-.065l-.076-.093h-.025v.093h-.054v-.249h.117zm-.063.047v.066h.062c.012 0 .024-.002.034-.008.004-.003.008-.007.01-.011l.003-.014c0-.005-.001-.01-.003-.014-.003-.005-.006-.008-.01-.011-.01-.006-.022-.009-.034-.008h-.062zm-3.16-1.148c.01-.16.066-.312.163-.44.096-.129.228-.226.38-.28.152-.056.316-.065.474-.029.157.037.3.118.411.234.112.115.186.26.215.418.028.157.01.319-.054.465-.064.147-.17.272-.304.36-.135.088-.293.135-.455.136-.113.001-.225-.02-.33-.064-.104-.043-.198-.108-.276-.189-.078-.08-.138-.177-.177-.282-.038-.105-.054-.217-.046-.329zm-20.092 0v-1.35h-.595v.328c-.102-.13-.233-.232-.383-.301-.15-.069-.316-.101-.481-.094-.369.018-.716.175-.97.439-.255.263-.397.614-.397.978s.142.715.396.979c.255.263.602.42.97.438.166.007.331-.025.482-.094.15-.069.281-.172.383-.301v.328h.595v-1.35zm-2.214 0c.009-.16.065-.312.162-.44.096-.129.228-.226.38-.28.152-.056.316-.065.474-.029.157.037.3.118.412.234.11.115.185.26.214.418.028.157.01.319-.054.465-.064.147-.17.272-.304.36-.135.088-.293.135-.455.136-.113.001-.225-.02-.33-.064-.104-.043-.198-.108-.276-.189-.078-.08-.138-.177-.177-.282-.038-.105-.054-.217-.046-.329z"/>
    <path fill="#FF5F00" d="M25.506 6.453h-9.012v15.983h9.012V6.453z"/>
    <path fill="#EB001B" d="M17.067 14.444c-.002-1.539.352-3.058 1.033-4.443.682-1.384 1.674-2.598 2.9-3.548-1.519-1.179-3.343-1.912-5.265-2.115-1.921-.204-3.862.13-5.6.964-1.739.833-3.204 2.133-4.23 3.75-1.025 1.616-1.569 3.485-1.569 5.392 0 1.908.544 3.777 1.57 5.393 1.025 1.617 2.49 2.916 4.228 3.75 1.739.834 3.68 1.168 5.601.964 1.922-.203 3.746-.936 5.266-2.115-1.227-.95-2.219-2.164-2.9-3.548-.682-1.385-1.035-2.904-1.034-4.444z"/>
    <path fill="#F79E1B" d="M37.664 14.444c0 1.908-.544 3.777-1.569 5.393-1.025 1.617-2.49 2.916-4.229 3.75-1.738.834-3.679 1.168-5.6.964-1.922-.203-3.746-.936-5.266-2.115 1.226-.951 2.217-2.165 2.898-3.55.682-1.384 1.036-2.903 1.036-4.442 0-1.539-.354-3.058-1.036-4.442-.68-1.384-1.672-2.598-2.898-3.55 1.52-1.178 3.344-1.91 5.266-2.114 1.921-.204 3.862.13 5.6.964 1.739.833 3.204 2.133 4.23 3.75 1.025 1.616 1.568 3.485 1.568 5.392zM36.681 20.743v-.327h.134v-.067h-.34v.067h.133v.327h.074zm.662 0v-.395h-.105l-.12.271-.12-.27h-.104v.394h.073v-.298l.113.257h.076l.113-.258v.299h.074z"/>
</svg>
