<svg xmlns="http://www.w3.org/2000/svg" width="25" height="27" fill="none" viewBox="0 0 25 27">
    <path fill="#B2001E" d="M16.025 23.303l-.172.645-.344-.044v-.215c-.171-.085-.344-.128-.559-.128-.73 0-1.074.902-1.074 1.504 0 .473.258.688.73.688h.13l.086-.43v-.172l-.172-.043.043-.387h1.246l-.086.387-.172.043-.086.172-.129.688c-.386.13-.73.172-1.117.172-.688 0-1.204-.3-1.247-1.032l.129-.172c.086-.086.172-.215.215-.344.086-.129.129-.3.129-.473 0-.085 0-.171-.043-.258.043-.085.172-.171.172-.171.387-.387.817-.56 1.375-.56.301 0 .645.044.946.13z"/>
    <path fill="#111516" d="M1.795 25.753h.387l.988-1.505v.043l-.258 1.29-.043.172H2.74l-.129.387H3.73l.043-.387H3.6l.043-.172.344-1.763.043-.129.172-.043.13-.387h-.904l-1.16 1.677-.43-1.677h-.99l-.042.387.172.043-.043.13L.59 25.58l-.043.172H.376l-.13.387h.904l.043-.387h-.086v-.172l.3-1.376.388 1.548zM4.804 26.226c.43 0 .817-.172 1.118-.516.258-.258.473-.688.473-1.075 0-.215-.129-.43-.301-.559-.172-.085-.387-.128-.602-.128-.43 0-.817.171-1.075.515-.258.258-.473.688-.473 1.075 0 .215.13.43.301.56.086.085.344.128.56.128zm.43-1.892c.258 0 .301.301.301.473 0 .301-.172 1.032-.559 1.032-.258 0-.3-.3-.3-.473 0-.344.171-1.032.558-1.032z"/>
    <path fill="#111516" d="M7.47 23.948l-.99.043-.042.386.172.043-.043.172-.215 1.032-.13.56h.818l.172-.732c.086-.172.516-.817.688-.817.043 0 .086.043.043.215l-.172.774-.13.56h1.033l.043-.388-.172-.043v-.172l.172-.946c.086-.516-.043-.688-.344-.688-.473 0-.903.56-1.075.99h-.043l.215-.99z"/>
    <path fill="#111516" d="M10.866 25.452c-.3.13-.645.301-.989.301-.215 0-.387-.086-.387-.344.56 0 1.376-.344 1.376-.989 0-.172-.086-.258-.172-.344-.129-.085-.258-.128-.43-.128-.387 0-.774.171-1.075.472-.257.258-.472.688-.472 1.075 0 .516.472.731.902.731.387 0 .774-.086 1.161-.258l.086-.516zm-1.333-.43c.043-.215.215-.645.43-.645.13 0 .172.086.172.215 0 .13-.086.258-.215.344-.086.086-.258.086-.387.086z"/>
    <path fill="#B2001E" d="M17.057 23.948l-.988.043-.043.386.172.043v.086l-.258 1.032-.172.645h.816l.172-.774c.172-.258.473-.774.817-.774.086 0 .13.043.215.086l.258-.688c-.043-.043-.129-.043-.172-.043-.43 0-.86.602-1.032.946H16.8l.258-.988zM18.863 26.183l.989-.043.043-.387-.172-.043v-.172l.215-.989.172-.645-.559.044h-.086l-.387-.044c-.473 0-.817.259-1.075.602-.258.301-.473.731-.473 1.118 0 .258.172.56.43.56.473 0 .903-.56 1.075-.947h.043l-.215.946zm.301-1.419c-.129.172-.516.86-.73.86-.087 0-.087-.086-.087-.129 0-.215.13-.516.215-.73.086-.173.215-.43.473-.43.086 0 .172.043.258.085l-.129.344zM21.228 23.948l-.946.043-.043.387.172.043v.171l-.215 1.032-.13.56h.732l.172-.818.043-.043c.086-.172.473-.73.645-.73.043 0 .086 0 .043.257l-.172.731-.13.56h.732l.172-.818.043-.043c.086-.172.473-.73.645-.73.085 0 .085.042.043.257l-.215.774-.13.56h.946l.043-.388-.172-.043v-.172l.215-.946c0-.085.043-.171.043-.258 0-.215-.129-.43-.344-.43-.258 0-.516.172-.688.387-.171.172-.257.387-.386.602h-.043l.086-.3c0-.087.043-.172.043-.259 0-.215-.13-.386-.344-.386-.258 0-.516.215-.688.386-.172.172-.258.387-.344.602h-.043l.215-.988z"/>
    <path fill="#111516" d="M12.328 23.99c.129.13.215.302.215.473 0 .344-.344.645-.559.903-.043-.473-.129-.946-.3-1.418l-.818.043-.043.386.172.043c.215.56.344 1.161.344 1.72l-.086.086c-.258.258-.516.56-.817.774l.817-.043c.258-.473.602-.86.946-1.247l.215-.258.516-.602c.129-.172.3-.387.3-.645 0-.085-.042-.171-.042-.214h-.86z"/>
    <path fill="#B2001E" d="M24.538 26.14l-.086-.129c0-.043-.043-.043-.043-.043.086 0 .13-.043.13-.129 0-.043-.044-.086-.13-.086h-.129v.387h.043v-.172l.13.172h.085zm-.086-.258c0 .043-.043.086-.086.086h-.043v-.129h.043c.086-.043.086 0 .086.043zm-.043-.215c.172 0 .301.13.301.301 0 .172-.129.301-.3.301-.173 0-.302-.129-.302-.3 0-.173.13-.302.301-.302zm0-.086c-.215 0-.344.172-.344.344 0 .215.172.344.344.344.215 0 .344-.172.344-.344s-.172-.344-.344-.344z"/>
    <path fill="#EB1C2E" d="M21.572 20.207l-.301-.43c-.043-.086-.086-.129-.13-.172.216 0 .345-.172.345-.387 0-.172-.13-.3-.43-.3h-.387v1.29h.215v-.56l.387.56h.3zm-.258-.946c0 .086-.086.215-.301.215h-.086v-.43h.172c.172.043.215.086.215.215zm-.215-.602c.516 0 .903.43.903.946s-.387.903-.903.903-.903-.43-.903-.946.387-.903.903-.903zm0-.215c-.645 0-1.161.516-1.161 1.161s.473 1.161 1.16 1.161c.603 0 1.162-.516 1.162-1.16 0-.689-.516-1.162-1.161-1.162z"/>
    <path fill="#B2001E" d="M12.973 0C7.212 0 2.525 4.686 2.525 10.447c0 5.762 4.687 10.405 10.405 10.405 5.761 0 10.404-4.686 10.404-10.405C23.377 4.688 18.691 0 12.973 0zm8.04 8.642c.086.73-.215 1.462-.817 2.106.559-.644.817-1.375.645-2.063-.258-1.29-1.677-2.15-3.569-2.279.172.43.301.903.344 1.376.172 1.075.086 1.849 0 2.751 0 0-.258.258-.43.344.13-.774.215-1.72.086-2.794-.043-.56-.215-1.161-.43-1.72-.473 0-.946.043-1.461.129-2.236.43-4.085 1.72-4.515 3.053.172-1.548 2.709-3.139 5.245-3.526.215-.043.387-.043.56-.043-.474-.989-1.29-1.763-2.408-1.849-.43-.043-.774.086-.946.172l-.172-.043c.215-.129.645-.344 1.204-.344 1.29 0 2.235.946 2.794 2.064 2.193 0 3.655 1.118 3.87 2.666zM9.576 7.61c.258-2.064 1.032-3.139 1.247-3.354 1.892.56 3.827 1.505 3.827 1.505-1.85-.086-3.784.903-5.074 1.849zm-1.16-2.537l-.817-1.247c-.086-.215-.086-.258.215-.258.773.043 1.762.258 1.762.258.817-1.074 1.806-1.805 2.924-1.977 1.29-.215 2.665.387 3.783 1.419-1.16-.903-2.45-1.333-3.654-1.032-3.31.817-4.6 5.847-3.31 10.49 0 0-.43.043-1.032-.129-.602-2.665-.43-4.643.043-6.234-2.537.43-3.139 1.849-3.483 2.408.86-2.967 3.569-3.698 3.569-3.698zm.386 9.33c-2.58-.301-4.729-1.935-5.073-3.956-.215-1.117.344-2.364 1.247-3.353-.817 1.032-1.16 2.15-.903 3.267.602 2.623 4.557 3.956 8.857 2.967 3.44-.774 6.019-2.838 6.62-4.944-.214 1.118-.945 2.235-2.02 3.224l-.043.043c-.215.817-.559 1.247-.559 1.247l-.43.258s.215-.387.387-1.032c-1.419 1.075-3.267 1.935-5.245 2.279-.645.129-1.247.172-1.806.172.946 2.364 2.623 4.342 4.945 5.16-3.01-.904-4.945-3.01-5.977-5.332zm8.47 1.806l-.086.774c-.043.3-.129.3-.43.3-2.192-.129-4.686-1.805-4.686-1.805 3.912-.602 6.535-3.182 6.535-3.182.946-.946.516-.086.473.13-.129.343-1.16 2.192-1.16 2.192 3.224-.56 4.04-2.88 4.04-2.88-1.074 3.31-4.686 4.47-4.686 4.47z"/>
    <path fill="#CC0224" d="M11.21 17.756c-1.075-.945-1.892-2.106-2.408-3.353-2.58-.301-4.729-1.935-5.073-3.956-.215-1.117.344-2.364 1.247-3.353-.817 1.032-1.16 2.15-.903 3.267.602 2.623 4.557 3.956 8.857 2.967 3.44-.774 6.019-2.838 6.62-4.944-.214 1.118-.945 2.235-2.02 3.224l-.043.043c-.215.817-.559 1.247-.559 1.247l-.43.258s.215-.387.387-1.032c-1.419 1.075-3.267 1.935-5.245 2.279-.645.129-1.247.172-1.806.172.473 1.204 1.161 2.279 1.978 3.181.946-.172 1.849-.473 2.709-.86-1.376-.515-2.537-1.29-2.537-1.29 3.912-.601 6.535-3.18 6.535-3.18.946-.947.516-.087.473.128-.086.258-.688 1.29-.989 1.849 2.15-2.15 3.44-5.116 3.44-8.384 0-.516-.043-1.032-.086-1.548C19.507 1.72 16.455 0 12.973 0 7.212 0 2.525 4.686 2.525 10.447c0 2.408.817 4.6 2.15 6.364 1.505.687 3.139 1.074 4.901 1.074.56-.043 1.118-.086 1.634-.129zM9.576 7.61c.258-2.064 1.032-3.139 1.247-3.354 1.892.56 3.827 1.505 3.827 1.505-1.85-.086-3.784.903-5.074 1.849zM17.1 5.976c2.236 0 3.698 1.118 3.913 2.623.086.73-.215 1.461-.817 2.106.559-.645.817-1.375.645-2.063-.258-1.29-1.677-2.15-3.569-2.279.172.43.301.903.344 1.376.172 1.075.086 1.849 0 2.751 0 0-.258.258-.43.344.13-.774.215-1.72.086-2.794-.043-.56-.215-1.161-.43-1.72-.473 0-.946.043-1.461.129-2.236.43-4.085 1.72-4.515 3.053.172-1.548 2.709-3.139 5.245-3.526.215-.043.387-.043.56-.043-.474-.989-1.29-1.763-2.408-1.849-.43-.043-.774.086-.946.172l-.172-.043c.215-.129.645-.344 1.204-.344 1.204.043 2.192.99 2.751 2.107zm-8.684-.903l-.817-1.247c-.086-.215-.086-.258.215-.258.773.043 1.762.258 1.762.258.817-1.074 1.806-1.805 2.924-1.977 1.29-.215 2.665.387 3.783 1.419-1.16-.903-2.45-1.333-3.654-1.032-3.31.817-4.6 5.847-3.31 10.49 0 0-.43.043-1.032-.129-.602-2.665-.43-4.643.043-6.234-2.537.43-3.139 1.849-3.483 2.408.86-2.967 3.569-3.698 3.569-3.698z"/>
    <path fill="#EB1C2E" d="M12.973 0C7.47 0 2.998 4.256 2.568 9.63c.387.56.86 1.075 1.376 1.505-.086-.258-.172-.516-.215-.774-.215-1.117.344-2.364 1.247-3.353-.817 1.032-1.16 2.15-.903 3.267.215.86.731 1.548 1.548 2.107.516.301 1.032.56 1.634.774 1.59.516 3.611.602 5.718.086 3.44-.774 6.019-2.838 6.62-4.944-.042.3-.171.602-.3.903.344-.56.688-1.161.946-1.763-.645-.645-1.677-1.032-2.924-1.075.172.43.301.903.344 1.376.172 1.075.086 1.849 0 2.752 0 0-.258.257-.43.343.13-.774.215-1.72.086-2.794-.043-.56-.215-1.161-.43-1.72-.473 0-.946.043-1.462.129-2.235.43-4.084 1.72-4.514 3.053.172-1.548 2.709-3.139 5.245-3.526.215-.043.387-.043.56-.043-.474-.989-1.29-1.763-2.408-1.849-.43-.043-.774.086-.946.172l-.172-.043c.215-.129.645-.344 1.204-.344 1.29 0 2.235.946 2.794 2.064 1.419 0 2.537.43 3.225 1.161.387-1.075.602-2.236.645-3.44C18.992 1.462 16.154 0 12.973 0zm1.677 5.718c-1.85-.086-3.784.946-5.074 1.892.258-2.064 1.032-3.139 1.247-3.354 1.892.516 3.827 1.462 3.827 1.462zm-2.021-3.44c-3.31.818-4.6 5.848-3.31 10.491 0 0-.43.043-1.032-.129-.602-2.665-.43-4.643.043-6.234-2.537.43-3.139 1.849-3.483 2.408.903-3.01 3.611-3.74 3.611-3.74l-.816-1.248c-.086-.215-.086-.258.215-.258.773.043 1.762.258 1.762.258.817-1.074 1.806-1.805 2.924-1.977 1.29-.215 2.666.387 3.783 1.419-1.204-.903-2.493-1.29-3.697-.99z"/>
</svg>
