<svg xmlns="http://www.w3.org/2000/svg" width="60" height="58" viewBox="0 0 60 58">
    <g fill="none" fill-rule="evenodd">
        <g fill="#000" fill-rule="nonzero">
            <path d="M53 9h-1V7c-.004-3.864-3.136-6.996-7-7H7C3.136.004.004 3.136 0 7v21c.004 3.864 3.136 6.996 7 7h1v2c.004 3.864 3.136 6.996 7 7h12v9c.003 2.76 2.24 4.997 5 5h18c2.76-.003 4.997-2.24 5-5v-9.3c2.972-.871 5.01-3.603 5-6.7V16c-.004-3.864-3.136-6.996-7-7zm-5 23v-3c0-3.866-3.134-7-7-7s-7 3.134-7 7v3h-2v-3c.007-4.854 3.863-8.828 8.714-8.982 4.852-.154 8.952 3.567 9.267 8.411.009.184.019.378.019.571v3zm-12 0v-3c0-2.761 2.239-5 5-5s5 2.239 5 5v3zM2 28V7c.003-2.76 2.24-4.997 5-5h38c2.76.003 4.997 2.24 5 5v15.694c-2.75-3.935-7.736-5.63-12.314-4.186C33.107 19.95 29.996 24.199 30 29v3.142c-.599.156-1.153.45-1.618.858H7c-2.76-.003-4.997-2.24-5-5zm13 14c-2.76-.003-4.997-2.24-5-5v-2h17.142c-.09.326-.138.662-.142 1v6zm38 11c0 1.657-1.343 3-3 3H32c-1.657 0-3-1.343-3-3V36c0-1.105.895-2 2-2h20c1.105 0 2 .895 2 2zm5-16c.004 1.985-1.177 3.78-3 4.564V36c-.007-1.818-1.24-3.403-3-3.858V11h1c2.76.003 4.997 2.24 5 5z"/>
            <path d="M14 15c1.657 0 3-1.343 3-3V8c0-1.657-1.343-3-3-3H8C6.343 5 5 6.343 5 8v4c0 1.657 1.343 3 3 3zm0-2h-3v-2h4v1c0 .552-.448 1-1 1zm1-5v1h-4V7h3c.552 0 1 .448 1 1zM8 7h1v2H7V8c0-.552.448-1 1-1zm-1 5v-1h2v2H8c-.552 0-1-.448-1-1zM15 22c0-.552-.448-1-1-1H8c-.552 0-1 .448-1 1s.448 1 1 1h6c.552 0 1-.448 1-1zM18 23h6c.552 0 1-.448 1-1s-.448-1-1-1h-6c-.552 0-1 .448-1 1s.448 1 1 1zM28 23h1c.552 0 1-.448 1-1s-.448-1-1-1h-1c-.552 0-1 .448-1 1s.448 1 1 1zM11 28c0-.552-.448-1-1-1H8c-.552 0-1 .448-1 1s.448 1 1 1h2c.552 0 1-.448 1-1zM17 27h-2c-.552 0-1 .448-1 1s.448 1 1 1h2c.552 0 1-.448 1-1s-.448-1-1-1zM37 14c1.153-.004 2.248-.508 3-1.382 1.093 1.263 2.856 1.713 4.421 1.13 1.565-.583 2.603-2.078 2.603-3.748 0-1.67-1.038-3.165-2.603-3.748-1.565-.583-3.328-.133-4.421 1.13-1.211-1.387-3.213-1.765-4.847-.916-1.634.848-2.475 2.704-2.037 4.493C33.555 12.747 35.16 14.003 37 14zm6-6c1.105 0 2 .895 2 2s-.895 2-2 2-2-.895-2-2 .895-2 2-2zm-6 0c1.105 0 2 .895 2 2s-.895 2-2 2-2-.895-2-2 .895-2 2-2zM41 36c-4.97 0-9 4.03-9 9s4.03 9 9 9 9-4.03 9-9c-.006-4.968-4.032-8.994-9-9zm0 16c-3.866 0-7-3.134-7-7s3.134-7 7-7 7 3.134 7 7c-.004 3.864-3.136 6.996-7 7z"/>
            <path d="M42 42v-1c0-.552-.448-1-1-1s-1 .448-1 1v2c0 .552.448 1 1 1v1c-.552 0-1 .448-1 1v3c0 .552.448 1 1 1s1-.448 1-1v-2c.552 0 1-.448 1-1v-3c0-.552-.448-1-1-1z"/>
        </g>
    </g>
</svg>
