<svg width="30" height="30" fill="none" xmlns="http://www.w3.org/2000/svg">
    <path d="M28.828 6.797h-5.625a4.693 4.693 0 0 0-4.687-4.688A4.677 4.677 0 0 0 15 3.701a4.677 4.677 0 0 0-3.516-1.592 4.693 4.693 0 0 0-4.687 4.688H1.172C.525 6.797 0 7.322 0 7.969v4.687c0 .647.525 1.172 1.172 1.172h1.172v12.89c0 .648.524 1.173 1.172 1.173h22.968c.648 0 1.172-.525 1.172-1.172v-12.89h1.172c.647 0 1.172-.526 1.172-1.173V7.97c0-.647-.525-1.172-1.172-1.172zM18.516 4.453a2.346 2.346 0 0 1 2.343 2.344h-4.687a2.346 2.346 0 0 1 2.344-2.344zm-7.032 0a2.346 2.346 0 0 1 2.344 2.344H9.141a2.346 2.346 0 0 1 2.343-2.344zm-9.14 7.031V9.141h11.484v2.343H2.344zm2.344 2.344h9.14v11.719h-9.14V13.828zm20.625 11.719h-9.141V13.828h9.14v11.719zm2.343-14.063H16.172V9.141h11.484v2.343z" fill="#103178"/>
</svg>
