<svg xmlns="http://www.w3.org/2000/svg" enable-background="new 0 0 512 512" viewBox="0 0 512 512">
    <path d="M503.467 102.404h-358.4V85.333c0-25.778-19.141-47.15-43.958-50.679C97.736 24.453 88.116 17.067 76.8 17.067H25.6c-14.114 0-25.6 11.486-25.6 25.6s11.486 25.6 25.6 25.6h51.2c10.866 0 20.167-6.81 23.876-16.383C116.248 55.047 128 68.84 128 85.333v17.071h-25.6c-4.719 0-8.533 3.814-8.533 8.533v34.133c0 4.71 3.814 8.533 8.533 8.533h10.133l41.251 198.003c.009.042.022.082.031.124.016.07.024.139.041.209l17.067 68.267c.956 3.797 4.361 6.46 8.277 6.46h34.157c-5.369 7.136-8.557 16.002-8.557 25.6 0 23.526 19.14 42.667 42.667 42.667 23.526 0 42.667-19.14 42.667-42.667 0-9.598-3.187-18.464-8.557-25.6h93.913c-5.369 7.136-8.557 16.002-8.557 25.6 0 23.526 19.14 42.667 42.667 42.667 23.526 0 42.667-19.14 42.667-42.667 0-9.598-3.187-18.464-8.557-25.6h25.623c4.719 0 8.533-3.823 8.533-8.533 0-4.71-3.814-8.533-8.533-8.533H185.865l-12.802-51.2h279.208c4.173 0 7.731-3.021 8.414-7.125l32.945-197.67h9.837c4.719 0 8.533-3.823 8.533-8.533v-34.133c0-4.72-3.814-8.535-8.533-8.535zM76.8 51.2H25.6c-4.71 0-8.533-3.831-8.533-8.533s3.823-8.533 8.533-8.533h51.2c4.71 0 8.533 3.831 8.533 8.533S81.51 51.2 76.8 51.2zm196.267 401.067c0 14.114-11.486 25.6-25.6 25.6s-25.6-11.486-25.6-25.6 11.486-25.6 25.6-25.6 25.6 11.486 25.6 25.6zm162.133 0c0 14.114-11.486 25.6-25.6 25.6s-25.6-11.486-25.6-25.6 11.486-25.6 25.6-25.6 25.6 11.486 25.6 25.6zm9.843-110.934H169.075l-39.116-187.729h346.366l-31.282 187.729zm49.89-204.795h-8.451c-.026 0-.052-.004-.078-.004H119.471c-.026 0-.05.004-.076.004h-8.462v-17.067h384v17.067z"/>
    <path d="M204.8 298.667c4.719 0 8.533-3.823 8.533-8.533V204.8c0-4.71-3.814-8.533-8.533-8.533s-8.533 3.823-8.533 8.533v85.333c0 4.711 3.814 8.534 8.533 8.534zM256 298.667c4.719 0 8.533-3.823 8.533-8.533V204.8c0-4.71-3.814-8.533-8.533-8.533s-8.533 3.823-8.533 8.533v85.333c0 4.711 3.814 8.534 8.533 8.534zM307.2 298.667c4.719 0 8.533-3.823 8.533-8.533V204.8c0-4.71-3.814-8.533-8.533-8.533s-8.533 3.823-8.533 8.533v85.333c0 4.711 3.814 8.534 8.533 8.534zM358.4 298.667c4.719 0 8.533-3.823 8.533-8.533V204.8c0-4.71-3.814-8.533-8.533-8.533s-8.533 3.823-8.533 8.533v85.333c0 4.711 3.814 8.534 8.533 8.534zM409.6 298.667c4.719 0 8.533-3.823 8.533-8.533V204.8c0-4.71-3.814-8.533-8.533-8.533s-8.533 3.823-8.533 8.533v85.333c0 4.711 3.814 8.534 8.533 8.534z"/>
</svg>
