<svg xmlns="http://www.w3.org/2000/svg" enable-background="new 0 0 512 512" viewBox="0 0 512 512">
    <path d="M494.933 0H17.067C7.645.011.011 7.645 0 17.067v51.2c.02 6.069 3.272 11.668 8.533 14.692V486.4c.015 14.132 11.468 25.585 25.6 25.6h443.733c14.132-.015 25.585-11.468 25.6-25.6V82.959c5.262-3.025 8.513-8.623 8.533-14.692v-51.2C511.989 7.645 504.355.011 494.933 0zM204.8 17.067h102.4v51.2H204.8v-51.2zm93.867 68.266v26.722l-12.333-8.222c-2.867-1.908-6.6-1.908-9.467 0L256 117.746l-20.867-13.912c-2.867-1.908-6.6-1.908-9.467 0l-12.333 8.222V85.333h85.334zm-281.6-68.266h170.667v51.2H17.067v-51.2zM486.4 486.4c-.005 4.711-3.822 8.529-8.533 8.533H34.133c-4.711-.005-8.529-3.822-8.533-8.533V85.333h170.667V128c.038.253.089.503.152.751.118 1.143.454 2.252.989 3.268.126.231.144.491.293.714.156.234.4.358.574.572 1.42 1.744 3.479 2.848 5.717 3.065.267.068.536.123.809.163.271 0 .498-.129.763-.154 1.14-.122 2.247-.458 3.262-.991.23-.124.486-.142.708-.289l20.867-13.913 20.867 13.912c2.867 1.908 6.6 1.908 9.467 0l20.867-13.912 20.867 13.912c.298.164.606.308.922.433.279.152.567.287.862.404.937.372 1.933.574 2.941.596h.008l.012-.003c1.013-.022 2.014-.224 2.956-.597.192-.072.379-.128.565-.213.869-.392 1.665-.929 2.354-1.588.135-.13.236-.281.364-.42.308-.304.592-.632.849-.98.148-.223.167-.482.292-.713.535-1.017.871-2.126.99-3.269.063-.248.114-.499.152-.752V85.333H486.4V486.4zM324.267 68.267v-51.2h170.667l.009 51.2H324.267z"/>
    <path d="M102.4 307.2c0 84.831 68.769 153.6 153.6 153.6s153.6-68.769 153.6-153.6S340.831 153.6 256 153.6c-84.791.097-153.503 68.809-153.6 153.6zm290.133 0c0 75.405-61.128 136.533-136.533 136.533S119.467 382.605 119.467 307.2 180.595 170.667 256 170.667c75.37.086 136.447 61.163 136.533 136.533z"/>
    <path d="M281.6 281.6h17.067v59.733h-85.333V281.6H230.4c3.074 0 5.911-1.655 7.426-4.33 1.515-2.675 1.473-5.959-.109-8.595l-25.6-42.667c-1.654-2.413-4.391-3.856-7.317-3.856s-5.663 1.443-7.317 3.856l-25.6 42.667c-1.582 2.636-1.623 5.92-.109 8.595 1.515 2.675 4.351 4.33 7.426 4.33h17.067v68.267c-.001 2.263.898 4.434 2.499 6.035 1.6 1.6 3.771 2.499 6.035 2.499h102.4c2.263.001 4.434-.898 6.035-2.499 1.6-1.6 2.499-3.771 2.499-6.035V281.6H332.8c3.074 0 5.911-1.655 7.426-4.33 1.515-2.675 1.473-5.959-.109-8.595l-25.6-42.667c-1.654-2.413-4.391-3.856-7.317-3.856s-5.663 1.443-7.317 3.856l-25.6 42.667c-1.582 2.636-1.623 5.92-.109 8.595 1.515 2.675 4.352 4.33 7.426 4.33zm-87.325-17.067l10.525-17.546 10.525 17.546h-21.05zM307.2 246.988l10.525 17.546h-21.05l10.525-17.546zM307.2 375.467H204.8c-4.713 0-8.533 3.82-8.533 8.533s3.82 8.533 8.533 8.533h102.4c4.713 0 8.533-3.82 8.533-8.533s-3.82-8.533-8.533-8.533z"/>
</svg>
