<svg width="30" height="30" fill="none" xmlns="http://www.w3.org/2000/svg">
    <g clip-path="url(#a)">
        <path d="M22.733 21.575a1.17 1.17 0 0 1-.167 1.647c-3.484 2.841-6.888 4.52-7.031 4.59a1.17 1.17 0 0 1-1.025.003c-.144-.07-3.565-1.74-7.058-4.594a1.17 1.17 0 0 1 1.48-1.813c2.509 2.05 5.031 3.476 6.086 4.036 1.051-.563 3.565-1.994 6.068-4.036a1.17 1.17 0 0 1 1.647.167zm-20.305-4.82a1.17 1.17 0 0 0 1.043-1.699c-.723-1.428-1.09-2.855-1.09-4.24 0-1.782 1.03-6.407 5.735-6.407 1.618 0 3.097.508 4.394 1.51 1.001.774 1.518 1.568 1.52 1.57a1.155 1.155 0 0 0 1.978.005c.005-.007.521-.801 1.522-1.575 1.298-1.002 2.776-1.51 4.395-1.51 4.704 0 5.735 4.625 5.735 6.407a1.17 1.17 0 1 0 2.34 0c0-1.902-.63-3.953-1.684-5.484-1.025-1.489-2.967-3.264-6.391-3.264-3.421 0-5.708 1.728-6.905 2.962-1.197-1.234-3.483-2.962-6.904-2.962-3.425 0-5.366 1.775-6.391 3.264C.67 6.863.04 8.914.04 10.816c0 1.755.451 3.538 1.342 5.298a1.17 1.17 0 0 0 1.045.642zm27.014 4.003-3.052-2.051v-5.874a1.17 1.17 0 0 0-1.17-1.17h-4.681a1.17 1.17 0 0 0-1.17 1.17v.946l-3.708-2.656a1.17 1.17 0 0 0-1.352-.008L.5 20.77a1.17 1.17 0 1 0 1.342 1.918l13.13-9.18 4.886 3.5a1.17 1.17 0 0 0 1.852-.95v-2.055h2.34v5.327c0 .39.194.754.518.971l3.57 2.4a1.17 1.17 0 1 0 1.306-1.943zm-13.877.035a.585.585 0 0 0 .585-.585v-1.17a.585.585 0 0 0-.585-.586h-1.17a.585.585 0 0 0-.585.585v1.17c0 .324.261.586.585.586h1.17z" fill="#103178"/>
    </g>
    <defs>
        <clipPath id="a">
            <path fill="#fff" d="M0 0h30v30H0z"/>
        </clipPath>
    </defs>
</svg>
