<svg xmlns="http://www.w3.org/2000/svg" width="512" height="512" viewBox="0 0 74 74">
    <path d="M55.961 66.24a1 1 0 01-.572-1.821c.94-.653 1.681-1.2 2.334-1.728a1 1 0 011.254 1.559c-.69.555-1.467 1.13-2.446 1.811a1 1 0 01-.57.179zM37 72a34.953 34.953 0 1132.478-21.917 1 1 0 11-1.856-.746A33.005 33.005 0 1049.091 67.71a1.027 1.027 0 011.374.93 1 1 0 01-.711.959A34.666 34.666 0 0137 72zM63.319 59.54a1 1 0 01-.778-1.627c.6-.747 1.17-1.507 1.738-2.324a1 1 0 011.642 1.142c-.6.856-1.192 1.653-1.822 2.436a1 1 0 01-.78.373z"/>
    <path d="M37 65a28 28 0 1 1 28-28 28.032 28.032 0 0 1-28 28zm0-54a26 26 0 1 0 26 26 26.03 26.03 0 0 0-26-26z"/>
    <path d="M10.73 31.78a1 1 0 01-.344-1.939 75.612 75.612 0 0153.206-.071 1 1 0 01-.684 1.88 73.643 73.643 0 00-51.834.069 1.015 1.015 0 01-.344.061zM43 64.32a1 1 0 01-1-1v-3.44A20.9 20.9 0 0162.88 39h.95a1 1 0 010 2h-.95A18.9 18.9 0 0044 59.88v3.44a1 1 0 01-1 1zM31 64.32a1 1 0 01-1-1v-3.44A18.9 18.9 0 0011.12 41h-.95a1 1 0 010-2h.95A20.9 20.9 0 0132 59.88v3.44a1 1 0 01-1 1z"/>
    <path d="M37 44.417a6 6 0 1 1 6-6 6.007 6.007 0 0 1-6 6zm0-10a4 4 0 1 0 4 4 4 4 0 0 0-4-4z"/>
</svg>
