<svg xmlns="http://www.w3.org/2000/svg" width="173" height="171" fill="none" viewBox="0 0 173 171">
    <g fill="#F7F7F7" clip-path="url(#clip0)">
        <path d="M171.71 61.83c-.469-.518-9.071-9.872-21.432-14.353 5.535-11.808 4.926-24.434 4.887-25.128-.142-2.55-2.202-4.585-4.781-4.726-.703-.039-13.476-.64-25.422 4.83-4.534-12.218-13.997-20.72-14.521-21.183-1.924-1.704-4.836-1.704-6.761 0-.672.595-16.086 14.444-16.871 32.4-18.175-5.27-35.695-1.972-47.038 9.24-10.02 9.904-23.628 33.93-31.653 55.885-7.7 21.066-13.837 49.187.663 63.52 6.4 6.325 15.516 8.677 25.537 8.677 12.684 0 26.819-3.769 38.725-8.021 22.213-7.933 46.519-21.384 56.539-31.288 11.343-11.212 14.68-28.529 9.348-46.494 18.166-.776 32.177-16.011 32.779-16.676 1.724-1.902 1.724-4.781.001-6.683zm-34.212 13.375c-.833 0-1.658-.048-2.475-.133-2.427-5.08-5.493-9.97-9.141-14.567-.521-.657-1.059-1.308-1.606-1.954 3.924-1.954 8.45-3.413 13.222-3.413 9.667 0 18.411 6.071 23.087 10.033-4.679 3.964-13.421 10.034-23.087 10.034zM122.416 124.6c-7.855 7.763-29.757 20.714-52.816 28.949-25.842 9.229-45.397 9.842-53.652 1.682-8.256-8.16-7.635-27.489 1.702-53.031 8.331-22.793 21.434-44.442 29.288-52.206 5.86-5.793 14.061-8.756 23.273-8.756 6.418 0 13.326 1.439 20.273 4.361 5.253 2.207 10.314 5.185 15.044 8.853 2.03 1.573 4.011 3.287 5.866 5.07.231.226.463.452.694.68.232.23.46.458.665.664 1.828 1.856 3.562 3.815 5.154 5.822 3.71 4.674 6.723 9.677 8.955 14.87l.001.002c7.2 16.72 5.496 33.211-4.447 43.04zm17.671-79.38c-.854-.066-1.717-.1-2.59-.1-4.398 0-8.571.872-12.394 2.218 1.361-3.78 2.243-7.904 2.243-12.252 0-.862-.035-1.716-.101-2.56 6.098-3.32 13.094-4.418 17.663-4.765-.351 4.518-1.462 11.432-4.821 17.459zm-22.875-10.134c0 4.696-1.485 9.17-3.469 13.056-.649-.535-1.301-1.062-1.961-1.573-4.651-3.607-9.599-6.638-14.738-9.036-.085-.808-.134-1.623-.134-2.447 0-9.563 6.152-18.212 10.16-22.831 4.009 4.602 10.142 13.215 10.142 22.831z"/>
        <path d="M76.952 65.914c2.65 0 5.19-2.303 5.067-5.009-.123-2.713-2.226-5.008-5.067-5.008-2.651 0-5.19 2.303-5.068 5.008.123 2.714 2.227 5.01 5.068 5.01zM85.578 81.442c-2.65 0-5.19 2.304-5.067 5.01.123 2.713 2.227 5.008 5.067 5.008 2.651 0 5.19-2.304 5.068-5.009-.123-2.713-2.227-5.009-5.068-5.009zM111.38 89.934c-2.65 0-5.19 2.303-5.067 5.008.123 2.714 2.227 5.01 5.067 5.01 2.651 0 5.19-2.304 5.068-5.01-.123-2.713-2.227-5.008-5.068-5.008zM56.875 70.09c-2.651 0-5.19 2.305-5.068 5.01.123 2.714 2.227 5.009 5.068 5.009 2.65 0 5.19-2.304 5.067-5.01-.123-2.713-2.227-5.008-5.067-5.008zM73.422 103.472c-.123-2.714-2.227-5.01-5.067-5.01-2.651 0-5.19 2.305-5.068 5.01.123 2.714 2.227 5.009 5.068 5.009 2.65 0 5.19-2.304 5.067-5.009zM97.02 109.776c-2.65 0-5.19 2.304-5.067 5.009.123 2.714 2.226 5.009 5.067 5.009 2.65 0 5.19-2.304 5.067-5.009-.122-2.714-2.226-5.009-5.067-5.009zM47.582 94.942c-.123-2.713-2.227-5.008-5.068-5.008-2.65 0-5.19 2.303-5.067 5.008.123 2.714 2.226 5.01 5.067 5.01 2.65 0 5.19-2.304 5.068-5.01zM51.141 115.479c-2.65 0-5.19 2.304-5.067 5.009.123 2.714 2.226 5.009 5.067 5.009 2.65 0 5.19-2.303 5.068-5.009-.123-2.713-2.227-5.009-5.068-5.009zM76.952 123.971c-2.651 0-5.19 2.303-5.068 5.009.123 2.713 2.227 5.009 5.068 5.009 2.65 0 5.19-2.304 5.067-5.009-.123-2.714-2.226-5.009-5.067-5.009zM33.928 132.5c-2.651 0-5.19 2.304-5.068 5.009.123 2.714 2.227 5.009 5.068 5.009 2.65 0 5.19-2.304 5.067-5.009-.123-2.714-2.226-5.009-5.067-5.009z"/>
    </g>
    <defs>
        <clipPath id="clip0">
            <path fill="#fff" d="M0 0H173V171H0z"/>
        </clipPath>
    </defs>
</svg>
