<svg xmlns="http://www.w3.org/2000/svg" enable-background="new 0 0 512 512" viewBox="0 0 512 512">
    <path d="M494.933 128H307.2c-4.713 0-8.533 3.82-8.533 8.533s3.82 8.533 8.533 8.533h187.733v349.867H17.067V145.067h17.067c4.713 0 8.533-3.82 8.533-8.533S38.846 128 34.133 128H17.067C7.641 128 0 135.641 0 145.067v349.867C0 504.359 7.641 512 17.067 512h477.867c9.426 0 17.067-7.641 17.067-17.067V145.067C512 135.641 504.359 128 494.933 128z"/>
    <path d="M102.4 443.733h119.467c23.552-.028 42.638-19.114 42.667-42.667v-358.4C264.505 19.114 245.419.028 221.867 0H102.4C78.848.028 59.762 19.114 59.733 42.667v358.4c.029 23.552 19.115 42.638 42.667 42.666zM76.8 42.667c0-14.138 11.462-25.6 25.6-25.6h119.467c14.138 0 25.6 11.462 25.6 25.6v358.4c0 14.138-11.461 25.6-25.6 25.6H102.4c-14.138 0-25.6-11.462-25.6-25.6v-358.4zM315.733 273.067H460.8c9.426 0 17.067-7.641 17.067-17.067v-68.267c0-9.426-7.641-17.067-17.067-17.067h-17.067c-4.713 0-8.533 3.82-8.533 8.533s3.82 8.533 8.533 8.533H460.8V256H315.733v-68.267h85.333c4.713 0 8.533-3.82 8.533-8.533s-3.82-8.533-8.533-8.533h-85.333c-9.426 0-17.067 7.641-17.067 17.067V256c.001 9.426 7.642 17.067 17.067 17.067zM307.2 315.733h25.6c4.713 0 8.533-3.82 8.533-8.533s-3.821-8.533-8.533-8.533h-25.6c-4.713 0-8.533 3.82-8.533 8.533s3.82 8.533 8.533 8.533zM469.333 298.667h-25.6c-4.713 0-8.533 3.82-8.533 8.533s3.82 8.533 8.533 8.533h25.6c4.713 0 8.533-3.82 8.533-8.533s-3.82-8.533-8.533-8.533zM401.067 298.667h-25.6c-4.713 0-8.533 3.82-8.533 8.533s3.82 8.533 8.533 8.533h25.6c4.713 0 8.533-3.82 8.533-8.533s-3.82-8.533-8.533-8.533zM307.2 358.4h25.6c4.713 0 8.533-3.82 8.533-8.533s-3.821-8.533-8.533-8.533h-25.6c-4.713 0-8.533 3.82-8.533 8.533s3.82 8.533 8.533 8.533zM469.333 341.333h-25.6c-4.713 0-8.533 3.82-8.533 8.533s3.82 8.533 8.533 8.533h25.6c4.713 0 8.533-3.82 8.533-8.533s-3.82-8.533-8.533-8.533zM401.067 341.333h-25.6c-4.713 0-8.533 3.82-8.533 8.533s3.82 8.533 8.533 8.533h25.6c4.713 0 8.533-3.82 8.533-8.533s-3.82-8.533-8.533-8.533zM307.2 401.067h25.6c4.713 0 8.533-3.821 8.533-8.533 0-4.713-3.821-8.533-8.533-8.533h-25.6c-4.713 0-8.533 3.821-8.533 8.533s3.82 8.533 8.533 8.533zM469.333 384h-25.6c-4.713 0-8.533 3.821-8.533 8.533 0 4.713 3.82 8.533 8.533 8.533h25.6c4.713 0 8.533-3.821 8.533-8.533.001-4.712-3.82-8.533-8.533-8.533zM401.067 384h-25.6c-4.713 0-8.533 3.821-8.533 8.533 0 4.713 3.82 8.533 8.533 8.533h25.6c4.713 0 8.533-3.821 8.533-8.533S405.78 384 401.067 384zM307.2 443.733h25.6c4.713 0 8.533-3.82 8.533-8.533s-3.821-8.533-8.533-8.533h-25.6c-4.713 0-8.533 3.82-8.533 8.533s3.82 8.533 8.533 8.533zM469.333 426.667h-25.6c-4.713 0-8.533 3.82-8.533 8.533s3.82 8.533 8.533 8.533h25.6c4.713 0 8.533-3.82 8.533-8.533s-3.82-8.533-8.533-8.533zM401.067 426.667h-25.6c-4.713 0-8.533 3.82-8.533 8.533s3.82 8.533 8.533 8.533h25.6c4.713 0 8.533-3.82 8.533-8.533s-3.82-8.533-8.533-8.533z"/>
</svg>
