<svg xmlns="http://www.w3.org/2000/svg" enable-background="new 0 0 512.215 512.215" viewBox="0 0 512.215 512.215">
    <g>
        <path d="M361.434 276.989c-3.332-3.331-8.734-3.331-12.066 0l-12.058 12.049-19.857-19.866L433.976 152.65c21.373 1.583 42.379-6.203 57.557-21.333 21.735-21.92 27.768-54.942 15.189-83.132-1.122-2.594-3.456-4.465-6.233-4.994-2.777-.53-5.635.35-7.634 2.349l-36.19 36.156c-3.012 3.16-7.245 4.859-11.605 4.659-4.529-.067-8.851-1.905-12.041-5.12-6.642-6.406-6.856-16.977-.478-23.646l36.181-36.207c1.999-1.999 2.879-4.857 2.349-7.634-.53-2.777-2.4-5.111-4.994-6.233-28.189-12.586-61.215-6.552-83.132 15.189-15.16 15.159-22.951 36.179-21.333 57.557L245.048 196.827l-55.663-55.663 3.772-3.772c4.661-4.632 7.31-10.914 7.373-17.485.098-6.578-2.479-12.913-7.142-17.553L171.048 80.5c.065-.322.222-.618.452-.853 44.689-50.603 77.653-49.067 78.404-49.041 3.844.352 7.446-1.921 8.783-5.542 1.337-3.621.076-7.69-3.074-9.92-49.493-35.098-107.597 4.702-131.14 30.387L108.617 61.36 87.428 40.155c-6.593-6.518-17.216-6.476-23.757.094l-23.39 23.39c-3.219 3.137-5.04 7.436-5.055 11.931-.014 4.494 1.78 8.805 4.978 11.963l21.111 21.129-.657.657c-3.439 3.424-5.257 8.15-5.001 12.996.188 4.419 2.271 8.543 5.717 11.315 1.014.868 1.594 2.138 1.587 3.473.077 2.503-.883 4.927-2.654 6.699l-3.251 3.251c-2.342 2.375-5.92 3.03-8.951 1.638l-7.108-3.558c-6.455-3.199-14.233-1.91-19.311 3.2L8.461 161.567c-4.65 4.621-7.295 10.887-7.364 17.442-.101 6.572 2.471 12.904 7.125 17.544l45.466 45.466c4.587 4.583 10.813 7.148 17.297 7.125 6.657.001 13.041-2.649 17.741-7.364l13.218-13.227c5.123-5.072 6.413-12.858 3.2-19.311l-3.499-7.006c-1.45-3.047-.817-6.677 1.579-9.054l3.251-3.251c2.957-3 7.759-3.121 10.863-.273 3.038 3.142 7.209 4.937 11.579 4.983 4.371.047 8.578-1.659 11.683-4.736l.503-.503 55.671 55.663L82.163 359.72c-35.254-2.003-67.331 20.292-77.742 54.033s3.526 70.233 33.779 88.443c30.253 18.21 69.024 13.445 93.968-11.549 15.497-15.407 23.635-36.724 22.349-58.539l114.645-114.645 19.866 19.891-12.075 12.066c-3.331 3.332-3.331 8.734 0 12.066L411.132 495.63c23.328 23.329 61.151 23.329 84.48 0 23.329-23.328 23.329-61.151 0-84.48L361.434 276.989zM52.297 75.782l23.04-23.552 21.197 21.197-23.203 23.21-21.034-20.855zm76.8 101.512c-4.554-4.445-10.704-6.875-17.067-6.741-6.595.043-12.91 2.672-17.587 7.322l-3.251 3.251c-7.551 7.547-9.489 19.05-4.83 28.655l3.55 6.716-13.227 13.227c-1.41 1.483-3.353 2.343-5.399 2.388s-4.025-.729-5.498-2.149l-45.5-45.466c-1.399-1.408-2.166-3.323-2.125-5.308.023-2.101.872-4.109 2.364-5.589l12.843-13.227 7.202 3.61c9.59 4.598 21.039 2.637 28.552-4.89l3.251-3.251c5.18-5.202 7.946-12.335 7.629-19.669-.226-5.752-2.742-11.175-6.989-15.061l41.574-41.557.247-.247 21.939-21.982c.503-.538 43.051-46.191 86.374-38.016-25.049 11.031-47.131 27.833-64.444 49.033-6.272 6.558-6.272 16.891 0 23.45l22.63 22.63c1.405 1.408 2.178 3.327 2.142 5.316-.023 2.101-.875 4.107-2.372 5.581l-52.008 51.974zm24.106.086l24.115-24.115 55.671 55.663-24.115 24.115-55.671-55.663zm110.089 121.813c-.06.06-.137.077-.196.137-.06.06-.077.136-.128.196L139.644 422.841c-1.834 1.837-2.732 4.409-2.44 6.989 2.782 25.192-10.648 49.394-33.496 60.363-22.848 10.969-50.133 6.313-68.05-11.612-17.021-17.06-22.123-42.676-12.938-64.956s30.858-36.858 54.956-36.966c2.249.002 4.497.128 6.733.375 2.581.302 5.157-.598 6.989-2.441l123.273-123.281c.077-.068.179-.094.247-.162s.094-.171.162-.247l35.772-35.772c.077-.068.171-.085.247-.162.077-.077.094-.171.162-.247L376.504 89.486c1.864-1.864 2.761-4.485 2.432-7.1-2.441-18.243 4.11-36.537 17.577-49.084 13.467-12.546 32.179-17.788 50.203-14.063l-26.24 26.274c-13.045 13.335-12.831 34.715.478 47.787 6.326 6.37 14.899 10.004 23.876 10.12 8.976.325 17.665-3.188 23.893-9.66l26.249-26.231c3.726 18.024-1.516 36.736-14.063 50.201-12.547 13.466-30.842 20.015-49.084 17.57-2.615-.329-5.236.568-7.1 2.432L263.292 299.193zm17.928 6.178l24.158-24.158 19.866 19.849-1.118 1.126-23.04 23.04-19.866-19.857zm213.506 159.128c-3.933 14.773-15.47 26.313-30.242 30.25s-30.522-.33-41.286-11.185L295.053 355.428l11.895-11.887c.068-.068.162-.085.222-.154l29.815-29.867 18.415-18.432 128.128 128.128c10.86 10.762 15.131 26.51 11.198 41.283z" transform="translate(-1 -1)"/>
        <path d="M53.747 412.234c-9.764 9.761-12.686 24.443-7.404 37.199 5.283 12.756 17.729 21.073 31.536 21.073s26.253-8.317 31.536-21.073c5.283-12.756 2.36-27.438-7.404-37.199-13.512-12.873-34.751-12.873-48.264 0zm36.199 36.19c-6.758 6.432-17.374 6.432-24.132 0-4.882-4.881-6.343-12.222-3.702-18.6 2.641-6.378 8.865-10.537 15.768-10.537 6.903 0 13.127 4.159 15.768 10.537 2.641 6.378 1.18 13.719-3.702 18.6zM344.93 157.241L157.197 344.974c-2.218 2.143-3.108 5.315-2.327 8.299.781 2.984 3.111 5.314 6.094 6.094 2.984.781 6.156-.109 8.299-2.327l187.733-187.733c3.234-3.348 3.188-8.671-.104-11.962-3.291-3.292-8.613-3.338-11.962-.104z" transform="translate(-1 -1)"/>
    </g>
</svg>
