<svg xmlns="http://www.w3.org/2000/svg" width="512" height="512" viewBox="0 0 61 61">
    <g fill="none" fill-rule="evenodd">
        <g fill="#000" fill-rule="nonzero">
            <path d="M50.142 9.942C50.489 6.747 49.1 3.61 46.5 1.72c-3.28-2.364-7.728-2.27-10.906.228-3.668 2.898-4.495 8.128-1.9 12.016.257.394.204.913-.126 1.248L15.211 33.56c-.333.333-.855.386-1.248.126-3.888-2.595-9.118-1.768-12.016 1.9-2.5 3.18-2.593 7.632-.227 10.914 1.889 2.602 5.027 3.993 8.223 3.646-.414 3.945 1.802 7.696 5.458 9.235 3.655 1.54 7.887.504 10.42-2.549 2.532-3.052 2.767-7.403.579-10.711-.257-.394-.204-.913.126-1.248l18.347-18.348c.334-.33.854-.383 1.248-.127 3.888 2.595 9.118 1.768 12.016-1.9 2.498-3.178 2.59-7.626.228-10.906-1.89-2.602-5.026-3.994-8.223-3.65zm6.434 13.3c-2.253 2.856-6.321 3.503-9.349 1.487-1.187-.783-2.76-.624-3.768.379L25.111 43.459c-1.003 1.007-1.162 2.58-.379 3.768 1.787 2.7 1.49 6.273-.719 8.64-2.209 2.367-5.753 2.91-8.57 1.314-2.816-1.597-4.17-4.917-3.274-8.028.1-.35.003-.726-.254-.983s-.634-.354-.983-.254c-3.111.896-6.43-.458-8.027-3.274-1.597-2.816-1.054-6.36 1.313-8.57s5.94-2.507 8.639-.72c1.187.783 2.76.625 3.768-.378l18.349-18.348c1.003-1.007 1.162-2.58.379-3.768-1.788-2.7-1.49-6.273.718-8.64 2.21-2.367 5.753-2.911 8.57-1.315 2.817 1.597 4.171 4.917 3.275 8.028-.1.35-.003.725.254.982s.633.355.982.255c2.925-.844 6.06.3 7.756 2.828 1.695 2.53 1.56 5.864-.332 8.249z"/>
            <circle cx="41" cy="8" r="1"/>
            <circle cx="51" cy="19" r="1"/>
            <circle cx="9" cy="41" r="1"/>
            <circle cx="19" cy="52" r="1"/>
            <circle cx="30" cy="30" r="1"/>
            <circle cx="23" cy="37" r="1"/>
            <circle cx="37" cy="23" r="1"/>
        </g>
    </g>
</svg>
