<svg xmlns="http://www.w3.org/2000/svg" width="41" height="14" fill="none" viewBox="0 0 41 14">
    <path fill="#3C58BF" d="M15.033 12.746l2.083-11.429h3.254l-2.018 11.429h-3.319z"/>
    <path fill="#293688" d="M15.033 12.746l2.669-11.429h2.668l-2.018 11.429h-3.319z"/>
    <path fill="#3C58BF" d="M30.132 1.444C29.48 1.19 28.44.937 27.138.937c-3.254 0-5.597 1.587-5.597 3.873 0 1.714 1.627 2.603 2.929 3.174 1.301.572 1.692.953 1.692 1.46 0 .762-1.041 1.143-1.953 1.143-1.301 0-2.017-.19-3.123-.635l-.456-.19-.455 2.603c.78.318 2.212.635 3.71.635 3.448 0 5.726-1.587 5.726-4 0-1.333-.846-2.35-2.798-3.175-1.172-.571-1.888-.888-1.888-1.46 0-.508.586-1.016 1.888-1.016 1.106 0 1.887.19 2.473.445l.325.127.52-2.477z"/>
    <path fill="#293688" d="M30.132 1.444C29.48 1.19 28.44.937 27.138.937c-3.254 0-5.011 1.587-5.011 3.873 0 1.714 1.041 2.603 2.343 3.174 1.301.572 1.692.953 1.692 1.46 0 .762-1.041 1.143-1.953 1.143-1.301 0-2.017-.19-3.123-.635l-.456-.19-.455 2.603c.78.318 2.212.635 3.71.635 3.448 0 5.726-1.587 5.726-4 0-1.333-.846-2.35-2.798-3.175-1.172-.571-1.888-.888-1.888-1.46 0-.508.586-1.016 1.888-1.016 1.106 0 1.887.19 2.473.445l.325.127.52-2.477z"/>
    <path fill="#3C58BF" d="M35.728 1.317c-.78 0-1.366.064-1.692.826l-4.88 10.603h3.514l.65-1.905h4.166l.39 1.905H41L38.267 1.317h-2.539zm-1.496 7.62c.195-.572 1.301-3.366 1.301-3.366s.26-.698.456-1.143l.195 1.08s.65 2.857.781 3.492h-2.733v-.064z"/>
    <path fill="#293688" d="M36.51 1.317c-.782 0-1.367.064-1.693.826l-5.662 10.603h3.515l.65-1.905h4.166l.39 1.905H41L38.267 1.317h-1.758zm-2.278 7.62c.26-.635 1.301-3.366 1.301-3.366s.26-.698.456-1.143l.195 1.08s.65 2.857.781 3.492h-2.733v-.064z"/>
    <path fill="#3C58BF" d="M9.046 9.317l-.325-1.65c-.586-1.905-2.473-4-4.556-5.016l2.929 10.158h3.514l5.271-11.428h-3.514L9.046 9.317z"/>
    <path fill="#293688" d="M9.046 9.317l-.325-1.65c-.586-1.905-2.473-4-4.556-5.016l2.929 10.158h3.514l5.271-11.428h-2.863l-3.97 7.936z"/>
    <path fill="#FFBC00" d="M0 1.317l.586.127C4.75 2.397 7.614 4.81 8.72 7.667L7.549 2.27c-.195-.762-.78-.953-1.497-.953H0z"/>
    <path fill="#F7981D" d="M0 1.317c4.165.953 7.614 3.429 8.72 6.286L7.615 3.095C7.42 2.333 6.768 1.89 6.052 1.89L0 1.317z"/>
    <path fill="#ED7C00" d="M0 1.317c4.165.953 7.614 3.429 8.72 6.286l-.78-2.476c-.196-.762-.456-1.524-1.367-1.841L0 1.317z"/>
    <path fill="#051244" d="M12.3 8.937l-2.213-2.16-1.041 2.414-.26-1.588C8.2 5.7 6.313 3.603 4.23 2.587l2.929 10.16h3.514l1.627-3.81zM18.352 12.746l-2.798-2.794-.52 2.794h3.318zM25.837 8.81c.26.254.39.444.325.698 0 .762-1.041 1.143-1.953 1.143-1.301 0-2.017-.19-3.123-.635l-.456-.19-.456 2.603c.782.317 2.213.634 3.71.634 2.083 0 3.775-.57 4.75-1.587L25.838 8.81zM29.611 12.746h3.059l.65-1.905h4.166l.39 1.905H41l-1.106-4.635-3.905-3.682.195 1.016s.65 2.857.781 3.492h-2.733c.26-.635 1.301-3.365 1.301-3.365s.26-.699.456-1.143"/>
</svg>
