<svg xmlns="http://www.w3.org/2000/svg" width="35" height="15" fill="none" viewBox="0 0 35 15">
    <path fill="#FFDD12" d="M12.702 13.907H6.944L4.177.811H8.75l1.186 8.072L11.178.811h5.25l1.241 8.298L18.911.81h4.516l-2.766 13.096h-5.645L13.831 5.44"/>
    <path fill="#FFDD12" d="M12.702 13.907H6.944L4.177.811H8.75l1.186 8.072L11.178.811h5.25l1.241 8.298L18.911.81h4.516l-2.766 13.096h-5.645L13.831 5.44"/>
    <path fill="#FFC715" d="M10.274 12.891c.508.452 1.186.79 1.976 1.016h.452l1.185-8.467 1.185 8.467h5.646L23.484.867h-4.516l-1.242 8.242L16.54.867h-5.25L10.105 8.94 8.919.867v7.96c-.17 1.806.339 3.16 1.355 4.064z"/>
    <path fill="#FFF315" d="M3.5 13.85h-.79L0 .81h.79"/>
    <path fill="#FFDD12" d="M5.589 13.85h-.734L2.089.81h.79"/>
    <path fill="#000" d="M27.153.81v8.186c0 .508-.113.96-.338 1.242-.226.282-.509.452-.847.452-.395 0-.678-.17-.904-.452-.225-.282-.282-.734-.282-1.298V.81h-.96l-2.54 12.081c.452.395 1.016.734 1.694.903.79.283 1.806.396 3.048.396 2.089 0 3.67-.452 4.686-1.299 1.016-.903 1.524-2.258 1.524-4.12V.81"/>
    <path fill="#FFA515" d="M19.814.81v7.96c0 1.016.113 1.807.283 2.371.17.508.451 1.016.846 1.412L23.428.81"/>
    <path fill="#000" d="M33.194 1.883h.225l.057.113.113.057.113-.057.056-.056-.056-.057-.113-.056c-.113 0-.17-.057-.226-.113l-.056-.17.056-.112.113-.113c.056 0 .113-.057.226-.057s.169 0 .226.057c.056.056.112.113.112.225h-.225l-.057-.112h-.169v.112l.113.057c.113 0 .169.056.226.056l.112.113.057.113-.226.113-.113.113-.226.056c-.169 0-.225-.056-.282-.112-.056-.057-.056-.113-.056-.17z"/>
    <path fill="#000" d="M34.04 1.262h.339l.17.565.112-.565H35v.903h-.226v-.677l-.17.677h-.169l-.169-.677v.677h-.226"/>
    <path fill="#44423E" d="M21.282 12.891c.452.395 1.016.734 1.694.903.79.283 1.806.396 3.048.396h.226L29.016.81h-1.863v8.186c0 .508-.113.96-.338 1.242-.226.282-.509.452-.847.452-.395 0-.678-.17-.904-.452-.225-.282-.282-.734-.282-1.298V.81H23.823l-2.54 12.081z"/>
</svg>
